<svg id="Layer_1" data-name="Layer 1" xmlns="http://www.w3.org/2000/svg" viewBox="0 0 219 219"><defs><style>.cls-1{fill:#7b4696;}.cls-2{fill:#fdd9c6;}.cls-3{fill:#f48799;}.cls-4{fill:#586166;}.cls-5{fill:#fff;}</style></defs><title>deal</title><rect class="cls-1" width="219" height="219"/><path class="cls-2" d="M210.62,300.25a24.43,24.43,0,0,1-24.2-27.81L176.76,265,164.94,280.2l52.79,40.95,11.82-15.25-9.63-7.47A24.47,24.47,0,0,1,210.62,300.25Z" transform="translate(-115 -150)"/><path class="cls-3" d="M191.31,260.8a24.2,24.2,0,0,1,3.21-3.41l-7.42-5.76-6.66,8.58,7.7,6A24.35,24.35,0,0,1,191.31,260.8Z" transform="translate(-115 -150)"/><path class="cls-3" d="M230,290.78a24.33,24.33,0,0,1-4.43,4.41l7.7,6,6.66-8.58-7.43-5.76A24.11,24.11,0,0,1,230,290.78Z" transform="translate(-115 -150)"/><path class="cls-2" d="M242.49,229.37a12.53,12.53,0,0,1,2.87,1.66,12.23,12.23,0,0,1,3.3,3.93l.06.13a12.19,12.19,0,0,1-10.84,17.77,12,12,0,0,1-7.47-2.56,12.19,12.19,0,0,1-2.16-17.11,12.07,12.07,0,0,1,8.23-4.64,34.42,34.42,0,0,1,4.29-9l-5.24-4.07-25.61,6.73-19.14,24.69,9,7a24.48,24.48,0,0,1,10.89-2.53,24.22,24.22,0,0,1,15,5.13,24.49,24.49,0,0,1,8.93,24.39l9,7,19.14-24.68.16-26.48-17.34-13.45A29.84,29.84,0,0,0,242.49,229.37Z" transform="translate(-115 -150)"/><path class="cls-4" d="M278,190.21c-2.72-1.78-6.34,0-7.54.56-6.61,3.21-18.33,13.46-26.28,23.85l-7.35-5.7-30.44,8-49.91,64.34,62.27,48.31L242,299.69l6.34-8.17h0l20.39-26.29.18-31.48-8.79-6.82a107.86,107.86,0,0,0,11.82-13.36c5.62-7.82,10.06-14,9.13-19A6.61,6.61,0,0,0,278,190.21ZM187.1,251.63l7.42,5.76a24.58,24.58,0,0,0-6.38,8.79l-7.7-6Zm9,12.84a18.46,18.46,0,1,1,3.27,25.91A18.34,18.34,0,0,1,196.05,264.47Zm21.68,56.68L164.94,280.2,176.76,265l9.66,7.49a24.47,24.47,0,0,0,33.5,26l9.63,7.47Zm15.5-20-7.7-6a24.4,24.4,0,0,0,6.93-8.37l7.43,5.76Zm29.64-64.48-.16,26.48-19.14,24.68-9-7a24.49,24.49,0,0,0-8.93-24.39,24.22,24.22,0,0,0-15-5.13,24.48,24.48,0,0,0-10.89,2.53l-9-7,19.14-24.69,25.61-6.73,5.24,4.07a34.42,34.42,0,0,0-4.29,9,12.07,12.07,0,0,0-8.23,4.64,12.19,12.19,0,0,0,2.16,17.11,12.19,12.19,0,0,0,17.11-2.16,12.2,12.2,0,0,0,1.2-13l-.06-.13a12.23,12.23,0,0,0-3.3-3.93,12.53,12.53,0,0,0-2.87-1.66,29.84,29.84,0,0,1,3-6.14Zm-21.59,5.42a6.77,6.77,0,0,0,2.75-.66,6.19,6.19,0,1,1-8.18-6.63c.11,2.87.87,5.72,3.44,6.87A4.91,4.91,0,0,0,241.28,242.1Zm25.76-32a105.61,105.61,0,0,1-11.74,13.14l-6.33-4.9a98.65,98.65,0,0,1,8-9.15C266,199.89,273,195.75,275,195.45a.43.43,0,0,1,.12.26C275.6,198.16,270.85,204.76,267,210.07Z" transform="translate(-115 -150)"/><path class="cls-5" d="M235.85,234.81a6.2,6.2,0,1,0,8.18,6.63,6.77,6.77,0,0,1-2.75.66,4.91,4.91,0,0,1-2-.42C236.72,240.53,236,237.68,235.85,234.81Z" transform="translate(-115 -150)"/><path class="cls-5" d="M199.32,290.38a18.47,18.47,0,0,0,25.9-3.27,18.46,18.46,0,1,0-25.9,3.27Z" transform="translate(-115 -150)"/></svg>