<svg xmlns="http://www.w3.org/2000/svg" viewBox="0 0 219 218.99"><defs><style>.cls-1{isolation:isolate;}.cls-2{fill:#24252e;}.cls-3{fill:#c6d132;}.cls-4{fill:#d8235b;}.cls-5{fill:#0aafbc;}.cls-6{fill:#f8972f;}.cls-7{fill:#46c2c9;}.cls-8{fill:#6fcbd4;}.cls-9{fill:#abbb38;}.cls-10{fill:#e1e445;}.cls-11{fill:#c71f49;}.cls-12{fill:#ea3b7a;}.cls-13{fill:#5c396d;}.cls-14{fill:#ef3f3d;}.cls-15{fill:#dde462;}.cls-16{fill:#b5e4fa;}.cls-17{fill:#e2f3f7;}.cls-18{fill:#f9c02d;}.cls-19{fill:#ffd550;}.cls-20{fill:#84d2f6;}.cls-21{fill:#faf392;}.cls-22,.cls-26,.cls-28{mix-blend-mode:overlay;}.cls-23,.cls-26,.cls-28{fill:#bdbdbd;}.cls-24{fill:#ffcb72;}.cls-25{fill:#393040;}.cls-27{fill:#e0e1e0;mix-blend-mode:multiply;}.cls-28{opacity:0.46;}.cls-29{fill:#fab041;}</style></defs><title>party</title><g class="cls-1"><g id="Layer_1" data-name="Layer 1"><rect id="_13" data-name="13" class="cls-2" width="219" height="218.99"/><g id="_37" data-name="37"><path class="cls-3" d="M163.25,305.53a3,3,0,0,1-1.21-1.67c2.93-.64,6.87-3.9,9.33-1.34l2.25,2.26-.05.05c-3.13-2.19-7,2.58-10.24.76Z" transform="translate(-115 -150)"/><path class="cls-3" d="M148.25,297.93l.11.07c1.5.86,3.54-1,6.08-2.85s5.47-3.72,7.68-4a2.69,2.69,0,0,0-.41-2.49c-1.07-1.28-3.92-.5-6.71,1.25s-5.61,4.38-7.6,5.65A2.69,2.69,0,0,0,148.25,297.93Z" transform="translate(-115 -150)"/><path class="cls-3" d="M132.05,285.36c1.84.47,5-3.06,8.77-5.76,3.88-3,8.45-5.1,9.78-3.5.53.59.44,1.46,0,2.51-2.52.5-6,2.83-8.87,5.14s-5.25,4.5-6.72,3.58l-2.93-1.86Z" transform="translate(-115 -150)"/><path class="cls-4" d="M145,296c-1.45-.8-1-4.16.45-7.65s3.95-7.21,5.08-9.61c.49-1.13.65-2.05.12-2.64l2.62,3c1.13,1.31-.72,3.89-2.43,7.09s-3.4,6.92-3.39,9.44a2.69,2.69,0,0,0,.85,2.34Z" transform="translate(-115 -150)"/><path class="cls-4" d="M145,296c-1.45-.8-1-4.16.45-7.65s3.95-7.21,5.08-9.61c.49-1.13.65-2.05.12-2.64l2.62,3c1.13,1.31-.72,3.89-2.43,7.09s-3.4,6.92-3.39,9.44a2.69,2.69,0,0,0,.85,2.34Z" transform="translate(-115 -150)"/><path class="cls-4" d="M160.44,303.71l-.92-.6c-.93-1-.8-2.82-.43-4.33a31.36,31.36,0,0,1,2-5.18c.68-1.6,1.61-3.78.64-4.91l2.62,3c1.12,1.3.17,3.24-.71,5.48s-1.79,4.72-1.47,6.53a2.68,2.68,0,0,0,1.1,1.86Z" transform="translate(-115 -150)"/><path class="cls-4" d="M132.52,285.76c-1.66-1-1.06-4.16.44-7.65s4-7.21,5.08-9.61c.5-1.13.65-2.05.13-2.64l2.62,3c1.13,1.31-.72,3.89-2.43,7.09s-3.4,6.92-3.39,9.44a3.28,3.28,0,0,0,.67,2.19A10.2,10.2,0,0,1,132.52,285.76Z" transform="translate(-115 -150)"/></g><g id="_38" data-name="38"><path class="cls-5" d="M204.36,206.32a22.89,22.89,0,0,1-5.07,11.48h0c-4.23,5.24-10,8.3-13.25,7.89-3.33-.08-14.46-11.51-13-23.29A22.89,22.89,0,0,1,177.48,191a14.77,14.77,0,0,1,13.64-5.9C199.77,186.22,205.84,194.54,204.36,206.32Z" transform="translate(-115 -150)"/><path class="cls-5" d="M186,225.69s-3.1,2.74-3.46,5.63c1.76,2.46,6.46.81,6.46.81S188.49,226.91,186,225.69Z" transform="translate(-115 -150)"/><path class="cls-6" d="M185.84,226.52a8.22,8.22,0,0,1-1.7-.39.38.38,0,0,1-.24-.49.39.39,0,0,1,.49-.24,7.67,7.67,0,0,0,3.65.33.39.39,0,0,1,.12.77A8.58,8.58,0,0,1,185.84,226.52Z" transform="translate(-115 -150)"/><path class="cls-6" d="M185.93,227.83a7.23,7.23,0,0,1-1.65-.4.39.39,0,0,1,.27-.73,6.51,6.51,0,0,0,3.83.23.39.39,0,0,1,.47.28.38.38,0,0,1-.28.47A7.33,7.33,0,0,1,185.93,227.83Z" transform="translate(-115 -150)"/><path class="cls-7" d="M204.36,206.32a22.89,22.89,0,0,1-5.07,11.48h0a15.79,15.79,0,0,1-8.71,1.41c-9.56-1.2-16.22-11-14.85-21.87a22.06,22.06,0,0,1,1.75-6.31,14.77,14.77,0,0,1,13.64-5.9C199.77,186.22,205.84,194.54,204.36,206.32Z" transform="translate(-115 -150)"/><path class="cls-8" d="M184.88,197.79c2.5,8.47,17.05,13.42,17.41,1,.22-7.25-8-12.8-14.42-8.86A6.44,6.44,0,0,0,184.88,197.79Z" transform="translate(-115 -150)"/><path class="cls-9" d="M155.06,206.88a23,23,0,0,1,4.6,11.67h0c.75,6.68-1.12,12.94-3.7,15-2.38,2.31-18.34,2.19-25.69-7.14a22.91,22.91,0,0,1-5-11.13,14.75,14.75,0,0,1,5.39-13.85C137.53,196,147.71,197.55,155.06,206.88Z" transform="translate(-115 -150)"/><path class="cls-9" d="M156,233.53s-.23,4.12,1.57,6.41c3,.48,5.11-4,5.11-4S158.56,232.64,156,233.53Z" transform="translate(-115 -150)"/><path class="cls-6" d="M156.42,234.25a8.43,8.43,0,0,1-1.48.94.4.4,0,0,1-.52-.18.38.38,0,0,1,.18-.51,7.76,7.76,0,0,0,2.81-2.37.38.38,0,0,1,.53-.09.39.39,0,0,1,.09.54A8.5,8.5,0,0,1,156.42,234.25Z" transform="translate(-115 -150)"/><path class="cls-6" d="M157.41,235.11A6.86,6.86,0,0,1,156,236a.37.37,0,0,1-.51-.19.38.38,0,0,1,.18-.51,6.51,6.51,0,0,0,2.86-2.56.38.38,0,1,1,.66.39A7.23,7.23,0,0,1,157.41,235.11Z" transform="translate(-115 -150)"/><path class="cls-3" d="M155.06,206.88a23,23,0,0,1,4.6,11.67h0a15.79,15.79,0,0,1-5.11,7.18c-7.58,6-19.22,3.82-26-4.79a22.47,22.47,0,0,1-3.26-5.69,14.75,14.75,0,0,1,5.39-13.85C137.53,196,147.71,197.55,155.06,206.88Z" transform="translate(-115 -150)"/><path class="cls-10" d="M135.3,214.74c7.78,4.18,21.53-2.69,13-11.66-5-5.25-14.75-3.28-16.44,4A6.42,6.42,0,0,0,135.3,214.74Z" transform="translate(-115 -150)"/><path class="cls-11" d="M178.42,197.23a22.91,22.91,0,0,1-.47,12.54h0c-2,6.43-6.22,11.4-9.4,12.23-3.12,1.15-17.68-5.36-20.66-16.86a22.92,22.92,0,0,1-.1-12.19,14.76,14.76,0,0,1,10.5-10.52C166.72,180.24,175.44,185.73,178.42,197.23Z" transform="translate(-115 -150)"/><path class="cls-11" d="M168.55,222s-1.86,3.68-1.13,6.5c2.55,1.64,6.3-1.63,6.3-1.63S171.28,222.23,168.55,222Z" transform="translate(-115 -150)"/><path class="cls-6" d="M168.68,222.84a8.52,8.52,0,0,1-1.74.27.39.39,0,1,1,0-.77,7.64,7.64,0,0,0,3.52-1.05.4.4,0,0,1,.53.14.39.39,0,0,1-.14.53A8.33,8.33,0,0,1,168.68,222.84Z" transform="translate(-115 -150)"/><path class="cls-6" d="M169.24,224a7.31,7.31,0,0,1-1.68.23.39.39,0,0,1-.39-.38.37.37,0,0,1,.38-.39,6.5,6.5,0,0,0,3.64-1.21.39.39,0,0,1,.45.63A7.53,7.53,0,0,1,169.24,224Z" transform="translate(-115 -150)"/><path class="cls-4" d="M178.42,197.23a22.91,22.91,0,0,1-.47,12.54h0a15.78,15.78,0,0,1-7.57,4.52c-9.33,2.42-19.13-4.21-21.88-14.83a22.16,22.16,0,0,1-.71-6.51,14.76,14.76,0,0,1,10.5-10.52C166.72,180.24,175.44,185.73,178.42,197.23Z" transform="translate(-115 -150)"/><path class="cls-12" d="M157.17,196.49c5.45,7,20.8,6.18,16.56-5.47-2.48-6.81-12.19-8.93-16.68-2.9A6.43,6.43,0,0,0,157.17,196.49Z" transform="translate(-115 -150)"/><path class="cls-13" d="M184.51,267.86c-6.35-10.13-19.25-26-27.32-34.44l.56-.53c8.09,8.48,21,24.39,27.41,34.56Z" transform="translate(-115 -150)"/><path class="cls-13" d="M168.62,223.54a6.87,6.87,0,0,1-.78.08c4.57,14.41,10.32,32.46,14.42,44.87l.73-.24C178.91,255.89,173.18,237.92,168.62,223.54Z" transform="translate(-115 -150)"/><path class="cls-13" d="M181.69,266.29l-.75.16c-2.79-13.64.83-28.4,3.45-41l.57.43C182.36,238.4,178.94,252.81,181.69,266.29Z" transform="translate(-115 -150)"/></g><g id="_39" data-name="39"><path class="cls-14" d="M305,237.28l.32-.52c.23-.37.53-.87.83-1.43.62-1.1,1.43-2.7,2.42-4.74l.24-.52c.83-1.71,1.68-3.47,2.53-5.06a37.82,37.82,0,0,1,2.32-3.86l.13-.18.19.12a11.15,11.15,0,0,1,.93.65l.54.41.48.33.22.15-.16.2c-.46.61-1.4,1.88-2.51,3.48-.69,1-1.45,2.13-2.17,3.21L310,231.43c-1.18,1.76-2.31,3.31-3.15,4.38-.4.5-.78,1-1.08,1.3l-.4.46Z" transform="translate(-115 -150)"/><path class="cls-14" d="M300.42,238c-.06-.14-5.93-13.55-7.44-17.92-.2-.58-.38-1.11-.52-1.59l-.06-.21.2-.09c.66-.28,1.41-.61,2.11-1l.24-.12.1.24c.2.51.42,1.11.65,1.79,1.51,4.38,5.15,18.56,5.18,18.7Z" transform="translate(-115 -150)"/><path class="cls-14" d="M300.35,241.55c-.16,0-16.15-.9-21.17-1.56l-1.38-.19-.21,0v-.22a3.91,3.91,0,0,1,0-.51c.05-.39.13-.79.2-1.17l.12-.69,0-.22.23,0c.4,0,.84.09,1.32.16,5,.65,20.7,3.89,20.86,3.93Z" transform="translate(-115 -150)"/><path class="cls-14" d="M291.72,261.07c-.34-.19-.7-.39-1-.6l-1.14-.73.1-.2c.24-.5.52-1,.84-1.62,2.11-3.83,9.79-15.32,9.86-15.43l.43.23c-.06.13-5.66,12.76-7.76,16.59-.35.64-.67,1.19-1,1.67l-.13.2Z" transform="translate(-115 -150)"/><path class="cls-14" d="M308.59,262.78l-.25-.57c-1.82-4.2-6.46-17.88-6.5-18l.44-.19c.07.13,6.89,12.87,8.7,17.06l.25.57.1.24-.24.09a18.28,18.28,0,0,0-2.17.94l-.22.11Z" transform="translate(-115 -150)"/><path class="cls-14" d="M322.79,242.89h-.54c-4.71-.11-19.52-1.63-19.67-1.65v-.48c.15,0,15-.86,19.73-.76l.78,0h.28l-.05.28a19.76,19.76,0,0,0-.29,2.35l0,.23Z" transform="translate(-115 -150)"/><path class="cls-15" d="M298.54,238.87c-.1-.07-10.75-6.94-14.32-9.67l-.16-.12.09-.18.2-.41c.12-.25.23-.48.34-.69l.13-.24c.15-.27.29-.55.44-.83l.13-.26.36.27c3.31,2.59,13,11.66,13.09,11.75Z" transform="translate(-115 -150)"/><path class="cls-15" d="M283.72,252.81c-.15-.3-.31-.63-.51-1a7.12,7.12,0,0,0-.64-1l-.18-.23.25-.14c.29-.16.62-.34,1-.51,3.18-1.61,13.72-5.6,13.82-5.64l.22.43c-.09.06-9.56,6.17-12.74,7.78l-.87.42-.21.1Z" transform="translate(-115 -150)"/><path class="cls-15" d="M303.93,263.77c-.44,0-.89,0-1.33,0l-1,0h-.21l0-.2q-.08-.6-.15-1.32c-.32-3.63-.17-15.18-.17-15.29l.48-.05c0,.12,2.24,11.45,2.56,15.08.06.62.09,1.16.1,1.63v.25Z" transform="translate(-115 -150)"/><path class="cls-15" d="M316.59,251.33l-.52-.2c-3.38-1.34-13.58-6.67-13.68-6.73l.18-.45c.11,0,11.18,3.16,14.56,4.5l1,.42.25.11-.14.24-.31.55q-.14.27-.3.54l-.16.27-.08.13-.05,0-.15.17-.13.14a.23.23,0,0,0-.05.07l0,0,0,0-.08.06-.15.13Z" transform="translate(-115 -150)"/><path class="cls-15" d="M304.36,240.22c.09-.05,9.19-5.65,12.24-7.09l.75-.34.2-.09.11.19c.36.63.78,1.35,1.2,2l.14.23-.23.12c-.3.15-.61.31-.94.46-3.05,1.44-13.16,4.89-13.26,4.93Z" transform="translate(-115 -150)"/><path class="cls-15" d="M302.14,237.49c0-.14-1.5-13.86-1.59-18.22a26.54,26.54,0,0,1,.07-3l0-.2.2,0,.42,0,.55,0a10.36,10.36,0,0,0,1.12-.11l.24,0,0,.25a25,25,0,0,1,.22,3.16c.09,4.36-.8,18.13-.81,18.27Z" transform="translate(-115 -150)"/><polygon class="cls-15" points="208.1 77.23 205.8 78.68 206.92 76.2 204.83 74.46 207.53 74.76 208.54 72.23 209.1 74.9 211.81 75.08 209.45 76.42 210.12 79.06 208.1 77.23"/><polygon class="cls-15" points="206.27 109.56 203.97 111.01 205.09 108.53 203 106.79 205.7 107.09 206.71 104.56 207.26 107.22 209.98 107.41 207.62 108.75 208.28 111.39 206.27 109.56"/><polygon class="cls-15" points="158.65 81.66 156.35 83.1 157.47 80.63 155.38 78.89 158.08 79.18 159.09 76.66 159.65 79.32 162.36 79.5 160 80.85 160.66 83.48 158.65 81.66"/><polygon class="cls-15" points="214.06 87.25 212.15 88.46 213.08 86.39 211.34 84.94 213.59 85.19 214.43 83.09 214.89 85.31 217.15 85.45 215.19 86.58 215.74 88.78 214.06 87.25"/><polygon class="cls-14" points="179.8 123.05 177.5 124.5 178.61 122.02 176.53 120.28 179.23 120.57 180.24 118.05 180.79 120.71 183.5 120.89 181.14 122.24 181.81 124.88 179.8 123.05"/><polygon class="cls-14" points="162.9 99.04 161.33 100.03 162.09 98.33 160.66 97.14 162.51 97.35 163.2 95.62 163.58 97.44 165.43 97.56 163.82 98.48 164.28 100.29 162.9 99.04"/><polygon class="cls-14" points="195.81 65.14 193.5 66.59 194.62 64.11 192.53 62.37 195.24 62.67 196.25 60.14 196.8 62.8 199.51 62.98 197.15 64.33 197.82 66.97 195.81 65.14"/><path class="cls-4" d="M270.58,193.23l.61-.57c.43-.39,1-.94,1.59-1.55,1.2-1.22,2.83-3,4.83-5.31l.51-.58c1.68-1.93,3.42-3.92,5.09-5.69a46.59,46.59,0,0,1,4.86-4.56,20.26,20.26,0,0,1,1.72-1.24l.23-.15.17.21a23.09,23.09,0,0,0,1.82,2.54l.18.22-.25.19-.33.25c-.36.28-.77.59-1.21.95-.71.54-2.59,2-4.95,4-1.26,1.06-2.64,2.25-4,3.4l-2.35,2c-2.17,1.86-4.19,3.49-5.67,4.57-.69.51-1.35,1-1.86,1.3l-.69.46Z" transform="translate(-115 -150)"/><path class="cls-4" d="M264.38,192.49c0-.2-2.89-19.73-3.29-26-.06-1-.1-1.92-.11-2.7v-.28h.29l1,0a14.67,14.67,0,0,0,2.08-.13l.27,0,0,.28c.09.76.16,1.64.22,2.6.41,6.23.07,26,.07,26.16Z" transform="translate(-115 -150)"/><path class="cls-4" d="M263,197c-.21-.07-20.67-6.93-27-9.57-1.66-.7-2.95-1.29-4-1.82l-.19-.1.06-.21a16.11,16.11,0,0,0,.49-2.85l0-.33.32.09a44,44,0,0,1,4.71,1.74c6.3,2.65,25.52,12.45,25.72,12.55Z" transform="translate(-115 -150)"/><path class="cls-4" d="M245.08,219.06c-.26-.31-.53-.6-.8-.89l-.66-.74-.79-.92.16-.18c.4-.43.85-.92,1.35-1.44,4.11-4.22,18.19-16.43,18.33-16.55l.39.38c-.12.14-11.9,14.57-16,18.8-.56.58-1.08,1.09-1.58,1.56l-.2.2Z" transform="translate(-115 -150)"/><path class="cls-4" d="M266.4,229c-.12-.66-.24-1.4-.36-2.21-.87-6.1-2-25.55-2-25.74l.54-.08c0,.19,4.36,19.19,5.22,25.29.09.59.16,1.17.23,1.71l0,.22-.52.17-1,.34-1.75.52-.29.08Z" transform="translate(-115 -150)"/><path class="cls-4" d="M293.39,207.24c-.72-.18-1.53-.4-2.41-.67-6.08-1.82-24.8-9.08-25-9.15l.16-.52c.2,0,19.83,4.24,25.91,6.06.8.24,1.52.47,2.16.68l.22.08,0,.23c-.21,1.15-.43,2.17-.68,3.1l-.07.26Z" transform="translate(-115 -150)"/><path class="cls-7" d="M261.61,192.92c-.12-.14-12-13.48-15.42-18-.66-.88-1.2-1.65-1.64-2.33l-.08-.13.07-.14c.44-.94,1-1.91,1.51-2.88l.18-.3.25.24a30,30,0,0,1,2.73,3.29c3.38,4.54,12.74,19.79,12.84,19.94Z" transform="translate(-115 -150)"/><path class="cls-7" d="M237.8,205.77l-.17-.39c-.36-.89-.68-1.8-1-2.65l-.1-.28.3-.08,1.38-.3c4.7-1,19.82-2.39,20-2.41l.1.53c-.14.05-14.63,4.62-19.33,5.57l-.87.17-.21,0Z" transform="translate(-115 -150)"/><path class="cls-7" d="M259.58,227.46c-1-.57-2.08-1.07-2.89-1.44l-.18-.08,0-.2c.07-.49.15-1,.25-1.56.87-4.84,5.18-19.79,5.23-19.94l.53.09c0,.16-1.18,15.68-2.05,20.52-.17.94-.34,1.76-.52,2.44l-.09.34Z" transform="translate(-115 -150)"/><path class="cls-7" d="M281.41,216.1c-.43-.29-.89-.63-1.39-1-3.91-2.95-15.27-13.52-15.39-13.63L265,201c.13.08,13.42,8.1,17.33,11.05.73.55,1.35,1,1.86,1.49l.23.2-.23.21c-.89.79-1.64,1.45-2.42,2.09l-.16.13Z" transform="translate(-115 -150)"/><path class="cls-7" d="M268.67,196.83c.14,0,14-4.07,18.44-4.85.86-.15,1.59-.25,2.24-.31l.24,0,.05.24c.17.89.37,1.94.6,3l.06.26-.25.06a22.87,22.87,0,0,1-2.29.49c-4.48.78-18.85,1.67-19,1.68Z" transform="translate(-115 -150)"/><path class="cls-7" d="M266.79,192.45c0-.19,3-18.55,4.44-24.26a32.39,32.39,0,0,1,1.28-4.17l.08-.21.23.05a19.35,19.35,0,0,1,2,.63l.71.25.21.07,0,.22a33.8,33.8,0,0,1-.82,4.08c-1.44,5.71-7.51,23.29-7.57,23.47Z" transform="translate(-115 -150)"/><polygon class="cls-7" points="182.68 36.51 179.31 37.53 181.56 34.82 179.55 31.93 182.82 33.23 184.94 30.42 184.72 33.93 188.05 35.09 184.64 35.96 184.57 39.48 182.68 36.51"/><polygon class="cls-7" points="168.77 77.89 165.4 78.91 167.64 76.2 165.63 73.31 168.9 74.61 171.03 71.8 170.81 75.31 174.13 76.47 170.72 77.34 170.65 80.86 168.77 77.89"/><polygon class="cls-7" points="116.8 24.62 113.44 25.64 115.68 22.93 113.67 20.04 116.94 21.34 119.06 18.53 118.84 22.05 122.17 23.2 118.76 24.07 118.69 27.59 116.8 24.62"/><polygon class="cls-7" points="186.86 51.67 184.07 52.51 185.93 50.27 184.27 47.88 186.97 48.95 188.73 46.63 188.55 49.54 191.29 50.49 188.48 51.21 188.42 54.12 186.86 51.67"/><polygon class="cls-4" points="129.53 85.99 126.16 87.01 128.41 84.29 126.4 81.41 129.67 82.7 131.79 79.9 131.57 83.41 134.9 84.56 131.49 85.44 131.42 88.96 129.53 85.99"/><polygon class="cls-4" points="116.13 48.74 113.87 49.42 115.37 47.6 114.03 45.67 116.22 46.53 117.64 44.66 117.5 47.01 119.72 47.78 117.44 48.37 117.39 50.73 116.13 48.74"/><polygon class="cls-4" points="171 16.4 167.64 17.42 169.88 14.71 167.87 11.82 171.14 13.12 173.27 10.31 173.04 13.82 176.37 14.98 172.96 15.85 172.89 19.37 171 16.4"/></g><g id="_40" data-name="40"><path class="cls-16" d="M260.83,277c4.62-5.86,1.55-22.66-.71-31.2H233.71c-2.26,8.54-5.6,24.59-1,30.45,6.34,8,11.93,10.8,11.93,10.8v25.23S232,318,232,319.45a61.57,61.57,0,0,0,29.88,0c0-1.41-12.69-7.19-12.69-7.19s.15-24.52,0-25.23S254.48,285,260.83,277Z" transform="translate(-115 -150)"/><path class="cls-17" d="M236,245.78c-3,12.75-4.13,26.27-1.75,29.29,3.07,3.88,7.17,7.69,12.42,7.75,5.5.07,9.45-3.61,12.72-7.75,2.39-3,1.4-16.51-1.64-29.29Z" transform="translate(-115 -150)"/><path class="cls-18" d="M241.71,251.51h-6.62c-2.62,11.51-3.11,19.17-.65,23.42S241,283,246,283.43a10.4,10.4,0,0,0,1.58,0,11.22,11.22,0,0,0,1.28-.17,60.15,60.15,0,0,1-5.07-8.36C240.49,267.42,240.85,259.32,241.71,251.51Z" transform="translate(-115 -150)"/><path class="cls-19" d="M259.58,274.93c2-4.11,2-11.91-.65-23.42H241.71c-.86,7.81-1.22,15.91,2.11,23.4a60.15,60.15,0,0,0,5.07,8.36A15.88,15.88,0,0,0,259.58,274.93Z" transform="translate(-115 -150)"/><path class="cls-20" d="M237.76,280.27c-.14-.4,6.48,4.79,9.16,4.93.7,2-.14,28.19-.14,28.19l2.54,6.91s-10.44.84-14.38-1.83a73.49,73.49,0,0,1,11-5.5l-.28-26.5S238.6,282.66,237.76,280.27Z" transform="translate(-115 -150)"/><path class="cls-21" d="M259.18,251.86c0,.51-5.46.92-12.19.92s-12.19-.41-12.19-.92S240.26,251,247,251,259.18,251.36,259.18,251.86Z" transform="translate(-115 -150)"/><path class="cls-21" d="M239.87,261.19a.75.75,0,1,1-.75-.75A.74.74,0,0,1,239.87,261.19Z" transform="translate(-115 -150)"/><path class="cls-21" d="M244.57,267.39a1.13,1.13,0,0,1-2.26,0,1.13,1.13,0,0,1,2.26,0Z" transform="translate(-115 -150)"/><path class="cls-21" d="M248.52,260.81a2.07,2.07,0,1,1-2.07-2.06A2.07,2.07,0,0,1,248.52,260.81Z" transform="translate(-115 -150)"/><path class="cls-21" d="M253.59,263.63a.94.94,0,1,1-.94-.94A.94.94,0,0,1,253.59,263.63Z" transform="translate(-115 -150)"/><path class="cls-21" d="M254.53,256.87a1.32,1.32,0,1,1-1.31-1.32A1.31,1.31,0,0,1,254.53,256.87Z" transform="translate(-115 -150)"/><path class="cls-21" d="M252.46,271.53a1.88,1.88,0,1,1-1.88-1.88A1.88,1.88,0,0,1,252.46,271.53Z" transform="translate(-115 -150)"/><circle class="cls-21" cx="141.03" cy="121.34" r="1.5"/><path class="cls-13" d="M228,262.59v50.23H228c0,1.5-3.32,4.16-10.35,5.38a47.54,47.54,0,0,1-8.11.64,40.8,40.8,0,0,1-13-1.73c-3.9-1.34-5.41-3.15-5.41-4.29h0V262.59c0-6,7.56-17.5,9.9-24.6,1.92-5.82,2.1-20.84,2.1-26.08v-.25c0-1,0-1.58,0-1.58a.9.9,0,0,1-.48-.14A1.1,1.1,0,0,1,202,209v-5.9a1,1,0,0,1,1-1.07h.26v-2.72a1.51,1.51,0,0,1,1.43-1.58h9.65a1.51,1.51,0,0,1,1.43,1.58V202h.44a1,1,0,0,1,1,1.07V209a1.1,1.1,0,0,1-.49.93.92.92,0,0,1-.48.14H216s0,.58,0,1.58c0,5,.14,20.42,2.1,26.33C220.47,245.09,228,256.57,228,262.59Z" transform="translate(-115 -150)"/><g class="cls-22"><path class="cls-23" d="M222.27,309.33c-.05-1.81-1.08-44.4-1.08-48.67,0-2.35-2.23-7.36-4.21-11.79a75.71,75.71,0,0,1-3.27-8.08c-1.53-5.25-2.45-28.28-2.49-29.13l2.29.57c0,.21,1.23,22.87,2.68,27.83a72.52,72.52,0,0,0,3.15,7.76c2.18,4.89,4.43,9.94,4.43,12.84,0,4.24,1.07,48.16,1.08,48.61Z" transform="translate(-115 -150)"/></g><path class="cls-24" d="M228.18,301.43a47.55,47.55,0,0,1-37.16,0V262.67a47.55,47.55,0,0,0,37.16,0Z" transform="translate(-115 -150)"/><path class="cls-25" d="M216.7,209.94a.92.92,0,0,1-.48.14H216s0,.58,0,1.58H203c0-1,0-1.58,0-1.58a.9.9,0,0,1-.48-.14Z" transform="translate(-115 -150)"/><rect class="cls-26" x="96.79" y="52.04" width="2.44" height="8.18"/><path class="cls-27" d="M195.93,266.39c-.23,8.79.71,40.14.55,50.72-3.9-1.34-5.41-3.15-5.41-4.29h0V262.59c0-6,7.56-17.5,9.9-24.6,1.92-5.82,2.1-20.84,2.1-26.08v-.25c0-1,0-1.58,0-1.58a.9.9,0,0,1-.48-.14A1.1,1.1,0,0,1,202,209v-5.9a1,1,0,0,1,1-1.07h.26v-2.72a1.51,1.51,0,0,1,1.43-1.58h2.47c-.27,10.69-.26,38-1.19,39.38C204.83,238.85,196.22,255.78,195.93,266.39Z" transform="translate(-115 -150)"/><path class="cls-28" d="M228,262.59v50.23H228c0,1.5-3.32,4.16-10.35,5.38-.06-11.34.51-44.66.33-53.45-.21-10.55-6.67-26.26-6.67-26.26s-.84-29.17-.94-40.75h4a1.51,1.51,0,0,1,1.43,1.58V202h.44a1,1,0,0,1,1,1.07V209a1.1,1.1,0,0,1-.49.93.92.92,0,0,1-.48.14H216s0,.58,0,1.58c0,5,.14,20.42,2.1,26.33C220.47,245.09,228,256.57,228,262.59Z" transform="translate(-115 -150)"/><path class="cls-16" d="M295.67,277.76c4.63-5.86,1.56-22.65-.7-31.2H268.56c-2.26,8.55-5.61,24.59-1,30.45,6.34,8,11.93,10.81,11.93,10.81v25.23s-12.69,5.78-12.69,7.19a61.94,61.94,0,0,0,29.89,0c0-1.41-12.69-7.19-12.69-7.19s.14-24.53,0-25.23S289.33,285.8,295.67,277.76Z" transform="translate(-115 -150)"/><path class="cls-17" d="M270.8,246.56c-3,12.75-4.13,26.27-1.74,29.29,3.06,3.89,7.17,7.69,12.42,7.76,5.5.06,9.44-3.62,12.71-7.76,2.39-3,1.41-16.51-1.64-29.29Z" transform="translate(-115 -150)"/><path class="cls-18" d="M276.56,252.29h-6.62c-2.63,11.52-3.12,19.17-.65,23.42s6.59,8.05,11.59,8.5a9.24,9.24,0,0,0,1.58,0,10.76,10.76,0,0,0,1.27-.17,59.11,59.11,0,0,1-5.06-8.36C275.34,268.21,275.69,260.1,276.56,252.29Z" transform="translate(-115 -150)"/><path class="cls-19" d="M294.43,275.71c2-4.1,2-11.9-.65-23.42H276.56c-.87,7.81-1.22,15.92,2.11,23.4a59.11,59.11,0,0,0,5.06,8.36A15.87,15.87,0,0,0,294.43,275.71Z" transform="translate(-115 -150)"/><path class="cls-20" d="M272.6,281.05c-.14-.4,6.49,4.79,9.17,4.93.7,2-.14,28.19-.14,28.19l2.53,6.91s-10.43.85-14.38-1.83a74.49,74.49,0,0,1,11-5.5l-.28-26.5S273.45,283.45,272.6,281.05Z" transform="translate(-115 -150)"/><path class="cls-21" d="M294,252.65c0,.5-5.46.91-12.19.91s-12.2-.41-12.2-.91,5.46-.92,12.2-.92S294,252.14,294,252.65Z" transform="translate(-115 -150)"/><path class="cls-21" d="M274.72,262a.76.76,0,1,1-.75-.75A.76.76,0,0,1,274.72,262Z" transform="translate(-115 -150)"/><circle class="cls-21" cx="163.29" cy="118.18" r="1.13"/><path class="cls-21" d="M283.36,261.6a2.07,2.07,0,1,1-2.06-2.07A2.06,2.06,0,0,1,283.36,261.6Z" transform="translate(-115 -150)"/><circle class="cls-21" cx="172.5" cy="114.42" r="0.94"/><path class="cls-21" d="M289.38,257.65a1.32,1.32,0,1,1-1.32-1.31A1.32,1.32,0,0,1,289.38,257.65Z" transform="translate(-115 -150)"/><path class="cls-21" d="M287.31,272.31a1.88,1.88,0,1,1-1.88-1.88A1.88,1.88,0,0,1,287.31,272.31Z" transform="translate(-115 -150)"/><path class="cls-21" d="M292.39,272.12a1.51,1.51,0,1,1-3,0,1.51,1.51,0,0,1,3,0Z" transform="translate(-115 -150)"/></g><g id="_party" data-name=" party"><path class="cls-12" d="M193.56,334.57c.51,5-2.78,7.64-7.73,8.14l-2.31.23.72,7.14-5.07.51L177,329.18l6.92-.7C189.46,327.93,193.09,329.87,193.56,334.57Zm-5.22.52c-.23-2.28-1.6-3.24-4.11-3l-1.79.19.71,7,1.88-.19C187.32,338.88,188.61,337.78,188.34,335.09Z" transform="translate(-115 -150)"/><path class="cls-9" d="M206.63,343.32,205.55,348h-5.28l6.49-21.52h6.18L219.43,348H214l-1.11-4.63Zm3.14-13.2-2.27,9.51H212Z" transform="translate(-115 -150)"/><path class="cls-7" d="M234,341.69v8.23h-5.09V328.4h7c5.84,0,8.85,2.08,8.85,6.55,0,2.83-1.34,4.54-4.13,5.81l5.46,9.16h-5.74L236,341.69Zm2.15-3.51c2.23,0,3.41-1,3.41-3.23,0-2.08-1.21-3-3.72-3H234v6.21Z" transform="translate(-115 -150)"/><path class="cls-29" d="M262.81,333.3v17.61h-5.09V333.3h-5.56v-3.91h16.46l-.5,3.91Z" transform="translate(-115 -150)"/><path class="cls-12" d="M282.63,351.1l-5.06-.51.81-8-5.5-14.1,5.53.56,3,9.83,4.91-9,5.34.55-8.21,12.68Z" transform="translate(-115 -150)"/></g></g></g></svg>