<svg id="Layer_1" data-name="Layer 1" xmlns="http://www.w3.org/2000/svg" viewBox="0 0 426.37 319.19"><defs><style>.cls-1{fill:#ddddef;}.cls-2{fill:#fff;}.cls-3{fill:#434c96;}.cls-4{fill:#bfc0e1;}.cls-5{fill:#2e2865;}.cls-6{fill:none;stroke:#2e2865;stroke-linecap:round;stroke-linejoin:round;stroke-width:0;}.cls-7{fill:#f8dad3;}.cls-8{fill:#7887c3;}.cls-9{fill:#e5eef9;}.cls-10{fill:#dca99d;}.cls-11{fill:#c2ddda;}.cls-12{fill:#dd9168;}.cls-13{fill:#995b35;}</style></defs><title>doctors</title><path class="cls-1" d="M455.69,550.79s69.42-86,52.69-146.16C491.73,344.7,147.66,251.78,99.12,309s40.25,241.75,40.25,241.75Z" transform="translate(-84.62 -240.03)"/><path class="cls-2" d="M224.54,346.64a5.76,5.76,0,0,0-5.25,5.74V484.12a5.75,5.75,0,0,0,4.75,5.67l60.13,10.71a5.77,5.77,0,0,0,6.77-5.67V347.06a5.76,5.76,0,0,0-6.27-5.74Zm50.63,82.18c-2.47,0-4.48-3.53-4.48-7.88s2-7.87,4.48-7.87,4.49,3.52,4.49,7.87S277.65,428.82,275.17,428.82Z" transform="translate(-84.62 -240.03)"/><polygon class="cls-2" points="293.63 177.83 246.63 142.93 246.63 161.03 210.12 161.03 210.12 194.4 246.63 194.4 246.63 212.5 293.63 177.83"/><path class="cls-2" d="M270.69,420.94c0,4.35,2,7.88,4.48,7.88s4.49-3.53,4.49-7.88-2-7.87-4.49-7.87S270.69,416.59,270.69,420.94Z" transform="translate(-84.62 -240.03)"/><path class="cls-2" d="M327.16,395.94v-45a4.49,4.49,0,0,0-4.48-4.49H294.73v9h23.46v40.56Z" transform="translate(-84.62 -240.03)"/><path class="cls-2" d="M294.73,486.51v9h27.95a4.49,4.49,0,0,0,4.48-4.49v-51.7h-9v47.22Z" transform="translate(-84.62 -240.03)"/><path class="cls-3" d="M174.33,456.2s7.41,91.2,8.47,92.47h32.26V456.2Z" transform="translate(-84.62 -240.03)"/><path class="cls-3" d="M259,456.2H201s14,38.18,15.56,40.72,9.13,51.75,9.13,51.75H259s.06-41.48,0-44.14S262.31,465.91,259,456.2Z" transform="translate(-84.62 -240.03)"/><path class="cls-4" d="M217.2,322.67c-7.37.31-13.17,4.24-16.67,7S179.39,349,177.93,354s-3.35,108.65-1.42,111.81,22.36,10.5,31.37,11.05,48.17-6.75,51.26-9.61,10.41-102.77,8.79-108.9-26.6-25.87-31.58-31.64C234.13,324.17,220.4,322.54,217.2,322.67Z" transform="translate(-84.62 -240.03)"/><path class="cls-5" d="M202.37,344.36c-.07,1.42,1.56,7.91,2.27,8.72s6.35,1.2,7,.73,3.84-7.07,4-8.33-4.51-6.79-6.46-7.11S202.41,343.51,202.37,344.36Z" transform="translate(-84.62 -240.03)"/><path class="cls-5" d="M204.64,353.08S195.51,420,195,424.54s9.78,31.6,11.52,32.21,11.46-27,12.06-30-6.29-70.76-6.84-73.16C211.58,352.92,204.73,352.45,204.64,353.08Z" transform="translate(-84.62 -240.03)"/><path class="cls-2" d="M193.1,527.58c-.95,2.73-25.24-4.56-25.72-7.89s8.11-80.31,8.13-86.34-.93-72.73,1.93-80.43c1.44-3.94,10.31-12.86,15.41-17.79,2.17-2.1,3.67-3.47,3.67-3.47-.84,3.24-4,46.83-3.19,76.49.25,9.48.42,24.86.5,41.48V450C194,485.21,193.74,525.74,193.1,527.58Z" transform="translate(-84.62 -240.03)"/><path class="cls-2" d="M181.31,376.16c-.19-3.06,10.38-15.52,10.38-15.52s-9.39,1.48-9.41-.56c0-1.79,8.55-20.55,10.57-24.95,2.17-2.1,5.21-4.51,5.21-4.51-.83,3.24-5.53,47.87-4.73,77.53.25,9.48.42,24.86.5,41.48C193.41,440.18,181.51,379.18,181.31,376.16Z" transform="translate(-84.62 -240.03)"/><path class="cls-5" d="M181.5,375.26c3.07-5.12,10.82-14.9,10.78-14.86s-9,.35-9.62-.38c-.45-.51,7.57-18.43,10-23.28a.09.09,0,1,0-.16-.1c-4.38,6.43-12,23.71-10.43,24.22s6.33.48,8.5.48c-3.8,3.9-9.86,13.42-10.08,14.1S184.11,399,186.15,410c2.21,11.86,4,25.4,6.79,37.14a.18.18,0,0,0,.35-.08C191.88,435.28,183.85,388.3,181.5,375.26Z" transform="translate(-84.62 -240.03)"/><path class="cls-2" d="M271.93,519.94c-19.31,15-45.17,11.2-46.08,9.11-.53-1.23-2-39.51-2.53-77.23v-.5c-.33-25.67-.21-51,1-64.2a315.43,315.43,0,0,1,11.79-60.4,10.48,10.48,0,0,1,2.5,1.75h0c7.39,5.94,28.13,25,27.91,28.6-.27,4.23-1.29,59.72.36,83.86S274.64,517.84,271.93,519.94Z" transform="translate(-84.62 -240.03)"/><path class="cls-5" d="M261.5,472.83c-.09-.33-.9-.39-1.06-.36-9,1.6-17.84,3.55-27,4.29-.09,0-.1.14,0,.14,9.15.13,18.29-1.5,27.18-3.6h0q.84,3,1.43,6.06c-8.3,2.24-16.43,3-25,3.61a.06.06,0,0,0,0,.12c8.29.86,17.17-.66,25.1-3.08a65.17,65.17,0,0,1,1.14,12.25c0,2.24.47,7.45-1.1,9.27-1.92,2.21-6.41,3.25-9.13,3.77a27.38,27.38,0,0,1-10.52,0c-2.09-.42-3.71-.76-4.94-3.05-.74-1.36-3.25-17.67-3.81-24.08,0-.18-.29-.2-.29,0,.1,7.43,1.23,19.2,3.13,24.33s10.58,4.56,14.86,4c3.48-.46,8.08-1.17,11-3.2,1.91-1.33,1.81-2.73,1.91-5.1A77.58,77.58,0,0,0,261.5,472.83Z" transform="translate(-84.62 -240.03)"/><path class="cls-5" d="M251.87,391.51c-3.39-.29-17.44.51-21.05.9-.21,0-.16.35,0,.36,3.6.11,19.39-.74,20-.49s.35,3.15,0,3.32c-.82.41-16.37.54-20.1.62-.63,0-.66,1,0,1,7-.16,14-.44,20.95-.79a.5.5,0,0,0,.5-.48A21.13,21.13,0,0,0,251.87,391.51Z" transform="translate(-84.62 -240.03)"/><path class="cls-2" d="M233.65,357.6c-.16.37,9.93,10.13,10.48,11.55s-13.56,39.47-16.54,51-4.27,31.69-4.27,31.69v-.5c-.33-25.67-.21-51,1-64.2a391.62,391.62,0,0,1,10.9-61.49c.22,0,2,1.73,3.39,2.84h0c.2.79,6.93,25.78,7,26.6S233.8,357.23,233.65,357.6Z" transform="translate(-84.62 -240.03)"/><path class="cls-5" d="M238.92,329.25c-.06-.25-.22-.18-.18.06a227.18,227.18,0,0,0,6.32,25.76c-4,.67-11.6,2.23-11.74,2.4s3.05,4.3,4.75,6.06a61.16,61.16,0,0,0,5.84,5.77c-5.57,12.53-17.33,51.06-18.47,57.5a182,182,0,0,0-2.17,20.3c0,.09.12.09.13,0,.88-7.14,1.66-14.31,3.16-21.36,1.35-6.35,13.83-43.67,18.24-56.25.12-.34-9.24-10.09-10.92-11.75,3.81-.59,12.16-1.89,12.06-2.24C243.46,346.8,241.11,338,238.92,329.25Z" transform="translate(-84.62 -240.03)"/><path class="cls-2" d="M249.57,427.2c-.07,1.74-.36,2.94-.64,3.08-.89.49-4.67,2.3-9.77,4.36-.91.37-1.87.75-2.87,1.13-2.79,1.06-12.95,6.27-24.35,11.75-15.24,7.32-32.67,15.14-37.72,14.29-8.79-1.5-21.11-12.08-22-18.15s17.55-78.22,19.89-83.13,5-9.06,7.53-11.55l-3.82,79.39a4.66,4.66,0,0,1,.81-.34c2.85-1,12.28-3.63,23.11-6.46,18.22-4.77,40.39-10.2,41.83-9.75a12.87,12.87,0,0,1,1.47.59h0C248.67,415.23,249.77,422.86,249.57,427.2Z" transform="translate(-84.62 -240.03)"/><path class="cls-6" d="M173.62,394.62a0,0,0,0,0,0-.05" transform="translate(-84.62 -240.03)"/><path class="cls-4" d="M239.16,434.64c-.91.37-1.87.75-2.87,1.13-2.79,1.06-12.95,6.27-24.35,11.75-2.58-1.52-5.15-3-7.73-4.54-6.23-3.63-12.62-7.06-18.71-10.89a16.47,16.47,0,0,1-1.41-1l-1.07.06c-2,.06-6.17-.09-6.42-2.56a.55.55,0,0,1,0-.17.25.25,0,0,1,0-.13,1.18,1.18,0,0,1,0-.26c2.85-1,12.28-3.63,23.11-6.46a56.62,56.62,0,0,1,28.39,5.91A55,55,0,0,1,239.16,434.64Z" transform="translate(-84.62 -240.03)"/><path class="cls-5" d="M250.11,427.25c-.05.77-.14,1.57-.26,2.41.06.19-.23.48-.44.6-10.61,6.13-42.84,20.58-50.8,24.1-4.69,2.09-20.67,9.74-25.6,7.34-.09-.06-.12-.16,0-.14l.12,0c4.51.7,21.71-6.44,38.61-14.18,2.82-1.29,5.65-2.6,8.41-3.88a2.24,2.24,0,0,1,.27-.13c5.77-2.72,11.23-5.36,15.81-7.59l0,0,2.66-1.3c6.17-3,10.16-5,10.16-5,.26-3.84.2-14.05-7.86-17.24-12.18,3.25-25.94,6.16-38.22,9.35l-1.28.33q-9.65,2.53-19.31,5.16a23.27,23.27,0,0,0-5.67,2.18,15.25,15.25,0,0,0-3.11,2.29c-2.26,2.13-4.43,4.34-6.78,6.37a.15.15,0,0,1-.2-.21c2.56-3.11,5.24-6.63,8.64-9-.35-9.66-.54-19.36-.77-29a6.72,6.72,0,0,1-.89-2.34,23.41,23.41,0,0,1-.6-3.22c0-.19.25-.27.3-.07.24,1,.55,2,.89,3,.07.22.17.43.26.66-.11-4-.2-8.06-.33-12.1,0,0,0,0,.07,0,1.6,11,1.94,22.34,2,33.59,0,3,0,6,0,9a14.27,14.27,0,0,1,2.94-1.36c6.43-2.06,13.09-3.56,19.61-5.26,7.63-2,15.78-3.92,23.91-5.75.17,0,.36-.09.55-.12,5.12-1.15,10.22-2.29,15.14-3.41l2.86-.65a7.91,7.91,0,0,1,2.15.87C246.17,413.92,250.79,417.9,250.11,427.25Z" transform="translate(-84.62 -240.03)"/><path class="cls-7" d="M196.57,417.54a26.67,26.67,0,0,0-5.95,6.52,21.58,21.58,0,0,0-3,5.83,9.79,9.79,0,0,1-2.5-.23,4.71,4.71,0,0,1-3.71-3l-4.79,1.36c-2-.82.51-3.89.51-3.89-.06-1.24,2.19-2.76,2.19-2.76.28-1.26,3.19-2.4,3.19-2.4s.91-1.2,4.25-1.83C188.82,416.75,193.43,417.17,196.57,417.54Z" transform="translate(-84.62 -240.03)"/><path class="cls-2" d="M282,440.45C282,444.3,269.62,463,261.4,462c-13.5-1.71-70.65-29.67-73.39-30.3-.57-.14-.67-.79-.43-1.77a21.58,21.58,0,0,1,3-5.83,26.67,26.67,0,0,1,5.95-6.52,5.93,5.93,0,0,1,1.65-.83c3.65-1.12,37.69,4.83,51.93,7.57,3.69.71,6,1.21,6.2,1.29s.44-5,.7-12.57c.77-22.11,1.69-66,1.69-66,4.26,4.37,12.9,12.83,14.49,15.8S282,436.61,282,440.45Z" transform="translate(-84.62 -240.03)"/><path class="cls-5" d="M266,430.42a42.8,42.8,0,0,0-8.25-4.72c2-.49,5,.51,6.56.67.3,0,.34-.41.08-.51a16.62,16.62,0,0,0-5.41-1,3.52,3.52,0,0,0-1.67.34,208.47,208.47,0,0,0-.47-37.64c0-.22-.38-.17-.38,0,0,3.32,0,6.64,0,10-.34-1.39-.74-2.77-1.09-4.08,0-.09-.14-.06-.13,0,.59,3,.6,6.13,1.25,9.09,0,7.54.06,15.08,0,22.62-7.17-2.61-48.57-9.8-58.11-8.7a3.59,3.59,0,0,0-1.71.8c-.23.17-.2.4-.07.34a5,5,0,0,1,2.14-.71c10.14-.06,50.69,6.89,57.85,9.52a.38.38,0,0,0,.27.1,67.89,67.89,0,0,1,9.1,4.16C266.33,431,266.34,430.67,266,430.42Z" transform="translate(-84.62 -240.03)"/><path class="cls-5" d="M268.26,459.34a13.16,13.16,0,0,1-5.32,2.3c-2.83.48-10.54-2.54-15.24-4.29-7.2-2.67-14.16-5.92-21.11-9.2-6.27-3-12.56-5.89-18.92-8.67q-5-2.18-10-4.26c-2-.85-8.58-3.16-9.77-4-.37-.25-.13-1.05-.16-1.45,0-.15-.23-.21-.27-.05a7.78,7.78,0,0,0-.29,1.8.28.28,0,0,0,.2.28c15.61,6.52,30.87,13.72,46.24,20.79a167.16,167.16,0,0,0,20.44,8.12c2.74.84,6.07,2.13,9.07,1.8a7.75,7.75,0,0,0,5.4-3C268.64,459.36,268.43,459.22,268.26,459.34Z" transform="translate(-84.62 -240.03)"/><path class="cls-7" d="M268.32,423.77s.63,1.45.16,2.09a10,10,0,0,1-2.09,1.63s-8.43-1.53-10-1.92c-.15-.08-2.51-.58-6.2-1.29-.38-7.24-4.3-10.53-6.72-11.85,1.8,0,9.15.17,13.62.57a17,17,0,0,1,3.08.46c2.63.81,9.05,8,8.95,8.89A2.25,2.25,0,0,1,268.32,423.77Z" transform="translate(-84.62 -240.03)"/><path class="cls-5" d="M236.51,329.31c-1.51-8.78-15.83-9.14-22.54-8.71-8.54.55-15.58,2.77-17.68,11.64s-1.81,18.37-1.25,27.32a1.3,1.3,0,0,1-2.59.2c-.65-10.31-2.85-29.65,5.94-37.12s38.16-8.42,40.71,6.46c.29,1.65-2.31,1.85-2.59.21Z" transform="translate(-84.62 -240.03)"/><path class="cls-8" d="M188.17,365a6,6,0,1,0,5.49-6.42A6,6,0,0,0,188.17,365Z" transform="translate(-84.62 -240.03)"/><path class="cls-9" d="M190.54,364.84a3.6,3.6,0,1,0,3.31-3.87A3.6,3.6,0,0,0,190.54,364.84Z" transform="translate(-84.62 -240.03)"/><path class="cls-4" d="M234.31,358.5c-.5,25.82,1.93,31.51,4.62,33.81a16.6,16.6,0,0,0,6.81,3.21l.35-1.78-.17.89.17-.89a14.82,14.82,0,0,1-6-2.81c-2-1.66-4.48-6.83-4-32.39Z" transform="translate(-84.62 -240.03)"/><rect class="cls-8" x="244.31" y="391.55" width="3.86" height="6.28" rx="1.11" transform="translate(-284.04 288.07) rotate(-74.71)"/><path class="cls-4" d="M250.29,355.26c9.26,17.12,12.86,26.85,11.32,30.61a15.1,15.1,0,0,1-4,5.25l1.12,1.42a16.6,16.6,0,0,0,4.58-6c1.83-4.49-1.47-13.81-11.4-32.16Z" transform="translate(-84.62 -240.03)"/><rect class="cls-8" x="255.96" y="388.89" width="3.86" height="6.28" rx="1.11" transform="translate(59.32 607.2) rotate(-132.61)"/><path class="cls-8" d="M252.31,353.48a105.35,105.35,0,0,0-6.05-11.19,11,11,0,0,0-4.59-3.48c-.35.06-.95-3.06-1.38-5.62-.38-2.26-.78-4.9-1.48-5.49a1.8,1.8,0,0,0-2.45.47c-.45.8.15,3.4.61,5.64.53,2.55,1.11,5.67.75,5.75a11.9,11.9,0,0,0-2.79,4.91,87.24,87.24,0,0,0-1.3,13c.07,2.74,1,2.85,1.81,2.93,1.14.1,1.64-.78,1.77-3.86.2-4.88,0-12.95,3.17-13.7h0c3.23-.44,6.48,7.37,8.59,11.66,1.32,2.68,2,2.81,3,2.3C252.71,356.39,253.42,355.88,252.31,353.48Z" transform="translate(-84.62 -240.03)"/><path class="cls-4" d="M224.86,314.59c2.42,1,10.74,12.06,10.42,13.65s.73,21.68-17.63,29.49l-9-16.94-9,13.89s-5.19-11.07-5-13.84,2.32-16.52,13-23.37C215.7,312.33,219.82,312.45,224.86,314.59Z" transform="translate(-84.62 -240.03)"/><path class="cls-5" d="M235,328c-.94,11-5.7,25.28-17.13,29-3.15-5.39-6.34-10.66-9-16.31a.3.3,0,0,0-.47-.07c-.08,0-6.42,9.2-8.86,13.69a62.35,62.35,0,0,1-3.38-9.68c-1.39-4.52-.79-8,.61-12.44,0-.11-.14-.19-.19-.08-1.63,3.62-2.71,7.22-1.65,11.14A54.92,54.92,0,0,0,199.09,355a.28.28,0,0,0,.28.14.22.22,0,0,0,.24-.05c3.15-4.31,5.72-9,8.88-13.34,2.71,5.62,5.77,11,8.83,16,.15.24.67.11.72.09,11.88-3.75,17.42-18.29,17.11-29.82C235.15,327.94,235,328,235,328Z" transform="translate(-84.62 -240.03)"/><path class="cls-7" d="M198.63,301.79l1.35,26v0l.18,3.64s1.35,7.53,9.22,8.91,19.75-9.1,20.68-11.06c.48-1,.88-10.33,1.16-19.17.26-8.45.42-16.49.42-16.49l-3.69.92Z" transform="translate(-84.62 -240.03)"/><path class="cls-10" d="M198.63,301.79l1.35,26v0a50.86,50.86,0,0,0,23.78-10.37,49.17,49.17,0,0,0,7.46-7.31c.26-8.45.42-16.49.42-16.49l-3.69.92Z" transform="translate(-84.62 -240.03)"/><path class="cls-7" d="M236.52,257.35c5.44,12.26.64,42.94-8.68,53.36-6.39,7.14-20.28,9.35-30.64,5.15A19.87,19.87,0,0,1,186.32,306c-7-15.06-.65-51.18,6.89-56.86C206.54,239.12,229.88,242.37,236.52,257.35Z" transform="translate(-84.62 -240.03)"/><path class="cls-5" d="M212.19,285c0-.08.14.1.13.18-.21,1.91-.14,4.13,1.55,4.91,0,0,0,.12,0,.1C211.75,289.73,211.68,286.77,212.19,285Z" transform="translate(-84.62 -240.03)"/><path class="cls-5" d="M214.06,283.13c3.1,0,2.85,6.22,0,6.2S211.46,283.12,214.06,283.13Z" transform="translate(-84.62 -240.03)"/><path class="cls-5" d="M197.18,283.9c0-.07-.16.09-.16.17,0,1.92-.36,4.12-2.12,4.68-.06,0-.06.12,0,.11C197,288.65,197.47,285.73,197.18,283.9Z" transform="translate(-84.62 -240.03)"/><path class="cls-5" d="M195.54,281.83c-3.08-.37-3.57,5.82-.72,6.15S198.12,282.13,195.54,281.83Z" transform="translate(-84.62 -240.03)"/><path class="cls-10" d="M209.52,302.32c-.48.43-1,1-1.67,1.06a5.07,5.07,0,0,1-2-.57.07.07,0,0,0-.09.1,2.61,2.61,0,0,0,2.4,1.14,2.07,2.07,0,0,0,1.58-1.64C209.73,302.3,209.59,302.26,209.52,302.32Z" transform="translate(-84.62 -240.03)"/><path class="cls-5" d="M216.62,280.4a25.27,25.27,0,0,1-2.36-.95A4,4,0,0,1,212,278a1.31,1.31,0,0,1,.27-1.58,3.28,3.28,0,0,1,3.29-.2,4.77,4.77,0,0,1,2.67,2.18A1.4,1.4,0,0,1,216.62,280.4Z" transform="translate(-84.62 -240.03)"/><path class="cls-5" d="M193.27,278.61c.87-.11,1.65-.35,2.49-.54a4.09,4.09,0,0,0,2.44-1,1.31,1.31,0,0,0,0-1.6,3.25,3.25,0,0,0-3.21-.74,4.74,4.74,0,0,0-3,1.7A1.4,1.4,0,0,0,193.27,278.61Z" transform="translate(-84.62 -240.03)"/><path class="cls-2" d="M202.76,297.91s1.56,4,4.62,3.26c2.3-.53,1.19-5.2,1.19-5.2S205.57,298.2,202.76,297.91Z" transform="translate(-84.62 -240.03)"/><path class="cls-10" d="M208.74,296.15a6.5,6.5,0,0,1-4.48,2.73,8.11,8.11,0,0,1-2.36,0,2.89,2.89,0,0,1-.44-.07l-.42-.09a.47.47,0,0,1-.37-.44v0a1.25,1.25,0,0,1,0-.19v-.19c0-1.48.25-3.72.25-3.72-.55.25-3.35,1.38-3.28.61.65-6.38,1.36-13.48,3.35-19.69a.18.18,0,0,1,.35.06c-.38,6.16-1.83,12.21-2.31,18.38a12,12,0,0,1,3.13-.81c.2.07-.54,4.33-.49,5a.42.42,0,0,0,0,.07c2.47.42,4.37-.26,6.85-1.83C208.72,295.87,208.87,296,208.74,296.15Z" transform="translate(-84.62 -240.03)"/><path class="cls-5" d="M191.86,257.73c-6.54,10.39-7.49,27.18-8.84,22.42-4.44-15.68,3.42-24.76,3.42-24.76S192.65,256.48,191.86,257.73Z" transform="translate(-84.62 -240.03)"/><path class="cls-5" d="M234.53,290.15s-11.87-2.36-8.4-27.6a41.58,41.58,0,0,1-21.82,2.86c-13-1.62-20-7.12-24.06-16-1.34-2.91,5.69,1.19,8.77-.13,5.5-2.36,10.87-9.53,25.67-9.21s18.72,10.29,18.72,10.29,8,2.45,11.14,9.37S242.16,290.13,234.53,290.15Z" transform="translate(-84.62 -240.03)"/><path class="cls-7" d="M230.36,289.28s6-10.19,10.63-8.11.54,16.51-4.48,18.82a5.27,5.27,0,0,1-7.25-2.29Z" transform="translate(-84.62 -240.03)"/><path class="cls-10" d="M239.73,285.28c.08,0,.1.1,0,.14-3.5,1.73-5.16,5.23-6.23,8.81,1-1.42,2.39-2.26,4.28-1.12.09.06,0,.22-.09.2a3.27,3.27,0,0,0-3.47,1.4,15.5,15.5,0,0,0-1.48,3c-.15.34-.74.21-.65-.17a.29.29,0,0,0,0-.09C231.71,292.84,234.81,286.12,239.73,285.28Z" transform="translate(-84.62 -240.03)"/><path class="cls-2" d="M223.33,312.87c5.22-2.33,10.48-5,13.88-10a27.75,27.75,0,0,0,5-11.87,21.06,21.06,0,0,1-2,4.89,14.88,14.88,0,0,1-3.43,4.19s0,0,0,0A29.25,29.25,0,0,1,223.1,312C222.57,312.21,222.81,313.1,223.33,312.87Z" transform="translate(-84.62 -240.03)"/><path class="cls-2" d="M228.81,292.79c.93-1.16,3.82-7.15,6.42-9.39l0,0c.4-.4.82-.78,1.24-1.13a6.18,6.18,0,0,1,2.4-1.28,3.89,3.89,0,0,0-2.28-.2c-4,.76-6.69,8.74-8.15,11.76C228.35,292.74,228.65,293,228.81,292.79Z" transform="translate(-84.62 -240.03)"/><path class="cls-2" d="M229.68,291.44c.67-1.49-10.08,3.67-21.28,1.37-2.3-.48-8.69-3.05-12.24-3.05s-7.73,2.88-12.64,3.41c-1.68.18-.23,14.73,4.07,21.1,1.41,2.09,7.43,6.38,11.11,6.76,8.63.89,23.43-5.28,25.68-8.16C226.19,310.56,223.31,305.55,229.68,291.44Z" transform="translate(-84.62 -240.03)"/><path class="cls-4" d="M184.69,296.36a51,51,0,0,1,9.71-3.11c2.88-.57,5.49.49,8.22,1.46,7.33,2.6,14.7,2.31,22.08.21.09,0,.12.12,0,.16a29.29,29.29,0,0,1-18.48,1.53c-3.36-.78-6.71-2.59-10.19-2.37-3.79.24-7.49,2.05-11.24,2.7A.3.3,0,0,1,184.69,296.36Z" transform="translate(-84.62 -240.03)"/><path class="cls-4" d="M190.15,313.18c2.33,1.13,4.63,2.77,7,3.56,2.89.94,6.31,0,9.17-.68,5.42-1.27,10.61-3.5,15.9-5.33,0,0,.06.06,0,.08a70.23,70.23,0,0,1-18.3,6.42c-2.11.37-4.45.91-6.55.28-2.55-.76-5.08-2.66-7.34-4.18C190,313.29,190.08,313.15,190.15,313.18Z" transform="translate(-84.62 -240.03)"/><path class="cls-4" d="M186.54,301.26c5.51-1.63,10.63-1.22,16.22-.48a65.05,65.05,0,0,0,19.05-.35c.06,0,.09.09,0,.11a55.43,55.43,0,0,1-17,.88c-2.75-.29-5.48-.8-8.24-1a32,32,0,0,0-10,1.18C186.43,301.65,186.34,301.31,186.54,301.26Z" transform="translate(-84.62 -240.03)"/><path class="cls-4" d="M187.84,306.83A27.17,27.17,0,0,0,204,310.36c5.72-.53,11.22-2.68,16.69-4.57.07,0,.1.11,0,.13-11,4.63-22.07,7.76-33,1.24C187.48,307,187.62,306.71,187.84,306.83Z" transform="translate(-84.62 -240.03)"/><path class="cls-2" d="M368,341.2c6.15,5,13.93,14.83,15.81,17.36s11.24,59.42,12.84,63.07,23,33.42,21.92,35.24-11.77,13-16.93,12.59-24.06-34-27.71-38.23S368,341.2,368,341.2Z" transform="translate(-84.62 -240.03)"/><path class="cls-4" d="M343.87,327.23c-12.35-.42-31,22.46-33.54,32.16s12,47.22,10.92,58-5,21-2.45,25.36,28.83,12.63,38.83,11.87,18.59-14.56,20.91-17.59-1.06-29.73-.51-31.44,9.4-8.54,8-17.69-12.48-37.76-15.54-41.85S355.88,327.65,343.87,327.23Z" transform="translate(-84.62 -240.03)"/><path class="cls-5" d="M363.24,401.61c-4.51,1.53-8.95,4-13.66,4.79-5.65.93-11.26-1.53-16.19-4-.15-.07-.28.12-.14.21,4.41,2.92,9.22,5.63,14.69,5.36s10.88-3.37,15.56-5.69C363.86,402.11,363.64,401.48,363.24,401.61Z" transform="translate(-84.62 -240.03)"/><path class="cls-5" d="M372.46,403.44a30.62,30.62,0,0,0-13.36,2.36c-.2.08-.07.43.14.36a52.15,52.15,0,0,1,13.19-2A.35.35,0,0,0,372.46,403.44Z" transform="translate(-84.62 -240.03)"/><path class="cls-5" d="M320.24,424.24s28.86,9.89,39.24,8.91,19.71-8.27,19.71-8.27,7.93,31.18,9.76,42.31,5.94,63.34,5.87,65.19-13.88,17-37.12,16.18-57.54-12.44-59.67-15.1,11-71.26,14.34-83.7S320.24,424.24,320.24,424.24Z" transform="translate(-84.62 -240.03)"/><path class="cls-2" d="M347.74,552.28c.2,4.44-27.2-.43-36.45-3.71s-17.13-10-18-12.69,15.48-72.11,16.46-79.19,8.65-31.28,9.18-35.69-12.73-51.84-15.09-54.88c-2-2.53,15.07-23.24,23.6-30.89a13.73,13.73,0,0,1,3.85-2.78c.45-.15,1.06,1,1.82,3.09,3.82,10.75,10.94,46.75,14.15,65.26,1.52,8.71,1.88,33.39,1.79,60.36C348.88,502.65,347.62,549.59,347.74,552.28Z" transform="translate(-84.62 -240.03)"/><path class="cls-5" d="M332.57,457.32c-2.92,5-4.88,10.05-9.05,14.26a62.73,62.73,0,0,1-12.62,10.29c-.11.07,0,.26.09.22,5.41-1.37,9.76-5.56,13.54-9.46a38,38,0,0,0,8.6-15.06A.31.31,0,0,0,332.57,457.32Z" transform="translate(-84.62 -240.03)"/><path class="cls-5" d="M334.74,464.31c-3.55,9.27-10.06,15.29-18.26,20.6-.07,0,0,.15.06.11,8-4.56,16.14-11.25,18.54-20.61A.18.18,0,0,0,334.74,464.31Z" transform="translate(-84.62 -240.03)"/><path class="cls-2" d="M357.24,332.64c-1.46-.88,13.39,44.91,11.84,75.63s-2.47,142.7.65,145,24-12,27.67-17-4.72-73.83-8.28-84.79-6.87-20.75-7.75-23.74-3-20.88-2.47-21.85,7.5-7.5,8.66-15.95-17.1-44.91-18.34-47.29S358.2,333.23,357.24,332.64Z" transform="translate(-84.62 -240.03)"/><path class="cls-5" d="M383.48,434c-2.24-8.07-3.75-22.35-4.12-27.34h0c4.38-4.94,9.37-12.1,8.74-19.06-.35-3.82-2-7.73-3.4-11.34a29,29,0,0,0-2.57-8.86.09.09,0,0,0-.16.07,43.29,43.29,0,0,1,1.34,5.33,96,96,0,0,0-4.6-9.67.11.11,0,0,0-.19.1c2.93,6.82,6,13.73,7.89,20.91,2.19,8.12-2.48,15.86-7.73,21.79-.21.24,0,16.23,3.22,26.38,3,9.63,6.37,19.17,9.26,28.85.05.16.3.11.26-.06C389.34,451.9,386,443.06,383.48,434Z" transform="translate(-84.62 -240.03)"/><path class="cls-2" d="M349,461.16c-1.47-.36-2.51-34.47-4.23-41.33s-13.25-33.41-13.67-35.41,8.38-14.6,7.9-15-11.49,4.77-12.62,3.37c-1-1.24,1.56-31.42,2.54-37.69.11-.68,2.2-4.62,2.83-3.36,7.86,15.84,12.25,50.53,15.46,69C348.76,409.51,349.12,434.19,349,461.16Z" transform="translate(-84.62 -240.03)"/><path class="cls-5" d="M346.59,438.12c-.47-6-.23-12.22-1.6-18.15-2.05-8.85-13.47-34.57-13.41-34.71,1.31-3,6.49-13.23,7.43-15.48.12-.3.26-.61-.4-.39-1.94.66-10.5,3.93-11.58,3.42-.84-.4,1.06-35.94,3-39.61.11-.2-.25-.27-.35-.06C326.86,339,325,371,326.39,373.62a.54.54,0,0,0,.6.26,53.34,53.34,0,0,0,11.22-3.79c-1.59,2-7.91,14.78-7.83,15,4.33,11.62,10.86,23.21,13.67,35.76,1.45,6.52,1.38,13.39,2,20,.59,6.05,1.36,12.07,2.47,18.05,0,.2.33.12.3-.07C348,452,347.13,445.05,346.59,438.12Z" transform="translate(-84.62 -240.03)"/><path class="cls-2" d="M357.24,332.64c-2.18.39,6.92,39.88,7.93,47.86s2.66,81.31,2.66,81.31,3.05-43.26,3.87-45.64,4.18-35.67,4.05-37.15-10.28-12.36-10.45-12.92,8.55,1,8.94.49S358.28,332.46,357.24,332.64Z" transform="translate(-84.62 -240.03)"/><path class="cls-5" d="M376.5,378.75c0-.19-6.57-9-10.46-12.48,2.5.29,8.46,1,8.72.64.51-.71-9.56-22.62-16.17-32.5a0,0,0,0,0-.08,0c5.67,10.25,10.43,20.94,15.07,31.68a76.71,76.71,0,0,0-8-.28.2.2,0,0,0-.18.34c3.25,4.24,10.15,12.86,10.32,12.87-1.68,13.15-3.46,26.29-5.21,39.44s-3.16,26.67-2.21,39.85c0,.07.1.08.1,0a275.14,275.14,0,0,1,3.05-39.83C373.27,405.35,375.88,392.07,376.5,378.75Z" transform="translate(-84.62 -240.03)"/><path class="cls-2" d="M312.9,351.08c-3.89,5-10.57,12-14.2,26.2s-11.86,62.66-11.64,67.05,24.14,33.83,27.77,34.95c1.11.34,6-4.15,9.88-9,3.17-4,6-8.24,6.08-9.76.06-1.73-16.93-22.63-16.59-24.37s3.93-28.41,6.1-37.45C321.52,393.65,312.9,351.08,312.9,351.08Z" transform="translate(-84.62 -240.03)"/><path class="cls-5" d="M309.05,361.49c-.05-.06-.14,0-.09.09,7.74,9.23,9.23,20.81,10.82,32.32,0,.09.18.08.17,0C318.9,382.47,317.16,370.23,309.05,361.49Z" transform="translate(-84.62 -240.03)"/><path class="cls-5" d="M331.05,460c-3.84-6-8-11.8-12.31-17.49a41.63,41.63,0,0,0-3.32-4.44,5.2,5.2,0,0,0-1.1-1.43v0c1.24-9,3.16-17.94,4.64-26.92.68-1.58,1.3-3.18,2-4.74.05-.12-.14-.21-.21-.1-.48.82-.95,1.64-1.4,2.48.44-2.85.83-5.69,1.12-8.54,0-.1-.14-.12-.17,0a304.07,304.07,0,0,0-6.95,37.16,16.33,16.33,0,0,0-4.58-1.75,0,0,0,0,0,0,.09,20.12,20.12,0,0,1,3.77,1.74,5,5,0,0,1,.76.6v0c-2-.7-4.9-.57-6.81-.62a.09.09,0,0,0,0,.17c2,.53,5.38.45,7.11,1.59,2.06,1.36,3.77,4.61,5.27,6.6,4,5.25,7.75,10.63,11.59,16C330.66,460.67,331.31,460.36,331.05,460Z" transform="translate(-84.62 -240.03)"/><path class="cls-5" d="M314.71,478.86c-2.66-2.8-5.61-5.27-8.42-7.9-.05,0-.13,0-.08.07,2.63,2.81,5.08,5.76,7.87,8.42C314.48,479.83,315.1,479.26,314.71,478.86Z" transform="translate(-84.62 -240.03)"/><rect class="cls-11" x="368.55" y="407.89" width="52.97" height="68.95" rx="4.09" transform="translate(68.56 -339.19) rotate(17.7)"/><rect class="cls-2" x="393.1" y="406.04" width="25.1" height="7.61" rx="1.69" transform="translate(59.76 -344.25) rotate(17.76)"/><path class="cls-2" d="M414.52,404.59l-1.19,3.72-2.94-.94.54-1.71a1.7,1.7,0,0,0-1.1-2.15l-3.89-1.25a1.72,1.72,0,0,0-2.16,1.11l-.55,1.71-2.94-.94,1.19-3.73a2.47,2.47,0,0,1,3.12-1.6l8.32,2.66A2.49,2.49,0,0,1,414.52,404.59Z" transform="translate(-84.62 -240.03)"/><path class="cls-12" d="M426.47,448.82c-1.76-1.65-14.87-7.19-16.82-6.25-2.26,1.1,9.89,7.49,9.85,7.66s-11.27-7.4-13.27-5.77c-1.71,1.41,11.31,9.2,11.31,9.2S405.43,445.74,404,447c-1.68,1.46,10.08,9.92,9.93,10,0,0-8.26-6.34-10-5.51-1.49.71,5.47,6.89,7.49,9.43s9,1.4,11,.28S428.7,450.91,426.47,448.82Z" transform="translate(-84.62 -240.03)"/><path class="cls-5" d="M322.88,344c-.26-8.91,13.71-12.09,20.37-13,8.48-1.15,15.83-.36,19.64,7.91s5.41,17.65,6.63,26.53a1.3,1.3,0,0,0,2.58-.32c-1.41-10.23-3.07-29.62-13.17-35.2s-39.07-.7-38.63,14.39c.05,1.67,2.63,1.35,2.58-.31Z" transform="translate(-84.62 -240.03)"/><path class="cls-8" d="M377.34,369.48a6,6,0,1,1-6.66-5.21A6,6,0,0,1,377.34,369.48Z" transform="translate(-84.62 -240.03)"/><path class="cls-9" d="M375,369.77a3.6,3.6,0,1,1-4-3.14A3.6,3.6,0,0,1,375,369.77Z" transform="translate(-84.62 -240.03)"/><path class="cls-4" d="M330.82,372.22c5.6,25.21,4.34,31.26,2.16,34a16.52,16.52,0,0,1-6.05,4.5l-.69-1.68.35.84-.35-.84a14.73,14.73,0,0,0,5.31-3.94c1.58-2,3-7.58-2.5-32.54Z" transform="translate(-84.62 -240.03)"/><rect class="cls-8" x="324.35" y="406.91" width="3.86" height="6.28" rx="1.11" transform="translate(22.01 645.79) rotate(-116.71)"/><path class="cls-4" d="M314.51,372.2c-5.69,18.61-7.29,28.86-5,32.25a14.79,14.79,0,0,0,5,4.34l-.82,1.62a16.57,16.57,0,0,1-5.68-5c-2.68-4-1.29-13.83,4.81-33.79Z" transform="translate(-84.62 -240.03)"/><rect class="cls-8" x="312.41" y="406.61" width="3.86" height="6.28" rx="1.11" transform="translate(-283.59 226.4) rotate(-58.81)"/><path class="cls-8" d="M312.18,370.86a103.72,103.72,0,0,1,3.72-12.17,10.85,10.85,0,0,1,3.8-4.31c.36,0,.33-3.2.25-5.79-.08-2.29-.21-5,.36-5.67a1.79,1.79,0,0,1,2.49,0c.6.7.53,3.36.52,5.66,0,2.59,0,5.76.4,5.78a11.83,11.83,0,0,1,3.71,4.25A88.34,88.34,0,0,1,331.27,371c.48,2.7-.42,3-1.19,3.23-1.1.33-1.76-.44-2.5-3.43-1.17-4.74-2.56-12.7-5.82-12.8h0c-3.25.2-4.89,8.51-6.12,13.13-.76,2.89-1.39,3.15-2.5,2.85C312.36,373.79,311.57,373.43,312.18,370.86Z" transform="translate(-84.62 -240.03)"/><path class="cls-5" d="M348.06,248.94s-10.55-8.19-25.95,2c-17.54,11.6-12,30.63-16.64,41.51s-15.66,13.44-13.16,25.69c2.15,10.5,36,13.24,53,11,20.95-2.79,36-10.21,38.18-19.06s-10.41-14.25-11.31-21S372.17,248.1,348.06,248.94Z" transform="translate(-84.62 -240.03)"/><path class="cls-5" d="M313.14,260.58a54.92,54.92,0,0,0-6,17.43c-.65,4.15-.79,8.33-2.59,12.2a35.54,35.54,0,0,1-6.89,9.41c-3.43,3.6-7.37,7.53-6.69,13a9.84,9.84,0,0,0,8.55,8.52c.11,0,.14-.15,0-.18a10,10,0,0,1-7.61-7.34c-.94-4.11,1.13-7.56,3.77-10.47,3.21-3.54,6.68-6.63,9-10.87,2.49-4.49,2.68-9.23,3.39-14.2a66.32,66.32,0,0,1,5.05-17.44S313.15,260.57,313.14,260.58Z" transform="translate(-84.62 -240.03)"/><path class="cls-5" d="M384.6,302c-2.73-5.34-8.34-8.23-10.86-13.8-4.6-10.19-2-22.9-10-31.61-.07-.08-.17,0-.11.1,6.67,8.67,5.05,20,8.56,29.8a25.35,25.35,0,0,0,6.93,10c4.75,4.56,8.9,11.09,4.22,17.37-.14.19.17.38.32.2C386.62,310.54,386.65,306,384.6,302Z" transform="translate(-84.62 -240.03)"/><path class="cls-5" d="M318,254.71c-6.75,4.7-9.17,11.67-10.82,19.43-.91,4.29-1.64,8.62-2.92,12.83a54.46,54.46,0,0,1-6.38,12.88c-3.29,5.3-7,12.34-3.85,18.58,3.49,6.81,12.07,6.8,18.65,6.5.18,0,.19-.3,0-.29-8,.3-19.48-.79-19.33-11.5.11-7.6,5.81-13.12,9.1-19.49,6.53-12.69,3.63-29.09,15.67-38.76C318.22,254.81,318.1,254.64,318,254.71Z" transform="translate(-84.62 -240.03)"/><path class="cls-12" d="M355.17,335.23s1.73,24.45-1.39,25.44c-6,1.9-17.76-24.94-18.64-26.67a103.06,103.06,0,0,1-2.87-14.12l-.27-2c-.09-.67-.17-1.3-.23-1.94-.1-.85-.18-1.68-.26-2.52-.65-6.3-1.15-11.7-1.15-11.7l3,.88,21.11,7.07.44,16.17,0,1v.32l.11,4.88v0Z" transform="translate(-84.62 -240.03)"/><path class="cls-13" d="M355,326.84a16.83,16.83,0,0,1-8,1.42c-6.23-.35-10.87-3.93-14.72-8.38l-.27-2c-.09-.67-.17-1.3-.23-1.94-.1-.85-.18-1.68-.26-2.52-.65-6.3-1.15-11.7-1.15-11.7l3,.88,21.11,7.07.44,16.17Z" transform="translate(-84.62 -240.03)"/><path class="cls-5" d="M360.28,256.81s9.35,1.66,11.92,13.34c2.14,9.72-3.9,18.92-5.11,19.83C365,291.59,354.84,263,360.28,256.81Z" transform="translate(-84.62 -240.03)"/><path class="cls-12" d="M369.75,288.34c.6,28.67-15.42,30.58-20.28,31.5-5.52,1-27.14.66-30.7-27.8s9.59-37.79,22.41-38.72S369.15,259.67,369.75,288.34Z" transform="translate(-84.62 -240.03)"/><path class="cls-5" d="M343.71,290.32c0-.07-.14.11-.13.19.3,1.93.31,4.19-1.37,5,0,0,0,.13,0,.11C344.34,295.1,344.3,292.1,343.71,290.32Z" transform="translate(-84.62 -240.03)"/><path class="cls-5" d="M341.74,288.5c-3.15.14-2.64,6.42.27,6.29S344.38,288.39,341.74,288.5Z" transform="translate(-84.62 -240.03)"/><path class="cls-5" d="M358.5,289.17c0-.07.15.1.15.18-.1,1.95.11,4.2,1.87,4.88.05,0,0,.12,0,.11C358.35,294,358.09,291,358.5,289.17Z" transform="translate(-84.62 -240.03)"/><path class="cls-5" d="M360.28,287.17c3.15-.18,3.27,6.12.36,6.29S357.65,287.32,360.28,287.17Z" transform="translate(-84.62 -240.03)"/><path class="cls-13" d="M345,304.92c.44.48.87,1.14,1.58,1.24a5.33,5.33,0,0,0,2.12-.37.07.07,0,0,1,.08.1,2.63,2.63,0,0,1-2.53.92,2.08,2.08,0,0,1-1.44-1.81C344.76,304.88,344.91,304.85,345,304.92Z" transform="translate(-84.62 -240.03)"/><path class="cls-5" d="M361.39,282a18.54,18.54,0,0,1-1.94-.4,3.2,3.2,0,0,1-1.9-.78,1,1,0,0,1,0-1.25A2.53,2.53,0,0,1,360,279a3.7,3.7,0,0,1,2.34,1.3A1.09,1.09,0,0,1,361.39,282Z" transform="translate(-84.62 -240.03)"/><path class="cls-5" d="M339.22,283.48a18,18,0,0,0,1.89-.59,3.19,3.19,0,0,0,1.81-1,1,1,0,0,0-.12-1.24,2.52,2.52,0,0,0-2.54-.35,3.73,3.73,0,0,0-2.19,1.53A1.08,1.08,0,0,0,339.22,283.48Z" transform="translate(-84.62 -240.03)"/><path class="cls-5" d="M352.64,301.62a8,8,0,0,1-3,2.74,3.59,3.59,0,0,1-2.16.32c-1.61-.28-1.78-1.72-1.59-3a9,9,0,0,1,.54-2A10.41,10.41,0,0,0,352.64,301.62Z" transform="translate(-84.62 -240.03)"/><path class="cls-7" d="M349.65,304.36a3.59,3.59,0,0,1-2.16.32c-1.61-.28-1.78-1.72-1.59-3C347.6,301.73,349.37,302.73,349.65,304.36Z" transform="translate(-84.62 -240.03)"/><path class="cls-13" d="M353.13,297.86s.41,2.92.41,4.29c0,.13-.34.19-.8.22h-.06a6.55,6.55,0,0,1-6.35-2.44c-.09-.13.08-.28.21-.19a9.89,9.89,0,0,0,6,1.71c.1-.38-.86-5-.64-5a12.17,12.17,0,0,1,3.12.71c-.66-6.1-2.3-12-2.87-18.12a.19.19,0,0,1,.36-.09c2.15,6.1,3.07,13.1,3.92,19.38C356.52,299.13,353.68,298.09,353.13,297.86Z" transform="translate(-84.62 -240.03)"/><path class="cls-5" d="M320.77,293.81c4.74.43,7.79-12.32,7.79-12.32s31.86-4.41,31.72-24.68c0,0-18.12-14-35.56.1S316.45,293.41,320.77,293.81Z" transform="translate(-84.62 -240.03)"/><path class="cls-12" d="M323.48,295.34s-5.66-9.34-9.86-7.38-.35,15.21,4.29,17.29a4.84,4.84,0,0,0,6.65-2.17Z" transform="translate(-84.62 -240.03)"/><path class="cls-13" d="M314.82,291.73a.06.06,0,0,0,0,.12c3.25,1.57,4.8,4.78,5.82,8.07-.91-1.3-2.22-2.06-4-1-.09.05,0,.2.08.18a3,3,0,0,1,3.21,1.26,14.19,14.19,0,0,1,1.39,2.75c.14.31.69.18.6-.17a.19.19,0,0,1,0-.08C322.27,298.63,319.36,292.46,314.82,291.73Z" transform="translate(-84.62 -240.03)"/><path class="cls-2" d="M312.64,297.38a26.21,26.21,0,0,0,5.41,10.93c3.49,4.51,8.62,6.76,13.69,8.67.51.19.68-.67.16-.86a27.68,27.68,0,0,1-13.6-10.45s0,0,0,0c-.2-.13-.39-.29-.58-.44-1.79-1-3.43-3.51-4.52-6.38a.83.83,0,0,0,0-.12C313,298.27,312.79,297.82,312.64,297.38Z" transform="translate(-84.62 -240.03)"/><path class="cls-2" d="M317.6,288.74a16.37,16.37,0,0,1,3.47,2.87l0,0a15.86,15.86,0,0,1,1.87,2.12c.2.25.39.52.58.77s.47.63.47.63v.05c1.37,2,2.53,4,3.06,4.57a.22.22,0,0,0,.36-.23c-1.48-2.77-4.19-10-8.28-10.76A4.41,4.41,0,0,0,317.6,288.74Z" transform="translate(-84.62 -240.03)"/><path class="cls-2" d="M325.29,296.36c-.68-1.39,9.66,3.18,20.2.66,2.16-.52,8.13-3.15,11.5-3.25s7.4,2.5,12.07,2.85c1.6.12.66,13.95-3.22,20.1-1.28,2-6.85,6.27-10.32,6.74-8.15,1.1-22.35-4.3-24.57-7C329.17,314.36,331.74,309.54,325.29,296.36Z" transform="translate(-84.62 -240.03)"/><path class="cls-4" d="M368.39,301a49,49,0,0,0-9.29-2.65c-2.75-.45-5.18.63-7.74,1.63-6.86,2.68-13.86,2.63-20.91.85-.08,0-.11.13,0,.16a27.77,27.77,0,0,0,17.54.9c3.16-.84,6.29-2.65,9.59-2.55,3.6.11,7.15,1.71,10.73,2.22C368.58,301.62,368.69,301.14,368.39,301Z" transform="translate(-84.62 -240.03)"/><path class="cls-4" d="M363.72,317.12c-2.17,1.14-4.3,2.76-6.57,3.58-2.71,1-6,.18-8.71-.37-5.17-1-10.15-3-15.21-4.57-.05,0-.06.06,0,.08a66.7,66.7,0,0,0,17.52,5.53c2,.29,4.24.73,6.22.07,2.38-.8,4.73-2.67,6.82-4.17C363.84,317.22,363.79,317.09,363.72,317.12Z" transform="translate(-84.62 -240.03)"/><path class="cls-4" d="M366.78,305.72c-5.26-1.37-10.1-.84-15.38,0a61.34,61.34,0,0,1-18,.24c-.05,0-.08.09,0,.1a52.21,52.21,0,0,0,16.12.33c2.59-.35,5.16-.92,7.77-1.19a30.81,30.81,0,0,1,9.5.82C366.9,306.09,367,305.77,366.78,305.72Z" transform="translate(-84.62 -240.03)"/><path class="cls-4" d="M365.72,311a25.7,25.7,0,0,1-15.15,3.82c-5.44-.33-10.71-2.21-15.95-3.82-.06,0-.09.09,0,.12,10.52,4.06,21.13,6.68,31.27.19C366.07,311.22,365.92,310.92,365.72,311Z" transform="translate(-84.62 -240.03)"/><rect class="cls-1" x="40.85" y="310.05" width="334.26" height="9.14"/></svg>