<svg id="Layer_1" data-name="Layer 1" xmlns="http://www.w3.org/2000/svg" viewBox="0 0 350.59 244.33"><defs><style>.cls-1{fill:#edecf6;}.cls-2{fill:#cac5e2;}.cls-13,.cls-14,.cls-15,.cls-20,.cls-21,.cls-22,.cls-23,.cls-3,.cls-30,.cls-4{fill:none;}.cls-3{stroke:#cac5e2;}.cls-23,.cls-3{stroke-miterlimit:10;}.cls-23,.cls-3,.cls-4{stroke-width:0.67px;}.cls-22,.cls-4{stroke:#fff;}.cls-22,.cls-30,.cls-4{stroke-linecap:round;}.cls-13,.cls-14,.cls-15,.cls-20,.cls-21,.cls-22,.cls-30,.cls-4{stroke-linejoin:round;}.cls-5{fill:#38366e;}.cls-6{fill:#222041;}.cls-7{fill:#fff;}.cls-8{fill:#6966ac;}.cls-9{fill:#ffcd70;}.cls-10{fill:#d6d4eb;}.cls-11{fill:#3ca0b8;}.cls-12{fill:#f15f64;}.cls-13,.cls-14,.cls-15,.cls-20,.cls-21,.cls-23{stroke:#38366e;}.cls-13,.cls-14,.cls-15,.cls-20,.cls-21{stroke-width:0.34px;}.cls-14{stroke-dasharray:1.99 1.99;}.cls-15{stroke-dasharray:2.03 2.03;}.cls-16{fill:#6d69af;}.cls-17{fill:#cbc9df;}.cls-18{fill:#e7e5f2;}.cls-19{fill:#8883be;}.cls-20{stroke-dasharray:2.04 2.04;}.cls-21{stroke-dasharray:2.12 2.12;}.cls-22{stroke-width:1.34px;}.cls-24{fill:#3b8cb8;}.cls-25{fill:#48aad6;}.cls-26{fill:#cc2027;}.cls-27{fill:#434c96;}.cls-28{fill:#bebfe0;}.cls-29{fill:#2e2866;}.cls-30{stroke:#2e2866;stroke-width:0;}.cls-31{fill:#f7d9d2;}.cls-32{fill:#7986c2;}.cls-33{fill:#e4edf8;}.cls-34{fill:#dba99c;}.cls-35{fill:#369946;}.cls-36{fill:#51b848;}.cls-37{fill:#6ebf55;}</style></defs><title>doctor</title><g id="Img"><path class="cls-1" d="M200.64,484.74a28,28,0,0,1,35.86-36.05c7.36,2.69,13.25,8.32,20.17,12s16.35,5,22-.45,4.52-15.14.73-22.1-9.67-12.67-13-19.87A31.58,31.58,0,0,1,300.5,374c11.25,1.95,20.93,9.87,32.29,11,14.38,1.44,28.8-10.19,30.45-24.54,1.33-11.51-4.56-22.6-11.31-32s-14.69-18.31-18.5-29.25c-5.14-14.72-1.34-32.54,10.38-42.82s31-11.37,42.93-1.4c9.71,8.08,13.55,21.3,22.16,30.55,13.19,14.16,37.66,15.76,52.59,3.44,7.62-6.3,12.61-15.36,20.32-21.55s20.54-8.36,26.62-.55c6.28,8.06,3,23.34,12.64,26.62,3.86,1.31,8-.28,12.13-.45s9.12,2.51,8.43,6.53V482.94Z" transform="translate(-198.97 -240.41)"/><polygon class="cls-2" points="85.59 161.41 84.56 165.23 83.54 169.06 80.74 166.26 77.94 163.46 81.76 162.43 85.59 161.41"/><polygon class="cls-2" points="183.77 30.53 182.75 34.35 181.72 38.17 178.92 35.38 176.12 32.58 179.95 31.55 183.77 30.53"/><polygon class="cls-2" points="91.4 20.17 90.37 23.99 89.35 27.82 86.55 25.02 83.75 22.22 87.58 21.19 91.4 20.17"/><polygon class="cls-2" points="266.48 203.29 265.45 207.11 264.43 210.94 261.63 208.14 258.83 205.34 262.65 204.31 266.48 203.29"/><polygon class="cls-2" points="289.58 0 288.56 3.82 287.53 7.65 284.73 4.85 281.94 2.05 285.76 1.02 289.58 0"/><polygon class="cls-2" points="336.07 153.9 335.05 157.72 334.02 161.55 331.23 158.75 328.43 155.95 332.25 154.93 336.07 153.9"/><polygon class="cls-2" points="165.79 174.98 164.77 178.8 163.75 182.63 160.95 179.83 158.15 177.03 161.97 176 165.79 174.98"/><circle class="cls-3" cx="337.64" cy="402.66" r="43.51" transform="translate(-359.47 329.57) rotate(-68.59)"/><circle class="cls-3" cx="392.2" cy="291.67" r="43.51" transform="translate(-241.54 -172.06) rotate(-9.45)"/><circle class="cls-3" cx="230.21" cy="181.19" r="21.76"/><circle class="cls-3" cx="505.72" cy="383.61" r="43.51" transform="translate(-116.78 616.01) rotate(-85.33)"/><path class="cls-2" d="M329.15,258.45a1,1,0,0,0,0-2,1,1,0,0,0,0,2Z" transform="translate(-198.97 -240.41)"/><path class="cls-2" d="M527,270.6a1,1,0,0,0,0-2,1,1,0,0,0,0,2Z" transform="translate(-198.97 -240.41)"/><path class="cls-2" d="M494.26,446.85a1,1,0,0,0,0-2,1,1,0,0,0,0,2Z" transform="translate(-198.97 -240.41)"/><path class="cls-2" d="M435.51,423.22a1,1,0,0,0,0-2,1,1,0,0,0,0,2Z" transform="translate(-198.97 -240.41)"/><path class="cls-2" d="M331.18,436.05a1,1,0,0,0,0-2,1,1,0,0,0,0,2Z" transform="translate(-198.97 -240.41)"/><path class="cls-2" d="M417.61,279.72a1,1,0,0,0,0-2,1,1,0,0,0,0,2Z" transform="translate(-198.97 -240.41)"/><path class="cls-2" d="M274.79,350.62c2.59,0,2.6-4,0-4s-2.59,4,0,4Z" transform="translate(-198.97 -240.41)"/><path class="cls-2" d="M437.54,253c2.58,0,2.59-4,0-4s-2.6,4,0,4Z" transform="translate(-198.97 -240.41)"/><path class="cls-2" d="M535.45,332.39c2.59,0,2.59-4,0-4s-2.59,4,0,4Z" transform="translate(-198.97 -240.41)"/><path class="cls-2" d="M372,450.59h-.33a1.49,1.49,0,0,0-.78.17,1.52,1.52,0,0,0-.65.42,2.29,2.29,0,0,0-.59,1.42l.08.53a2,2,0,0,0,.51.89l.41.31a1.91,1.91,0,0,0,1,.28H372a1.59,1.59,0,0,0,.78-.17,1.79,1.79,0,0,0,1.06-1.07,1.46,1.46,0,0,0,.18-.77l-.08-.54a1.91,1.91,0,0,0-.51-.88l-.41-.32a2,2,0,0,0-1-.27Z" transform="translate(-198.97 -240.41)"/><path class="cls-2" d="M344.39,326.52c1.48-12.36,2.94-25,.51-37.16-.93-4.61-3.11-9.82-7.7-10.9a9.34,9.34,0,0,0-7.35,1.82,24.81,24.81,0,0,0-5.61,4.73c-1.47-3.71-2.13-7.68-3.25-11.51s-2.8-7.66-5.83-10.25-7.66-3.64-11.08-1.59c-2.37,1.41-3.77,4-4.84,6.52-5.32,12.57-4.23,26.39,1.67,38.7-1.66-2.59-3.38-5.24-5.88-7s-6-2.54-8.67-1c-3,1.71-4,5.54-4.33,9a50.63,50.63,0,0,0,21.18,46.07c-3.88-5.56-13.29-5.86-17.51-.56s-2.61,13.38.35,19.61a61.89,61.89,0,0,0,43.5,33.61c6.17-12.3,11-25.57,15.35-38.61C349.23,355,342.79,340,344.39,326.52Z" transform="translate(-198.97 -240.41)"/><path class="cls-4" d="M326.47,393.07A631.13,631.13,0,0,1,309.16,279" transform="translate(-198.97 -240.41)"/><path class="cls-4" d="M293,311.32a36.65,36.65,0,0,0,21.64,22.47" transform="translate(-198.97 -240.41)"/><path class="cls-4" d="M334.32,288.31a44.33,44.33,0,0,1-22,29.16" transform="translate(-198.97 -240.41)"/><path class="cls-4" d="M293.19,360.59a36,36,0,0,0,29,15.38" transform="translate(-198.97 -240.41)"/><path class="cls-2" d="M467.85,326.52c-1.48-12.36-2.94-25-.51-37.16.93-4.61,3.11-9.82,7.7-10.9a9.34,9.34,0,0,1,7.35,1.82A24.38,24.38,0,0,1,488,285c1.47-3.71,2.13-7.68,3.25-11.51s2.8-7.66,5.83-10.25,7.66-3.64,11.08-1.59c2.37,1.41,3.77,4,4.84,6.52,5.32,12.57,4.23,26.39-1.67,38.7,1.66-2.59,3.38-5.24,5.88-7s6-2.54,8.67-1c3,1.71,4,5.54,4.33,9A50.63,50.63,0,0,1,509,353.87c3.88-5.56,13.29-5.86,17.51-.56s2.61,13.38-.35,19.61a61.89,61.89,0,0,1-43.5,33.61c-6.17-12.3-11-25.57-15.35-38.61C463,355,469.45,340,467.85,326.52Z" transform="translate(-198.97 -240.41)"/><path class="cls-4" d="M485.77,393.07A631.13,631.13,0,0,0,503.08,279" transform="translate(-198.97 -240.41)"/><path class="cls-4" d="M519.24,311.32a36.65,36.65,0,0,1-21.64,22.47" transform="translate(-198.97 -240.41)"/><path class="cls-4" d="M477.92,288.31a44.33,44.33,0,0,0,22,29.16" transform="translate(-198.97 -240.41)"/><path class="cls-4" d="M519.05,360.59A36,36,0,0,1,490,376" transform="translate(-198.97 -240.41)"/><g id="System"><rect class="cls-5" x="189.65" y="165.23" width="29.34" height="32.95"/><rect class="cls-6" x="189.65" y="165.23" width="29.34" height="11.45"/><path class="cls-6" d="M184.75,190.2H223.9a7.95,7.95,0,0,1,7.95,7.95v1.26a0,0,0,0,1,0,0h-55a0,0,0,0,1,0,0v-1.26A7.95,7.95,0,0,1,184.75,190.2Z"/><rect class="cls-5" x="122.89" y="62.7" width="162.87" height="106.33" rx="8.01"/><rect class="cls-7" x="354.44" y="279.15" width="97.7" height="154.25" rx="3.23" transform="translate(560.6 -287.43) rotate(90)"/><rect class="cls-8" x="87.57" y="46.95" width="75.93" height="48.13" rx="2.2"/><rect class="cls-7" x="303.02" y="275.84" width="43" height="73.84" rx="1.74" transform="translate(438.3 -252.16) rotate(90)"/><path class="cls-7" d="M361,289.31a1,1,0,1,1-1-1A1,1,0,0,1,361,289.31Z" transform="translate(-198.97 -240.41)"/><path class="cls-7" d="M357.77,289.31a1,1,0,1,1-1-1A1,1,0,0,1,357.77,289.31Z" transform="translate(-198.97 -240.41)"/><path class="cls-7" d="M354.59,289.31a1,1,0,1,1-1-1A1,1,0,0,1,354.59,289.31Z" transform="translate(-198.97 -240.41)"/><path class="cls-9" d="M298,299a3.89,3.89,0,1,1-3.89-3.89A3.89,3.89,0,0,1,298,299Z" transform="translate(-198.97 -240.41)"/><rect class="cls-10" x="100.83" y="54.7" width="57.97" height="1.84"/><rect class="cls-10" x="100.83" y="57.63" width="39.45" height="1.84"/><rect class="cls-10" x="100.83" y="60.75" width="20.52" height="1.84"/><path class="cls-11" d="M298,311.34a3.89,3.89,0,1,1-3.89-3.89A3.89,3.89,0,0,1,298,311.34Z" transform="translate(-198.97 -240.41)"/><rect class="cls-10" x="100.83" y="67.08" width="57.97" height="1.84"/><rect class="cls-10" x="100.83" y="70.02" width="39.45" height="1.84"/><rect class="cls-10" x="100.83" y="73.14" width="20.52" height="1.84"/><circle class="cls-12" cx="95.15" cy="83.31" r="3.89"/><rect class="cls-10" x="100.83" y="79.46" width="57.97" height="1.84"/><rect class="cls-10" x="100.83" y="82.4" width="39.45" height="1.84"/><rect class="cls-10" x="100.83" y="85.52" width="20.52" height="1.84"/><polyline class="cls-13" points="167.11 98.66 167.11 99.67 166.1 99.67"/><line class="cls-14" x1="164.11" y1="99.67" x2="85.4" y2="99.67"/><polyline class="cls-13" points="84.41 99.67 83.4 99.67 83.4 98.66"/><line class="cls-15" x1="83.4" y1="96.63" x2="83.4" y2="44.84"/><polyline class="cls-13" points="83.4 43.82 83.4 42.81 84.41 42.81"/><line class="cls-14" x1="86.4" y1="42.82" x2="165.11" y2="42.82"/><polyline class="cls-13" points="166.1 42.81 167.11 42.81 167.11 43.82"/><line class="cls-15" x1="167.11" y1="45.85" x2="167.11" y2="97.64"/><rect class="cls-5" x="81.76" y="41.18" width="3.28" height="3.28"/><rect class="cls-5" x="81.76" y="98.03" width="3.28" height="3.28"/><rect class="cls-5" x="165.47" y="41.18" width="3.28" height="3.28"/><rect class="cls-5" x="165.47" y="98.03" width="3.28" height="3.28"/><path class="cls-16" d="M504.4,318.11H476.67a1,1,0,0,1-1-1V297.32a1,1,0,0,1,1-1h11.27a1,1,0,0,1,.69.29l1.83,1.83a1,1,0,0,0,.7.29H504.4a1,1,0,0,1,1,1v17.4A1,1,0,0,1,504.4,318.11Z" transform="translate(-198.97 -240.41)"/><polygon class="cls-10" points="302.91 44.32 302.91 69.25 279.37 69.25 279.37 40.6 299.19 40.6 302.91 44.32"/><polygon class="cls-17" points="299.19 44.32 299.19 40.6 302.91 44.32 299.19 44.32"/><polygon class="cls-18" points="304.37 45.63 304.37 70.56 280.83 70.56 280.83 41.91 300.65 41.91 304.37 45.63"/><path class="cls-19" d="M505.44,318.11H477.71a1,1,0,0,1-1-1v-17a1,1,0,0,1,1-1H489a1,1,0,0,1,.7.28l1.83,1.83a.94.94,0,0,0,.69.29h13.24a1,1,0,0,1,1,1v14.59A1,1,0,0,1,505.44,318.11Z" transform="translate(-198.97 -240.41)"/><polygon class="cls-17" points="300.65 45.63 300.65 41.91 304.37 45.63 300.65 45.63"/><rect class="cls-17" x="281.83" y="43.54" width="17.82" height="0.97"/><rect class="cls-17" x="281.9" y="47.19" width="21.41" height="0.61"/><rect class="cls-17" x="281.9" y="48.92" width="21.41" height="0.61"/><rect class="cls-17" x="281.9" y="50.65" width="17.6" height="0.61"/><rect class="cls-17" x="281.9" y="52.38" width="17.6" height="0.61"/><rect class="cls-17" x="281.9" y="54.11" width="11.9" height="0.61"/><rect class="cls-17" x="281.9" y="55.84" width="11.9" height="0.61"/><rect class="cls-19" x="132.64" y="74.01" width="143.36" height="83.72" rx="4.57"/><rect class="cls-7" x="366.28" y="289.11" width="74.03" height="139.4" rx="2.76" transform="translate(563.14 -284.89) rotate(90)"/><path class="cls-7" d="M472.07,318.11a1.82,1.82,0,1,1-1.81-1.82A1.82,1.82,0,0,1,472.07,318.11Z" transform="translate(-198.97 -240.41)"/><path class="cls-7" d="M466.08,318.11a1.82,1.82,0,1,1-1.82-1.82A1.83,1.83,0,0,1,466.08,318.11Z" transform="translate(-198.97 -240.41)"/><path class="cls-7" d="M460.08,318.11a1.82,1.82,0,1,1-1.82-1.82A1.83,1.83,0,0,1,460.08,318.11Z" transform="translate(-198.97 -240.41)"/><polyline class="cls-13" points="191.19 122.55 191.19 123.55 190.19 123.55"/><line class="cls-20" x1="188.15" y1="123.55" x2="140.24" y2="123.55"/><polyline class="cls-13" points="139.22 123.55 138.22 123.55 138.22 122.55"/><line class="cls-21" x1="138.22" y1="120.43" x2="138.22" y2="87.59"/><polyline class="cls-13" points="138.22 86.53 138.22 85.52 139.22 85.52"/><line class="cls-20" x1="141.26" y1="85.52" x2="189.17" y2="85.52"/><polyline class="cls-13" points="190.19 85.52 191.19 85.52 191.19 86.53"/><line class="cls-21" x1="191.2" y1="88.65" x2="191.2" y2="121.49"/><rect class="cls-19" x="144.41" y="91.65" width="52.98" height="38.03"/><polygon class="cls-22" points="193.96 126.63 147.74 126.63 162.3 99.16 173.25 118.04 180.67 110.2 193.96 126.63"/><path class="cls-22" d="M378.92,341.08a4.52,4.52,0,1,1-4.52-4.53A4.52,4.52,0,0,1,378.92,341.08Z" transform="translate(-198.97 -240.41)"/><rect class="cls-10" x="203.48" y="86.11" width="65.99" height="4.06"/><rect class="cls-10" x="203.48" y="93.58" width="18.96" height="2.03"/><rect class="cls-10" x="225.03" y="93.58" width="7.7" height="2.03"/><rect class="cls-10" x="235.68" y="93.58" width="20.2" height="2.03"/><rect class="cls-10" x="257.47" y="93.58" width="12" height="2.03"/><rect class="cls-10" x="203.48" y="98.64" width="25" height="2.03"/><rect class="cls-10" x="231.25" y="98.64" width="9.73" height="2.03"/><rect class="cls-10" x="243.19" y="98.64" width="9.73" height="2.03"/><rect class="cls-10" x="254.42" y="98.64" width="12.35" height="2.03"/><rect class="cls-10" x="203.48" y="103.7" width="6.96" height="2.03"/><rect class="cls-10" x="236.11" y="103.7" width="12.5" height="2.03"/><rect class="cls-10" x="212.04" y="103.7" width="21.98" height="2.03"/><rect class="cls-10" x="203.48" y="108.75" width="15.76" height="2.03"/><rect class="cls-10" x="221.95" y="108.75" width="5.29" height="2.03"/><rect class="cls-10" x="229.71" y="108.75" width="10.41" height="2.03"/><rect class="cls-10" x="203.48" y="113.81" width="6.03" height="2.03"/><rect class="cls-10" x="211.79" y="113.81" width="13.24" height="2.03"/><rect class="cls-10" x="138.22" y="133.72" width="59.17" height="17.6"/><rect class="cls-7" x="139.79" y="134.91" width="11.23" height="10.44"/><rect class="cls-7" x="139.79" y="146.91" width="11.23" height="3.1"/><rect class="cls-7" x="353.07" y="379.98" width="11.23" height="10.44" transform="translate(518.4 529.99) rotate(180)"/><rect class="cls-7" x="353.07" y="375.32" width="11.23" height="3.1" transform="translate(518.4 513.34) rotate(180)"/><rect class="cls-7" x="169.52" y="134.91" width="11.23" height="10.44"/><rect class="cls-7" x="169.52" y="146.91" width="11.23" height="3.1"/><rect class="cls-7" x="382.8" y="379.98" width="11.23" height="10.44" transform="translate(577.86 529.99) rotate(180)"/><rect class="cls-7" x="382.8" y="375.32" width="11.23" height="3.1" transform="translate(577.86 513.34) rotate(180)"/><path class="cls-19" d="M470.43,363.51h-66.6v-1.57a2.07,2.07,0,0,1,2.06-2.07h62.48a2.07,2.07,0,0,1,2.06,2.07Z" transform="translate(-198.97 -240.41)"/><path class="cls-19" d="M469.76,362.81v27.58a1.14,1.14,0,0,1-1.15,1.15h-63a1.14,1.14,0,0,1-1.15-1.15V362.81h65.26m.67-.67h-66.6v28.25a1.81,1.81,0,0,0,1.82,1.82h63a1.81,1.81,0,0,0,1.82-1.82V362.14Z" transform="translate(-198.97 -240.41)"/><rect class="cls-10" x="207.17" y="125.35" width="8.38" height="24.18"/><rect class="cls-10" x="228.05" y="125.35" width="40.49" height="24.18"/><rect class="cls-7" x="230.21" y="126.63" width="36.35" height="2.47"/><rect class="cls-7" x="230.21" y="130.58" width="36.35" height="1.23"/><rect class="cls-10" x="217.31" y="130.58" width="8.38" height="2.88"/><rect class="cls-7" x="230.21" y="132.93" width="7.82" height="14.79"/><rect class="cls-7" x="249.41" y="132.93" width="7.82" height="14.79"/><path class="cls-7" d="M447.2,388.46h-8.49V373h8.49Zm-7.82-.67h7.15V373.67h-7.15Z" transform="translate(-198.97 -240.41)"/><path class="cls-7" d="M465.87,388.46h-8.49V373h8.49Zm-7.82-.67h7.15V373.67h-7.15Z" transform="translate(-198.97 -240.41)"/><rect class="cls-10" x="217.31" y="135.81" width="8.38" height="2.88"/><rect class="cls-10" x="217.31" y="141.04" width="8.38" height="2.88"/><rect class="cls-10" x="217.31" y="146.27" width="8.38" height="2.88"/><path class="cls-11" d="M405.76,284.52H381.57a5.81,5.81,0,0,0-5.81,5.81h0a5.86,5.86,0,0,0,.66,2.7l-1.89,3.44a1,1,0,0,0,1.31,1.46l4.52-1.92a5.34,5.34,0,0,0,1.21.13h24.19a5.82,5.82,0,0,0,5.82-5.81h0A5.82,5.82,0,0,0,405.76,284.52Z" transform="translate(-198.97 -240.41)"/><path class="cls-7" d="M384.7,290.37a2.06,2.06,0,1,1-2.06-2.06A2.05,2.05,0,0,1,384.7,290.37Z" transform="translate(-198.97 -240.41)"/><path class="cls-7" d="M392.2,290.37a2.06,2.06,0,1,1-2.05-2.06A2.05,2.05,0,0,1,392.2,290.37Z" transform="translate(-198.97 -240.41)"/><path class="cls-7" d="M399.71,290.37a2.06,2.06,0,1,1-2.06-2.06A2.05,2.05,0,0,1,399.71,290.37Z" transform="translate(-198.97 -240.41)"/><path class="cls-7" d="M407.21,290.37a2.06,2.06,0,1,1-2-2.06A2.05,2.05,0,0,1,407.21,290.37Z" transform="translate(-198.97 -240.41)"/><path class="cls-9" d="M348.14,389.86l-1,.83A26.85,26.85,0,0,1,336,396.32l-1.39.33a14.9,14.9,0,1,0,3,9c0-.23,0-.46,0-.69l1.36-.94a26.87,26.87,0,0,0,10.14-13.52A.57.57,0,0,0,348.14,389.86Z" transform="translate(-198.97 -240.41)"/><path class="cls-7" d="M323.76,396.48l2,4.08a1.2,1.2,0,0,0,.91.67l4.51.65a1.22,1.22,0,0,1,.67,2.07l-3.26,3.18a1.19,1.19,0,0,0-.35,1.07l.77,4.49a1.22,1.22,0,0,1-1.76,1.28l-4-2.12a1.19,1.19,0,0,0-1.13,0l-4,2.12a1.22,1.22,0,0,1-1.76-1.28l.77-4.49a1.19,1.19,0,0,0-.35-1.07L313.48,404a1.22,1.22,0,0,1,.67-2.07l4.51-.65a1.21,1.21,0,0,0,.91-.67l2-4.08A1.21,1.21,0,0,1,323.76,396.48Z" transform="translate(-198.97 -240.41)"/><rect class="cls-19" x="90.68" y="110.81" width="38.94" height="10.06"/><path class="cls-7" d="M303.36,352.83l-2.43,6.69h-1.86l-1.51-4.16L296,359.52h-1.86l-2.42-6.69h1.83l1.58,4.52,1.64-4.52h1.64l1.59,4.52,1.63-4.52Z" transform="translate(-198.97 -240.41)"/><path class="cls-7" d="M314.85,352.83l-2.43,6.69h-1.86l-1.51-4.16-1.55,4.16h-1.86l-2.42-6.69h1.83l1.58,4.52,1.64-4.52h1.64l1.59,4.52,1.63-4.52Z" transform="translate(-198.97 -240.41)"/><path class="cls-7" d="M326.34,352.83l-2.43,6.69h-1.86l-1.51-4.16L319,359.52h-1.87l-2.41-6.69h1.83l1.58,4.52,1.64-4.52h1.64l1.59,4.52,1.63-4.52Z" transform="translate(-198.97 -240.41)"/><line class="cls-23" x1="88.62" y1="110.81" x2="92.75" y2="110.81"/><line class="cls-23" x1="88.62" y1="120.87" x2="92.75" y2="120.87"/><line class="cls-23" x1="90.68" y1="110.81" x2="90.68" y2="120.87"/><polygon class="cls-6" points="199.02 111.21 195.61 110.3 192.2 109.39 193.11 112.8 194.03 116.21 195.89 114.34 199.79 118.24 201.05 116.98 197.15 113.08 199.02 111.21"/></g><g id="CoronaVirus"><circle class="cls-19" cx="430.08" cy="270.39" r="4.28" transform="translate(-131.14 386.15) rotate(-76.67)"/><path class="cls-19" d="M430.53,264.34h0a.82.82,0,0,0,.36-.68.81.81,0,0,0-1.62,0,.82.82,0,0,0,.36.68h0c.49.36.44,1.21-.2,1.85h1.3C430.09,265.55,430,264.7,430.53,264.34Z" transform="translate(-198.97 -240.41)"/><path class="cls-19" d="M425.06,267h0a.8.8,0,0,0-.4-.65.81.81,0,1,0,0,1.43h0c.56-.24,1.27.23,1.5,1.1l.32-.56.33-.56C425.9,268,425.14,267.58,425.06,267Z" transform="translate(-198.97 -240.41)"/><path class="cls-19" d="M424.62,273h0a.81.81,0,1,0,0,1.43.8.8,0,0,0,.4-.66h0c.08-.6.84-1,1.71-.75l-.33-.56-.32-.56C425.89,272.8,425.18,273.26,424.62,273Z" transform="translate(-198.97 -240.41)"/><path class="cls-19" d="M429.63,276.44h0a.82.82,0,0,0-.36.68.81.81,0,0,0,1.62,0,.82.82,0,0,0-.36-.68h0c-.49-.36-.44-1.22.2-1.85h-1.3C430.07,275.22,430.12,276.08,429.63,276.44Z" transform="translate(-198.97 -240.41)"/><path class="cls-19" d="M435.1,273.8h0a.8.8,0,0,0,.4.66.81.81,0,0,0,1.11-.3.81.81,0,0,0-.3-1.11.79.79,0,0,0-.76,0h0c-.56.23-1.27-.23-1.51-1.1l-.32.56-.33.56C434.26,272.82,435,273.2,435.1,273.8Z" transform="translate(-198.97 -240.41)"/><path class="cls-19" d="M435.55,267.75h0a.79.79,0,0,0,.76,0,.81.81,0,1,0-.81-1.41.8.8,0,0,0-.4.65h0c-.08.61-.84,1-1.71.76l.33.56.32.56C434.28,268,435,267.51,435.55,267.75Z" transform="translate(-198.97 -240.41)"/><path class="cls-2" d="M432.69,270.39a2.61,2.61,0,1,1-2.61-2.61A2.61,2.61,0,0,1,432.69,270.39Z" transform="translate(-198.97 -240.41)"/><path class="cls-2" d="M428.29,266.39h0a.81.81,0,1,0-1.43.05.82.82,0,0,0,.65.4h0c.61.07,1,.84.76,1.7l.56-.32.56-.33C428.52,267.66,428.05,267,428.29,266.39Z" transform="translate(-198.97 -240.41)"/><path class="cls-2" d="M425.72,269.94h0a.79.79,0,0,0-.67-.36.81.81,0,1,0,0,1.62.79.79,0,0,0,.67-.36h0c.37-.49,1.22-.44,1.86.2v-1.3C426.94,270.38,426.09,270.43,425.72,269.94Z" transform="translate(-198.97 -240.41)"/><path class="cls-2" d="M427.51,273.94h0a.81.81,0,0,0-.35,1.51.81.81,0,0,0,1.11-.3.79.79,0,0,0,0-.76h0c-.24-.56.23-1.27,1.1-1.51l-.56-.32-.56-.32C428.5,273.1,428.12,273.86,427.51,273.94Z" transform="translate(-198.97 -240.41)"/><path class="cls-2" d="M431.87,274.39h0a.77.77,0,0,0,0,.76.8.8,0,0,0,1.1.3.81.81,0,0,0,.3-1.11.82.82,0,0,0-.65-.4h0c-.61-.08-1-.84-.75-1.7l-.57.32-.56.32C431.64,273.12,432.11,273.83,431.87,274.39Z" transform="translate(-198.97 -240.41)"/><path class="cls-2" d="M434.44,270.84h0a.81.81,0,1,0,0-.9h0c-.37.49-1.22.44-1.85-.2V271C433.22,270.4,434.07,270.35,434.44,270.84Z" transform="translate(-198.97 -240.41)"/><path class="cls-2" d="M432.65,266.84h0a.82.82,0,0,0,.65-.4.81.81,0,0,0-1.4-.82.78.78,0,0,0,0,.77h0c.24.56-.23,1.27-1.1,1.5l.56.33.57.32C431.66,267.68,432,266.91,432.65,266.84Z" transform="translate(-198.97 -240.41)"/><path class="cls-7" d="M431.46,270.39a1.38,1.38,0,1,1-1.38-1.38A1.38,1.38,0,0,1,431.46,270.39Z" transform="translate(-198.97 -240.41)"/><circle class="cls-24" cx="247.9" cy="54.13" r="10.03"/><path class="cls-24" d="M447.93,280.35h0a1.91,1.91,0,1,0-2.11,0h0c1.14.86,1,2.85-.46,4.34h3C446.91,283.2,446.79,281.21,447.93,280.35Z" transform="translate(-198.97 -240.41)"/><path class="cls-24" d="M435.11,286.53h0a1.9,1.9,0,1,0-2.85,1.77,1.9,1.9,0,0,0,1.79.06h0c1.32-.56,3,.54,3.53,2.57l.76-1.31.76-1.32C437.07,288.84,435.28,288,435.11,286.53Z" transform="translate(-198.97 -240.41)"/><path class="cls-24" d="M434.05,300.73h0a1.87,1.87,0,0,0-1.79,0,1.9,1.9,0,1,0,2.85,1.77h0c.17-1.42,2-2.31,4-1.77l-.76-1.31-.76-1.32C437,300.18,435.37,301.29,434.05,300.73Z" transform="translate(-198.97 -240.41)"/><path class="cls-24" d="M445.82,308.74h0a1.91,1.91,0,1,0,2.11,0h0c-1.14-.86-1-2.86.46-4.35h-3C446.84,305.88,447,307.88,445.82,308.74Z" transform="translate(-198.97 -240.41)"/><path class="cls-24" d="M458.64,302.55h0a1.9,1.9,0,1,0,2.85-1.77,1.87,1.87,0,0,0-1.79,0h0c-1.32.56-3-.55-3.53-2.58l-.76,1.32-.76,1.31C456.68,300.24,458.47,301.13,458.64,302.55Z" transform="translate(-198.97 -240.41)"/><path class="cls-24" d="M459.7,288.36h0a1.9,1.9,0,1,0-.11-3.36,1.92,1.92,0,0,0-.95,1.53h0c-.17,1.42-2,2.31-4,1.77l.76,1.32.76,1.31C456.71,288.9,458.38,287.8,459.7,288.36Z" transform="translate(-198.97 -240.41)"/><circle class="cls-25" cx="247.9" cy="54.13" r="6.12"/><path class="cls-25" d="M442.68,285.16h0a1.9,1.9,0,1,0-3.36.11,1.92,1.92,0,0,0,1.53,1h0c1.42.17,2.31,2,1.77,4l1.32-.76,1.31-.76C443.22,288.15,442.12,286.48,442.68,285.16Z" transform="translate(-198.97 -240.41)"/><path class="cls-25" d="M436.65,293.49h0a1.91,1.91,0,1,0,0,2.11h0c.86-1.15,2.86-1,4.35.46v-3C439.51,294.51,437.51,294.63,436.65,293.49Z" transform="translate(-198.97 -240.41)"/><path class="cls-25" d="M440.85,302.87h0a1.9,1.9,0,1,0,1.83,1.05h0c-.56-1.31.54-3,2.57-3.53l-1.31-.76-1.32-.76C443.16,300.91,442.27,302.69,440.85,302.87Z" transform="translate(-198.97 -240.41)"/><path class="cls-25" d="M451.07,303.92h0a1.92,1.92,0,0,0,.06,1.8,1.91,1.91,0,1,0,1.77-2.85h0c-1.42-.18-2.32-2-1.77-4l-1.32.76-1.31.76C450.53,300.94,451.63,302.61,451.07,303.92Z" transform="translate(-198.97 -240.41)"/><path class="cls-25" d="M457.1,295.6h0a1.91,1.91,0,1,0,0-2.11h0c-.86,1.14-2.86,1-4.35-.47v3C454.24,294.57,456.24,294.45,457.1,295.6Z" transform="translate(-198.97 -240.41)"/><path class="cls-25" d="M452.9,286.22h0a1.9,1.9,0,0,0,.83-3.55,1.9,1.9,0,0,0-2.66,2.49h0c.56,1.32-.54,3-2.57,3.53l1.31.76,1.32.76C450.58,288.18,451.48,286.39,452.9,286.22Z" transform="translate(-198.97 -240.41)"/><circle class="cls-7" cx="446.87" cy="294.54" r="3.23" transform="translate(-141.89 420.89) rotate(-76.65)"/><circle class="cls-26" cx="259.57" cy="23.99" r="8.49"/><path class="cls-26" d="M459.44,252.4h0a1.62,1.62,0,0,0-.89-3,1.62,1.62,0,0,0-.9,3h0c1,.72.87,2.41-.39,3.67h2.57C458.57,254.81,458.47,253.12,459.44,252.4Z" transform="translate(-198.97 -240.41)"/><path class="cls-26" d="M448.59,257.63h0a1.6,1.6,0,0,0-.8-1.3,1.61,1.61,0,1,0-.09,2.84h0c1.12-.47,2.53.46,3,2.18l.64-1.12.64-1.11C450.25,259.58,448.74,258.83,448.59,257.63Z" transform="translate(-198.97 -240.41)"/><path class="cls-26" d="M447.7,269.63h0a1.61,1.61,0,1,0,.89,1.55h0c.15-1.21,1.66-2,3.38-1.5l-.64-1.11-.64-1.12C450.23,269.17,448.82,270.1,447.7,269.63Z" transform="translate(-198.97 -240.41)"/><path class="cls-26" d="M457.65,276.41h0a1.6,1.6,0,0,0-.71,1.34,1.61,1.61,0,1,0,2.5-1.34h0c-1-.73-.87-2.42.39-3.68h-2.57C458.52,274,458.62,275.68,457.65,276.41Z" transform="translate(-198.97 -240.41)"/><path class="cls-26" d="M468.5,271.18h0a1.59,1.59,0,0,0,.8,1.29,1.61,1.61,0,1,0,.09-2.84h0c-1.11.47-2.53-.46-3-2.18l-.64,1.12-.64,1.11C466.84,269.22,468.35,270,468.5,271.18Z" transform="translate(-198.97 -240.41)"/><path class="cls-26" d="M469.39,259.17h0a1.61,1.61,0,1,0-.89-1.54h0c-.15,1.2-1.66,1.95-3.38,1.49l.64,1.11.64,1.12C466.86,259.63,468.28,258.7,469.39,259.17Z" transform="translate(-198.97 -240.41)"/><path class="cls-26" d="M463.34,257h0a1.18,1.18,0,1,0-1.14-.62h0c.36.8-.3,1.85-1.55,2.21l.83.46.82.45C461.94,258.26,462.47,257.14,463.34,257Z" transform="translate(-198.97 -240.41)"/><path class="cls-26" d="M454.55,256.55h0a1.18,1.18,0,1,0-2.08.11,1.21,1.21,0,0,0,1,.57h0c.88.09,1.46,1.18,1.15,2.45l.8-.49.81-.49C454.92,258.39,454.22,257.37,454.55,256.55Z" transform="translate(-198.97 -240.41)"/><path class="cls-26" d="M449.75,263.94h0a1.21,1.21,0,0,0-1-.51,1.18,1.18,0,1,0,1,1.81h0c.51-.72,1.75-.67,2.69.23l0-.94,0-.94C451.53,264.53,450.3,264.63,449.75,263.94Z" transform="translate(-198.97 -240.41)"/><path class="cls-26" d="M453.75,271.79h0a1.2,1.2,0,0,0-.94.6,1.18,1.18,0,0,0,.47,1.6,1.18,1.18,0,0,0,1.61-1.58h0c-.36-.81.3-1.86,1.55-2.22l-.83-.46-.82-.45C455.15,270.54,454.62,271.66,453.75,271.79Z" transform="translate(-198.97 -240.41)"/><path class="cls-26" d="M462.54,272.25h0a1.18,1.18,0,1,0,1.12-.68h0c-.88-.09-1.46-1.18-1.15-2.45l-.8.49-.81.49C462.17,270.41,462.87,271.43,462.54,272.25Z" transform="translate(-198.97 -240.41)"/><path class="cls-26" d="M467.34,264.86h0a1.18,1.18,0,0,0,1,.51,1.18,1.18,0,1,0-1-1.81h0c-.51.72-1.75.67-2.69-.23l0,.94,0,.94C465.56,264.27,466.79,264.17,467.34,264.86Z" transform="translate(-198.97 -240.41)"/><path class="cls-7" d="M459.94,259.35a1.39,1.39,0,1,1-1.39-1.39A1.39,1.39,0,0,1,459.94,259.35Z" transform="translate(-198.97 -240.41)"/><path class="cls-7" d="M457,261.6a.85.85,0,0,1,0,1.21.86.86,0,0,1-1.21-1.21A.85.85,0,0,1,457,261.6Z" transform="translate(-198.97 -240.41)"/><path class="cls-7" d="M453.5,263a1.39,1.39,0,1,1-1.39,1.39A1.39,1.39,0,0,1,453.5,263Z" transform="translate(-198.97 -240.41)"/><path class="cls-7" d="M455.74,266a.86.86,0,0,1,1.21,0,.86.86,0,1,1-1.21,1.21A.86.86,0,0,1,455.74,266Z" transform="translate(-198.97 -240.41)"/><path class="cls-7" d="M457.16,269.45a1.39,1.39,0,1,1,1.39,1.39A1.39,1.39,0,0,1,457.16,269.45Z" transform="translate(-198.97 -240.41)"/><circle class="cls-7" cx="261.77" cy="26.19" r="0.86"/><path class="cls-7" d="M463.6,265.79A1.39,1.39,0,1,1,465,264.4,1.39,1.39,0,0,1,463.6,265.79Z" transform="translate(-198.97 -240.41)"/><path class="cls-7" d="M461.35,262.81a.86.86,0,0,1-1.21,0,.86.86,0,0,1,1.21-1.21A.86.86,0,0,1,461.35,262.81Z" transform="translate(-198.97 -240.41)"/></g><g id="Doctor"><path class="cls-27" d="M472.81,428.22s3.88,47.76,4.43,48.42h16.9V428.22Z" transform="translate(-198.97 -240.41)"/><path class="cls-27" d="M517.12,428.22H486.79s7.35,20,8.15,21.32,4.78,27.1,4.78,27.1h17.4s0-21.72,0-23.11S518.88,433.3,517.12,428.22Z" transform="translate(-198.97 -240.41)"/><path class="cls-28" d="M495.26,358.3a15.46,15.46,0,0,0-8.73,3.65c-1.83,1.43-11.07,10.15-11.84,12.76s-1.75,56.9-.74,58.55,11.71,5.5,16.43,5.79,25.22-3.53,26.84-5,5.45-53.82,4.6-57-13.93-13.55-16.54-16.57C504.12,359.08,496.93,358.23,495.26,358.3Z" transform="translate(-198.97 -240.41)"/><path class="cls-29" d="M487.49,369.65a15.88,15.88,0,0,0,1.19,4.57c.37.42,3.32.63,3.67.38a17.62,17.62,0,0,0,2.07-4.36c.06-.66-2.36-3.56-3.38-3.72S487.51,369.21,487.49,369.65Z" transform="translate(-198.97 -240.41)"/><path class="cls-29" d="M488.68,374.22s-4.78,35-5.06,37.42,5.13,16.55,6,16.87,6-14.15,6.32-15.72-3.3-37.06-3.59-38.31C492.31,374.13,488.73,373.89,488.68,374.22Z" transform="translate(-198.97 -240.41)"/><path class="cls-7" d="M482.63,465.6c-.49,1.43-13.21-2.39-13.46-4.13s4.25-42.06,4.25-45.22-.48-38.08,1-42.11c.75-2.07,5.39-6.74,8.07-9.32,1.13-1.1,1.92-1.82,1.92-1.82-.44,1.7-2.09,24.52-1.67,40.06.13,5,.22,13,.26,21.72V425C483.1,443.41,483,464.63,482.63,465.6Z" transform="translate(-198.97 -240.41)"/><path class="cls-7" d="M476.46,386.31c-.1-1.61,5.44-8.13,5.44-8.13s-4.92.77-4.93-.3,4.48-10.75,5.54-13.06c1.13-1.1,2.73-2.37,2.73-2.37-.44,1.7-2.9,25.07-2.48,40.61.13,5,.22,13,.26,21.72C482.8,419.83,476.57,387.89,476.46,386.31Z" transform="translate(-198.97 -240.41)"/><path class="cls-29" d="M476.56,385.83c1.61-2.68,5.67-7.8,5.65-7.78s-4.7.18-5-.19,4-9.66,5.21-12.2a.05.05,0,1,0-.09-.05C480,369,476,378,476.83,378.29a23.9,23.9,0,0,0,4.45.26,48.29,48.29,0,0,0-5.27,7.38c-.1.31,1.92,12.33,3,18.09,1.15,6.21,2.11,13.3,3.55,19.44a.09.09,0,0,0,.18,0C482,417.26,477.79,392.66,476.56,385.83Z" transform="translate(-198.97 -240.41)"/><path class="cls-7" d="M523.92,461.6c-10.11,7.87-23.66,5.86-24.13,4.77-.28-.65-1.07-20.69-1.33-40.45v-.26c-.16-13.44-.11-26.72.52-33.62a165.38,165.38,0,0,1,6.18-31.63,6.13,6.13,0,0,1,1.31.92h0c3.87,3.11,14.73,13.11,14.62,15-.14,2.21-.68,31.26.19,43.91S525.33,460.5,523.92,461.6Z" transform="translate(-198.97 -240.41)"/><path class="cls-29" d="M518.46,436.93c-.05-.18-.48-.21-.56-.19-4.7.84-9.34,1.86-14.12,2.25a0,0,0,1,0,0,.07A58.52,58.52,0,0,0,518,437.17h0c.29,1,.54,2.1.75,3.17a68.77,68.77,0,0,1-13.08,1.89,0,0,0,1,0,0,.06,34.08,34.08,0,0,0,13.14-1.61,33.64,33.64,0,0,1,.6,6.42c0,1.17.25,3.9-.58,4.85-1,1.16-3.35,1.7-4.78,2a14.33,14.33,0,0,1-5.5,0,3.11,3.11,0,0,1-2.6-1.59c-.38-.72-1.69-9.26-2-12.62,0-.09-.15-.1-.15,0,.05,3.89.64,10.05,1.64,12.74s5.54,2.38,7.78,2.09c1.82-.24,4.23-.61,5.76-1.67,1-.7,1-1.43,1-2.67A40.91,40.91,0,0,0,518.46,436.93Z" transform="translate(-198.97 -240.41)"/><path class="cls-29" d="M513.41,394.34c-1.77-.15-9.13.27-11,.47-.11,0-.09.19,0,.19,1.88.06,10.15-.39,10.46-.25s.18,1.65,0,1.73c-.44.22-8.58.29-10.53.33-.33,0-.35.53,0,.52q5.49-.13,11-.42a.25.25,0,0,0,.26-.25A10.47,10.47,0,0,0,513.41,394.34Z" transform="translate(-198.97 -240.41)"/><path class="cls-7" d="M503.87,376.59c-.08.19,5.2,5.3,5.49,6s-7.1,20.67-8.66,26.7-2.24,16.59-2.24,16.59v-.26c-.16-13.44-.11-26.72.52-33.62a205.64,205.64,0,0,1,5.71-32.2c.11,0,1.05.91,1.78,1.49h0c.11.41,3.63,13.5,3.68,13.92S504,376.39,503.87,376.59Z" transform="translate(-198.97 -240.41)"/><path class="cls-29" d="M506.63,361.74c0-.13-.12-.1-.09,0a115.4,115.4,0,0,0,3.31,13.49c-2.1.35-6.08,1.17-6.15,1.26s1.6,2.25,2.49,3.17a31,31,0,0,0,3.05,3c-2.91,6.57-9.07,26.74-9.67,30.11a94.83,94.83,0,0,0-1.13,10.63,0,0,0,1,0,.06,0c.46-3.75.87-7.5,1.66-11.19.7-3.32,7.24-22.87,9.55-29.46.06-.17-4.84-5.28-5.72-6.15,2-.31,6.37-1,6.32-1.18C509,370.93,507.78,366.33,506.63,361.74Z" transform="translate(-198.97 -240.41)"/><path class="cls-7" d="M512.21,413a2.93,2.93,0,0,1-.34,1.62c-.46.25-2.44,1.2-5.11,2.28l-1.5.59c-1.47.55-6.79,3.28-12.76,6.15-8,3.84-17.11,7.93-19.75,7.49-4.6-.79-11.05-6.33-11.53-9.51s9.19-41,10.42-43.53a22,22,0,0,1,3.94-6.05l-2,41.57a4.3,4.3,0,0,1,.43-.18c1.49-.53,6.43-1.89,12.1-3.38,9.54-2.49,21.15-5.34,21.9-5.1a5.89,5.89,0,0,1,.77.31h0C511.74,406.76,512.31,410.76,512.21,413Z" transform="translate(-198.97 -240.41)"/><path class="cls-30" d="M472.44,396s0,0,0,0" transform="translate(-198.97 -240.41)"/><path class="cls-28" d="M506.76,416.93l-1.5.59c-1.47.55-6.79,3.28-12.76,6.15l-4-2.38c-3.27-1.89-6.62-3.69-9.8-5.7a7.57,7.57,0,0,1-.74-.52l-.56,0c-1,0-3.23-.05-3.36-1.34a.29.29,0,0,1,0-.09.19.19,0,0,1,0-.07.76.76,0,0,1,0-.14c1.49-.53,6.43-1.89,12.1-3.38a29.71,29.71,0,0,1,14.86,3.1A29,29,0,0,1,506.76,416.93Z" transform="translate(-198.97 -240.41)"/><path class="cls-29" d="M512.49,413.06a11.83,11.83,0,0,1-.14,1.26c0,.1-.12.25-.23.31-5.55,3.22-22.43,10.78-26.6,12.63-2.45,1.09-10.82,5.1-13.4,3.84-.05,0-.07-.08,0-.07h.07c2.35.36,11.36-3.38,20.21-7.43,1.48-.67,3-1.36,4.41-2l.14-.07c3-1.42,5.88-2.81,8.28-4h0l1.39-.68c3.22-1.58,5.31-2.64,5.31-2.64.15-2,.11-7.36-4.11-9-6.38,1.7-13.58,3.23-20,4.9l-.67.17c-3.37.89-6.75,1.78-10.12,2.7a12.15,12.15,0,0,0-3,1.15,7.75,7.75,0,0,0-1.63,1.2c-1.18,1.11-2.31,2.26-3.55,3.33-.07.06-.16,0-.1-.11a24.25,24.25,0,0,1,4.52-4.7c-.18-5.06-.28-10.13-.4-15.21a3.39,3.39,0,0,1-.46-1.22,12.13,12.13,0,0,1-.32-1.68c0-.11.13-.15.16,0,.12.52.29,1,.46,1.54,0,.12.09.23.14.35,0-2.11-.1-4.23-.17-6.34,0,0,0,0,0,0a127,127,0,0,1,1.05,17.59c0,1.58,0,3.15,0,4.71a7.4,7.4,0,0,1,1.54-.71c3.37-1.08,6.86-1.87,10.27-2.76,4-1.05,8.27-2.05,12.52-3l.29-.06,7.93-1.79,1.5-.34a4.06,4.06,0,0,1,1.12.46C510.43,406.08,512.84,408.16,512.49,413.06Z" transform="translate(-198.97 -240.41)"/><path class="cls-31" d="M484.45,408a13.72,13.72,0,0,0-3.11,3.41,11.22,11.22,0,0,0-1.59,3.05,5.3,5.3,0,0,1-1.31-.12,2.49,2.49,0,0,1-1.95-1.56l-2.51.72c-1.05-.43.27-2,.27-2,0-.65,1.15-1.45,1.15-1.45.15-.66,1.67-1.25,1.67-1.25a3.68,3.68,0,0,1,2.23-1A22.15,22.15,0,0,1,484.45,408Z" transform="translate(-198.97 -240.41)"/><path class="cls-7" d="M529.2,420c0,2-6.49,11.82-10.8,11.26-7.07-.89-37-15.53-38.43-15.86-.3-.08-.35-.42-.22-.93a11.22,11.22,0,0,1,1.59-3.05,13.72,13.72,0,0,1,3.11-3.41,3,3,0,0,1,.87-.44c1.91-.59,19.74,2.53,27.19,4,1.94.38,3.17.63,3.25.68a62.24,62.24,0,0,0,.36-6.58C516.53,394,517,371,517,371c2.23,2.28,6.76,6.71,7.59,8.27S529.18,418,529.2,420Z" transform="translate(-198.97 -240.41)"/><path class="cls-29" d="M520.79,414.72a22.18,22.18,0,0,0-4.33-2.47c1-.26,2.61.26,3.44.35.16,0,.18-.22,0-.27a8.81,8.81,0,0,0-2.83-.53,1.88,1.88,0,0,0-.87.18,110,110,0,0,0-.25-19.71c0-.11-.2-.09-.2,0,0,1.74,0,3.48,0,5.22-.18-.73-.39-1.45-.58-2.14a0,0,0,1,0-.06,0c.31,1.57.31,3.21.65,4.77,0,3.94,0,7.89,0,11.84-3.76-1.37-25.44-5.13-30.43-4.56a1.93,1.93,0,0,0-.9.42c-.12.09-.1.21,0,.18a2.71,2.71,0,0,1,1.13-.37c5.31,0,26.54,3.61,30.29,5a.24.24,0,0,0,.14.05,34.36,34.36,0,0,1,4.76,2.18C521,415,521,414.85,520.79,414.72Z" transform="translate(-198.97 -240.41)"/><path class="cls-29" d="M522,429.86a7,7,0,0,1-2.79,1.21c-1.48.25-5.52-1.33-8-2.25-3.77-1.4-7.42-3.1-11.05-4.82-3.29-1.55-6.59-3.08-9.92-4.53-1.74-.77-3.48-1.51-5.24-2.24-1.07-.44-4.49-1.65-5.11-2.08-.2-.13-.07-.55-.09-.76s-.12-.11-.14,0a4.29,4.29,0,0,0-.15.94.15.15,0,0,0,.1.15c8.18,3.42,16.17,7.19,24.22,10.89a87.39,87.39,0,0,0,10.71,4.25,12.37,12.37,0,0,0,4.74.94,4,4,0,0,0,2.83-1.57C522.2,429.88,522.08,429.8,522,429.86Z" transform="translate(-198.97 -240.41)"/><path class="cls-31" d="M522,411.24s.33.75.08,1.09a5.21,5.21,0,0,1-1.09.86s-4.42-.81-5.26-1c-.08-.05-1.31-.3-3.25-.68-.2-3.79-2.25-5.51-3.52-6.2.94,0,4.79.09,7.13.3a8.15,8.15,0,0,1,1.62.24c1.37.42,4.74,4.18,4.69,4.65A1.26,1.26,0,0,1,522,411.24Z" transform="translate(-198.97 -240.41)"/><path class="cls-29" d="M505.37,361.77c-.79-4.6-8.29-4.78-11.8-4.56-4.47.29-8.17,1.45-9.26,6.09s-.95,9.63-.66,14.31a.68.68,0,0,1-1.36.11c-.33-5.4-1.49-15.53,3.12-19.44s20-4.41,21.32,3.38c.14.87-1.21,1-1.36.11Z" transform="translate(-198.97 -240.41)"/><path class="cls-32" d="M480.05,380.47a3.13,3.13,0,1,0,2.88-3.36A3.14,3.14,0,0,0,480.05,380.47Z" transform="translate(-198.97 -240.41)"/><path class="cls-33" d="M481.3,380.38a1.88,1.88,0,1,0,1.73-2A1.88,1.88,0,0,0,481.3,380.38Z" transform="translate(-198.97 -240.41)"/><path class="cls-28" d="M504.21,377.06c-.26,13.52,1,16.5,2.43,17.7a8.76,8.76,0,0,0,3.56,1.69l.18-.94-.09.47.1-.47a7.85,7.85,0,0,1-3.14-1.47c-1-.87-2.34-3.58-2.09-17Z" transform="translate(-198.97 -240.41)"/><rect class="cls-32" x="509.45" y="394.37" width="2.02" height="3.29" rx="0.63" transform="translate(-205.14 543.54) rotate(-74.71)"/><path class="cls-28" d="M512.59,375.36c4.84,9,6.73,14.06,5.92,16a7.83,7.83,0,0,1-2.1,2.75l.58.74a8.61,8.61,0,0,0,2.4-3.13c1-2.35-.77-7.23-6-16.84Z" transform="translate(-198.97 -240.41)"/><rect class="cls-32" x="515.55" y="392.97" width="2.02" height="3.29" rx="0.63" transform="translate(376.85 801.54) rotate(-132.61)"/><path class="cls-32" d="M513.64,374.43a54.17,54.17,0,0,0-3.17-5.86,5.72,5.72,0,0,0-2.4-1.82,9.73,9.73,0,0,1-.72-2.95c-.2-1.18-.41-2.56-.78-2.87a.94.94,0,0,0-1.28.24c-.23.42.08,1.78.32,3s.58,3,.39,3a6.33,6.33,0,0,0-1.46,2.57,44.66,44.66,0,0,0-.68,6.79c0,1.43.52,1.49.95,1.53.6.05.86-.41.92-2,.11-2.55,0-6.78,1.67-7.18h0c1.7-.23,3.4,3.86,4.5,6.11.7,1.4,1.05,1.47,1.58,1.2S514.22,375.68,513.64,374.43Z" transform="translate(-198.97 -240.41)"/><path class="cls-28" d="M499.27,354.06c1.27.54,5.62,6.32,5.45,7.15s.39,11.35-9.23,15.44l-4.71-8.87-4.7,7.28s-2.72-5.8-2.63-7.25,1.21-8.65,6.81-12.24C494.47,352.88,496.63,352.94,499.27,354.06Z" transform="translate(-198.97 -240.41)"/><path class="cls-29" d="M504.58,361.1c-.49,5.75-3,13.24-9,15.22-1.64-2.83-3.32-5.59-4.72-8.54a.16.16,0,0,0-.25,0s-3.36,4.82-4.64,7.17a33.45,33.45,0,0,1-1.77-5.07,10,10,0,0,1,.32-6.51c0-.06-.07-.1-.1-.05a8.46,8.46,0,0,0-.86,5.84,27.92,27.92,0,0,0,2.19,6.1.14.14,0,0,0,.14.08.09.09,0,0,0,.12,0c1.65-2.26,3-4.72,4.66-7,1.42,2.94,3,5.76,4.62,8.38.08.13.35.06.38.05,6.22-2,9.12-9.57,9-15.62C504.66,361.06,504.59,361.06,504.58,361.1Z" transform="translate(-198.97 -240.41)"/><path class="cls-31" d="M485.53,347.36l.71,13.6v0l.1,1.91a6,6,0,0,0,4.82,4.67c4.11.73,10.34-4.77,10.83-5.8.25-.52.46-5.4.61-10,.13-4.43.22-8.64.22-8.64l-1.93.48Z" transform="translate(-198.97 -240.41)"/><path class="cls-34" d="M485.53,347.36l.71,13.6v0a26.51,26.51,0,0,0,12.45-5.43,25.26,25.26,0,0,0,3.91-3.82c.13-4.43.22-8.64.22-8.64l-1.93.48Z" transform="translate(-198.97 -240.41)"/><path class="cls-31" d="M505.37,324.09c2.85,6.42.34,22.49-4.54,27.94-3.35,3.74-10.62,4.9-16.05,2.7a10.39,10.39,0,0,1-5.69-5.16c-3.7-7.89-.35-26.8,3.61-29.77C489.67,314.54,501.89,316.24,505.37,324.09Z" transform="translate(-198.97 -240.41)"/><path class="cls-29" d="M492.63,338.57s.08.05.07.09c-.11,1-.07,2.17.81,2.57a0,0,0,0,1,0,.06C492.4,341,492.37,339.5,492.63,338.57Z" transform="translate(-198.97 -240.41)"/><path class="cls-29" d="M493.61,337.59c1.63,0,1.49,3.25,0,3.25S492.25,337.58,493.61,337.59Z" transform="translate(-198.97 -240.41)"/><path class="cls-29" d="M484.77,338s-.08.05-.08.09c0,1-.19,2.16-1.11,2.45,0,0,0,.06,0,.06C484.7,340.48,484.92,339,484.77,338Z" transform="translate(-198.97 -240.41)"/><path class="cls-29" d="M483.92,336.91c-1.62-.19-1.88,3-.38,3.22S485.27,337.06,483.92,336.91Z" transform="translate(-198.97 -240.41)"/><path class="cls-34" d="M491.23,347.64c-.25.22-.5.54-.87.55a2.57,2.57,0,0,1-1.07-.3,0,0,0,0,0,0,.05,1.32,1.32,0,0,0,1.25.6,1.07,1.07,0,0,0,.83-.85C491.35,347.63,491.27,347.6,491.23,347.64Z" transform="translate(-198.97 -240.41)"/><path class="cls-29" d="M495,336.16a11.08,11.08,0,0,1-1.24-.5,2.13,2.13,0,0,1-1.17-.74.7.7,0,0,1,.14-.83,1.7,1.7,0,0,1,1.73-.1,2.49,2.49,0,0,1,1.39,1.14A.73.73,0,0,1,495,336.16Z" transform="translate(-198.97 -240.41)"/><path class="cls-29" d="M482.73,335.22c.45-.06.86-.18,1.3-.28a2.27,2.27,0,0,0,1.28-.54.69.69,0,0,0,0-.84,1.68,1.68,0,0,0-1.68-.39,2.51,2.51,0,0,0-1.57.89A.74.74,0,0,0,482.73,335.22Z" transform="translate(-198.97 -240.41)"/><path class="cls-7" d="M487.7,345.33s.81,2.07,2.41,1.7c1.21-.27.63-2.72.63-2.72A5.24,5.24,0,0,1,487.7,345.33Z" transform="translate(-198.97 -240.41)"/><path class="cls-34" d="M490.83,344.41a3.45,3.45,0,0,1-2.35,1.43,4.22,4.22,0,0,1-1.23,0,.93.93,0,0,1-.24,0l-.22-.05a.26.26,0,0,1-.19-.23h0s0-.06,0-.1h0v-.08c0-.78.13-1.95.13-1.95-.28.13-1.75.72-1.71.31a51.23,51.23,0,0,1,1.75-10.31c0-.11.2-.08.18,0-.19,3.23-1,6.4-1.21,9.63a6,6,0,0,1,1.64-.42c.11,0-.28,2.26-.26,2.61a.1.1,0,0,0,0,0,4.73,4.73,0,0,0,3.59-1C490.82,344.26,490.89,344.33,490.83,344.41Z" transform="translate(-198.97 -240.41)"/><path class="cls-29" d="M482,324.29c-3.43,5.44-3.93,14.23-4.63,11.74-2.33-8.21,1.79-13,1.79-13S482.4,323.63,482,324.29Z" transform="translate(-198.97 -240.41)"/><path class="cls-29" d="M504.33,341.26s-6.21-1.23-4.4-14.45a21.73,21.73,0,0,1-11.42,1.5c-6.79-.85-10.46-3.73-12.6-8.4-.7-1.52,3,.63,4.59-.07,2.88-1.23,5.69-5,13.44-4.82s9.81,5.39,9.81,5.39,4.16,1.29,5.83,4.91S508.33,341.25,504.33,341.26Z" transform="translate(-198.97 -240.41)"/><path class="cls-31" d="M502.15,340.81s3.17-5.34,5.56-4.25.29,8.65-2.34,9.86a2.76,2.76,0,0,1-3.8-1.2Z" transform="translate(-198.97 -240.41)"/><path class="cls-34" d="M507.05,338.71c.05,0,.06.06,0,.07-1.83.92-2.7,2.75-3.26,4.62a1.52,1.52,0,0,1,2.24-.58c.05,0,0,.11-.05.1a1.68,1.68,0,0,0-1.81.73,8.51,8.51,0,0,0-.78,1.57c-.08.18-.39.11-.34-.09v0C502.85,342.67,504.48,339.15,507.05,338.71Z" transform="translate(-198.97 -240.41)"/><path class="cls-7" d="M498.47,353.16c2.73-1.22,5.49-2.63,7.27-5.22a14.55,14.55,0,0,0,2.62-6.21,10.84,10.84,0,0,1-1,2.56,7.91,7.91,0,0,1-1.8,2.19s0,0,0,0a15.37,15.37,0,0,1-7.16,6.21C498.07,352.81,498.2,353.28,498.47,353.16Z" transform="translate(-198.97 -240.41)"/><path class="cls-7" d="M501.33,342.65c.49-.61,2-3.75,3.37-4.92h0c.21-.21.43-.42.65-.6a3.26,3.26,0,0,1,1.25-.67,2.11,2.11,0,0,0-1.19-.1c-2.09.4-3.5,4.57-4.27,6.16C501.1,342.62,501.25,342.76,501.33,342.65Z" transform="translate(-198.97 -240.41)"/><path class="cls-7" d="M501.79,341.94c.35-.78-5.28,1.92-11.14.71-1.2-.24-4.55-1.59-6.41-1.59s-4.05,1.51-6.62,1.79c-.88.09-.12,7.71,2.13,11,.74,1.1,3.89,3.35,5.82,3.54,4.52.47,12.27-2.76,13.45-4.27C500,352,498.46,349.33,501.79,341.94Z" transform="translate(-198.97 -240.41)"/><path class="cls-28" d="M478.23,344.51a26.88,26.88,0,0,1,5.09-1.62,8,8,0,0,1,4.3.76,18.57,18.57,0,0,0,11.56.11c.05,0,.07.07,0,.08a15.32,15.32,0,0,1-9.67.81c-1.76-.41-3.52-1.36-5.34-1.24-2,.12-3.92,1.07-5.88,1.41C478.14,344.85,478.07,344.58,478.23,344.51Z" transform="translate(-198.97 -240.41)"/><path class="cls-28" d="M481.09,353.33a34.45,34.45,0,0,0,3.69,1.86c1.52.49,3.31,0,4.81-.36a87.35,87.35,0,0,0,8.32-2.79s0,0,0,0a36.53,36.53,0,0,1-9.58,3.35,7.53,7.53,0,0,1-3.43.15,15.8,15.8,0,0,1-3.84-2.18S481.05,353.31,481.09,353.33Z" transform="translate(-198.97 -240.41)"/><path class="cls-28" d="M479.2,347.08a19.66,19.66,0,0,1,8.5-.25,34,34,0,0,0,10-.19s.05.06,0,.06a29.17,29.17,0,0,1-8.89.47c-1.44-.15-2.87-.43-4.31-.53a17,17,0,0,0-5.24.62C479.14,347.29,479.1,347.11,479.2,347.08Z" transform="translate(-198.97 -240.41)"/><path class="cls-28" d="M479.88,350a14.23,14.23,0,0,0,8.44,1.85,38.85,38.85,0,0,0,8.74-2.39s.05.05,0,.06c-5.74,2.43-11.55,4.06-17.26.65C479.69,350.1,479.77,349.94,479.88,350Z" transform="translate(-198.97 -240.41)"/></g></g><circle class="cls-35" cx="99.76" cy="144.81" r="6.58"/><path class="cls-35" d="M300.34,375.6a1.61,1.61,0,0,0-3.21-.06,1.58,1.58,0,0,0,.49,1.22,2,2,0,0,1,.67,1.49v.54h.88v-.51a2.1,2.1,0,0,1,.67-1.52A1.59,1.59,0,0,0,300.34,375.6Z" transform="translate(-198.97 -240.41)"/><path class="cls-35" d="M293.06,377.28a1.6,1.6,0,0,0-2.31.05A1.6,1.6,0,0,0,292,380a2.11,2.11,0,0,1,1.53.58l.38.38.62-.61-.36-.36a2.15,2.15,0,0,1-.61-1.56A1.57,1.57,0,0,0,293.06,377.28Z" transform="translate(-198.97 -240.41)"/><path class="cls-35" d="M289.11,383.61a1.61,1.61,0,0,0-.05,3.21,1.56,1.56,0,0,0,1.21-.49,2.07,2.07,0,0,1,1.5-.67h.54v-.88h-.51a2.12,2.12,0,0,1-1.53-.67A1.58,1.58,0,0,0,289.11,383.61Z" transform="translate(-198.97 -240.41)"/><path class="cls-35" d="M290.79,390.89a1.6,1.6,0,0,0,0,2.31,1.64,1.64,0,0,0,2.19,0,1.58,1.58,0,0,0,.5-1.22,2.11,2.11,0,0,1,.58-1.53l.39-.38-.62-.62-.36.36a2.15,2.15,0,0,1-1.56.61A1.58,1.58,0,0,0,290.79,390.89Z" transform="translate(-198.97 -240.41)"/><path class="cls-35" d="M297.12,394.84a1.6,1.6,0,0,0,1.67,1.6,1.63,1.63,0,0,0,1.55-1.55,1.6,1.6,0,0,0-.5-1.21,2.09,2.09,0,0,1-.67-1.49v-.55h-.88v.51a2.12,2.12,0,0,1-.67,1.53A1.58,1.58,0,0,0,297.12,394.84Z" transform="translate(-198.97 -240.41)"/><path class="cls-35" d="M304.4,393.16a1.61,1.61,0,0,0,2.31-2.23,1.54,1.54,0,0,0-1.22-.51,2.07,2.07,0,0,1-1.52-.58l-.39-.39-.61.62.36.36a2.14,2.14,0,0,1,.6,1.56A1.62,1.62,0,0,0,304.4,393.16Z" transform="translate(-198.97 -240.41)"/><path class="cls-35" d="M308.35,386.83a1.62,1.62,0,0,0,1.61-1.67,1.61,1.61,0,0,0-2.77-1.05,2,2,0,0,1-1.49.67h-.54v.88h.51a2.1,2.1,0,0,1,1.52.67A1.59,1.59,0,0,0,308.35,386.83Z" transform="translate(-198.97 -240.41)"/><path class="cls-35" d="M306.67,379.55a1.6,1.6,0,0,0-.05-2.31,1.6,1.6,0,0,0-2.69,1.22,2.07,2.07,0,0,1-.58,1.52l-.38.39.61.61.36-.36a2.14,2.14,0,0,1,1.56-.6A1.61,1.61,0,0,0,306.67,379.55Z" transform="translate(-198.97 -240.41)"/><circle class="cls-36" cx="99.76" cy="144.81" r="4.82"/><path class="cls-36" d="M302.47,379.14a1.18,1.18,0,0,0-.69-1.55,1.19,1.19,0,0,0-1.48.63,1.15,1.15,0,0,0,0,1,1.49,1.49,0,0,1,0,1.19l-.15.37.59.24.14-.34a1.53,1.53,0,0,1,.88-.85A1.2,1.2,0,0,0,302.47,379.14Z" transform="translate(-198.97 -240.41)"/><path class="cls-36" d="M297.07,378.28a1.17,1.17,0,0,0-1.58-.61,1.18,1.18,0,0,0-.6,1.48,1.16,1.16,0,0,0,.69.68,1.5,1.5,0,0,1,.87.82l.16.36.58-.25-.14-.34a1.52,1.52,0,0,1,0-1.22A1.18,1.18,0,0,0,297.07,378.28Z" transform="translate(-198.97 -240.41)"/><path class="cls-36" d="M292.65,381.48a1.18,1.18,0,0,0-1.55.69,1.2,1.2,0,0,0,.63,1.48,1.15,1.15,0,0,0,1,0,1.52,1.52,0,0,1,1.2,0l.36.15.24-.59-.34-.14a1.56,1.56,0,0,1-.85-.88A1.17,1.17,0,0,0,292.65,381.48Z" transform="translate(-198.97 -240.41)"/><path class="cls-36" d="M291.79,386.88a1.18,1.18,0,0,0-.61,1.58,1.18,1.18,0,0,0,2.17-.08,1.47,1.47,0,0,1,.81-.88l.37-.16-.25-.58-.35.14a1.52,1.52,0,0,1-1.22,0A1.17,1.17,0,0,0,291.79,386.88Z" transform="translate(-198.97 -240.41)"/><path class="cls-36" d="M295,391.3a1.17,1.17,0,1,0,2.16,0,1.48,1.48,0,0,1-.05-1.2l.15-.36-.59-.24-.14.34a1.53,1.53,0,0,1-.88.85A1.15,1.15,0,0,0,295,391.3Z" transform="translate(-198.97 -240.41)"/><path class="cls-36" d="M300.39,392.16a1.18,1.18,0,0,0,2.18-.88,1.2,1.2,0,0,0-.68-.68,1.5,1.5,0,0,1-.88-.81l-.15-.37-.59.25.14.35a1.52,1.52,0,0,1,0,1.22A1.17,1.17,0,0,0,300.39,392.16Z" transform="translate(-198.97 -240.41)"/><path class="cls-36" d="M304.81,389a1.17,1.17,0,1,0,0-2.16,1.46,1.46,0,0,1-1.19,0l-.37-.15-.24.59.34.14a1.5,1.5,0,0,1,.85.88A1.15,1.15,0,0,0,304.81,389Z" transform="translate(-198.97 -240.41)"/><path class="cls-36" d="M305.67,383.56a1.17,1.17,0,1,0-1.55-1.5,1.51,1.51,0,0,1-.82.88l-.36.15.25.59.34-.14a1.52,1.52,0,0,1,1.22,0A1.18,1.18,0,0,0,305.67,383.56Z" transform="translate(-198.97 -240.41)"/><path class="cls-37" d="M299.71,382.58a1,1,0,1,1-1.95,0,1,1,0,0,1,1.95,0Z" transform="translate(-198.97 -240.41)"/><path class="cls-37" d="M296.1,384.24a1,1,0,1,1-1,1A1,1,0,0,1,296.1,384.24Z" transform="translate(-198.97 -240.41)"/><path class="cls-37" d="M297.76,387.85a1,1,0,0,1,1.95,0,1,1,0,1,1-1.95,0Z" transform="translate(-198.97 -240.41)"/><path class="cls-37" d="M301.37,386.19a1,1,0,1,1,1-1A1,1,0,0,1,301.37,386.19Z" transform="translate(-198.97 -240.41)"/><circle class="cls-24" cx="94.22" cy="180.3" r="11.29"/><path class="cls-24" d="M294.38,404.73h0a2.15,2.15,0,1,0-2.37,0h0c1.28,1,1.15,3.21-.53,4.89h3.42C293.23,407.94,293.09,405.7,294.38,404.73Z" transform="translate(-198.97 -240.41)"/><path class="cls-24" d="M280,411.69h0a2.14,2.14,0,1,0-3.21,2,2.18,2.18,0,0,0,2,.07h0c1.48-.63,3.35.6,4,2.89l.85-1.48.86-1.48C282.16,414.29,280.15,413.29,280,411.69Z" transform="translate(-198.97 -240.41)"/><path class="cls-24" d="M278.77,427.66h0a2.18,2.18,0,0,0-2,.07,2.14,2.14,0,1,0,3.21,2h0c.2-1.6,2.21-2.6,4.5-2l-.86-1.48-.85-1.48C282.12,427.05,280.25,428.29,278.77,427.66Z" transform="translate(-198.97 -240.41)"/><path class="cls-24" d="M292,436.68h0a2.15,2.15,0,1,0,2.37,0h0c-1.29-1-1.15-3.21.52-4.89h-3.42C293.16,433.47,293.29,435.71,292,436.68Z" transform="translate(-198.97 -240.41)"/><path class="cls-24" d="M306.43,429.72h0a2.15,2.15,0,0,0,4,.94,2.15,2.15,0,0,0-2.81-3h0c-1.48.63-3.36-.61-4-2.89l-.86,1.48-.85,1.48C304.23,427.12,306.24,428.12,306.43,429.72Z" transform="translate(-198.97 -240.41)"/><path class="cls-24" d="M307.62,413.75h0a2.14,2.14,0,1,0-1.19-2.06h0c-.19,1.6-2.2,2.6-4.49,2l.85,1.48.86,1.48C304.26,414.35,306.14,413.12,307.62,413.75Z" transform="translate(-198.97 -240.41)"/><circle class="cls-25" cx="94.22" cy="180.3" r="6.88"/><path class="cls-25" d="M288.47,410.15h0a2.14,2.14,0,1,0-3.78.12,2.18,2.18,0,0,0,1.72,1.07h0c1.6.19,2.61,2.2,2,4.49l1.48-.85,1.48-.86C289.08,413.51,287.84,411.63,288.47,410.15Z" transform="translate(-198.97 -240.41)"/><path class="cls-25" d="M281.69,419.52h0a2.15,2.15,0,1,0,0,2.37h0c1-1.28,3.21-1.15,4.89.52V419C284.9,420.67,282.66,420.8,281.69,419.52Z" transform="translate(-198.97 -240.41)"/><path class="cls-25" d="M286.41,430.07h0a2.18,2.18,0,0,0-1.72,1.07,2.15,2.15,0,1,0,3.78.12h0c-.63-1.48.61-3.36,2.9-4l-1.48-.86-1.48-.85C289,427.87,288,429.88,286.41,430.07Z" transform="translate(-198.97 -240.41)"/><path class="cls-25" d="M297.92,431.26h0a2.14,2.14,0,1,0,3.77-.12,2.17,2.17,0,0,0-1.72-1.07h0c-1.59-.19-2.6-2.2-2-4.49l-1.48.85-1.48.86C297.31,427.9,298.55,429.78,297.92,431.26Z" transform="translate(-198.97 -240.41)"/><path class="cls-25" d="M304.7,421.89h0a2.15,2.15,0,1,0,0-2.37h0c-1,1.28-3.22,1.15-4.89-.53v3.42C301.48,420.74,303.73,420.61,304.7,421.89Z" transform="translate(-198.97 -240.41)"/><path class="cls-25" d="M300,411.34h0a2.15,2.15,0,0,0,.94-4,2.14,2.14,0,0,0-3,2.81h0c.63,1.48-.61,3.36-2.9,4l1.48.86,1.48.85C297.37,413.54,298.38,411.53,300,411.34Z" transform="translate(-198.97 -240.41)"/><circle class="cls-7" cx="293.19" cy="420.7" r="3.64" transform="translate(-382.83 368.39) rotate(-76.65)"/></svg>