<svg id="Layer_1" data-name="Layer 1" xmlns="http://www.w3.org/2000/svg" viewBox="0 0 68 68"><defs><style>.cls-1{fill:#3988c0;}.cls-2{fill:none;stroke:#3988c0;stroke-miterlimit:10;}.cls-3{fill:#fff;}</style></defs><title>phoneicon</title><circle class="cls-1" cx="34" cy="34" r="26.25"/><circle class="cls-2" cx="34" cy="34" r="33.5"/><circle class="cls-1" cx="63.5" cy="34" r="1.62"/><circle class="cls-1" cx="4.5" cy="34" r="1.62"/><path class="cls-3" d="M444.47,385.22a5.67,5.67,0,0,0-1.3-.81c-.45-.22-3.76-1.84-4.38-2.06s-1.14-.41-1.68.39c-.41.61-1.61,2-2,2.46s-.53.41-1.14.11a22,22,0,0,1-5.08-3.11,18.85,18.85,0,0,1-3.51-4.34c-.28-.47-.09-.69.25-1s1.15-1.34,1.22-1.45a8.3,8.3,0,0,0,.41-.77,1.39,1.39,0,0,0,0-1.3c-.11-.21-1.81-4.29-2-4.68-.48-1.15-1-1.21-1.49-1.18-.24,0-2.49,0-3.21.81l-.12.13a7.13,7.13,0,0,0-2.16,5.28,8.29,8.29,0,0,0,.33,2.21,14.65,14.65,0,0,0,2.31,4.46s1.67,2.32,2.49,3.26a22.59,22.59,0,0,0,8.5,6.36c3.78,1.48,5.39,1.82,6.31,1.82.4,0,1.25-.21,1.43-.22,1.16-.11,3.9-1.54,4.48-3.15A5.14,5.14,0,0,0,444.47,385.22Z" transform="translate(-397.43 -345.61)"/></svg>