<svg id="Layer_1" data-name="Layer 1" xmlns="http://www.w3.org/2000/svg" viewBox="0 0 338.97 620.52"><defs><style>.cls-1,.cls-23{fill:#75b1bc;}.cls-2,.cls-21{fill:#004855;}.cls-3{fill:#fff;}.cls-4{fill:#fad4bf;}.cls-11,.cls-12,.cls-5{fill:none;}.cls-5{stroke:#fff;stroke-miterlimit:10;stroke-width:0.54px;}.cls-6{fill:#fdd6c1;}.cls-7{fill:#84abb6;}.cls-8{fill:#edc1a0;}.cls-9{fill:#f3d9c6;}.cls-10{fill:#fddac7;}.cls-11{stroke:#84abb6;stroke-width:0.57px;}.cls-11,.cls-12{stroke-linecap:round;stroke-linejoin:round;}.cls-12{stroke:#004855;stroke-width:1.08px;}.cls-13{fill:#c7e8eb;}.cls-14{fill:#fdddc9;}.cls-15{font-size:21px;}.cls-15,.cls-32,.cls-38{fill:#35393d;}.cls-15,.cls-23,.cls-32{font-family:SVN-ProductSansBold, SVN-Product Sans;font-weight:700;}.cls-16{letter-spacing:-0.01em;}.cls-17{letter-spacing:-0.01em;}.cls-18{letter-spacing:-0.02em;}.cls-19{letter-spacing:-0.01em;}.cls-20{letter-spacing:-0.01em;}.cls-21{font-size:33.54px;font-family:r0c0iLinotte-SemiBold, r0c0i Linotte;font-weight:600;}.cls-22{letter-spacing:-0.06em;}.cls-23{font-size:13.53px;letter-spacing:0.27em;}.cls-24{letter-spacing:0.3em;}.cls-25{letter-spacing:0.28em;}.cls-26{letter-spacing:0.29em;}.cls-27{letter-spacing:0.27em;}.cls-28{letter-spacing:0.3em;}.cls-29{letter-spacing:0.29em;}.cls-30{letter-spacing:0.27em;}.cls-31{letter-spacing:0.3em;}.cls-32{font-size:17.85px;}.cls-33{letter-spacing:-0.01em;}.cls-34{letter-spacing:-0.01em;}.cls-35{letter-spacing:-0.04em;}.cls-36{letter-spacing:-0.06em;}.cls-37{letter-spacing:-0.08em;}.cls-38{font-size:10.82px;font-family:SVN-ProductSans, SVN-Product Sans;}.cls-39{letter-spacing:-0.01em;}.cls-40{letter-spacing:-0.02em;}.cls-41{letter-spacing:0em;}.cls-42{letter-spacing:-0.02em;}.cls-43{letter-spacing:-0.06em;}.cls-44{letter-spacing:-0.06em;}.cls-45{letter-spacing:-0.04em;}.cls-46{letter-spacing:-0.07em;}.cls-47{letter-spacing:-0.01em;}.cls-48{letter-spacing:0em;}.cls-49{letter-spacing:-0.02em;}.cls-50{letter-spacing:-0.01em;}.cls-51{letter-spacing:-0.02em;}.cls-52{letter-spacing:-0.03em;}.cls-53{letter-spacing:0em;}.cls-54{letter-spacing:-0.02em;}</style></defs><title>prevent</title><g id="Graphic_Elements" data-name="Graphic Elements"><circle class="cls-1" cx="254.9" cy="505.5" r="53.69"/><path class="cls-2" d="M431.43,605.6a63.83,63.83,0,0,1,3.42,17.51c.22,7.44-2.34,15.38-8.33,19.8-4.61,3.4-10.57,4.31-16.28,4.79-5.21.43-10.56.58-15.57-.92S385,641.85,383.15,637c-1.2-3.18-1.13-6.69-1-10.1.49-10.83.64-22,1.69-32.69.73-7.39,3-18.63,11.23-21.26,9.83-8.59,23.24-4.1,28.65,9.53a31.17,31.17,0,0,1,1.15,3.46C426.69,592.53,429.32,599,431.43,605.6Z" transform="translate(-151.17 -87.28)"/><path class="cls-3" d="M446,644c-1.68-8,.2-13.2-7.89-17.74-8.82-4.95-18.8-5.75-28.7-5.91-11.11-.18-22.88.33-33.38,4.3a21.4,21.4,0,0,0-7.61,4.54c-4.47,4.46-4.88,7.06-5.62,13.33A38.66,38.66,0,0,0,378,647.42C400.48,650.48,423.75,648.79,446,644Z" transform="translate(-151.17 -87.28)"/><path class="cls-4" d="M404.37,603.21a45.09,45.09,0,0,1,4.61,3.14,7.4,7.4,0,0,1,2.27,2.49,8.22,8.22,0,0,1,.58,3.2c.13,3,1.14,7.1,4.57,8.06a13.68,13.68,0,0,1,1.56.39,1.37,1.37,0,0,1,.93,1.19c0,1.54-3.73,3.72-4.9,4.32a10.81,10.81,0,0,1-7.25.87l-6.26-1.07c-2.53-.43-5.3-1-6.85-3a1.94,1.94,0,0,1-.44-1.91,2.44,2.44,0,0,1,.94-.89c4.66-3,5.77-4.54,7.43-9.49C401.73,610,404.15,603.1,404.37,603.21Z" transform="translate(-151.17 -87.28)"/><path class="cls-4" d="M420.22,584c0-6.17-7.45-9.23-14.86-9.19s-14.86,3-14.86,9.19c0,0-1.77,18.25,8.18,28.19a9,9,0,0,0,13.33,0C422,602.22,420.22,584,420.22,584Z" transform="translate(-151.17 -87.28)"/><path class="cls-4" d="M386.85,593.73c1-4.25,5-1.46,5-1.46l1.26,9.84C390.41,602.61,385.62,598.8,386.85,593.73Z" transform="translate(-151.17 -87.28)"/><path class="cls-4" d="M423.86,593.74c-1-4.25-5-1.47-5-1.47l-1.27,9.84C420.29,602.61,425.08,598.81,423.86,593.74Z" transform="translate(-151.17 -87.28)"/><path class="cls-5" d="M390.56,591.59a27.62,27.62,0,0,1,1.64,8" transform="translate(-151.17 -87.28)"/><path class="cls-5" d="M418.5,599.63a27.74,27.74,0,0,1,1.65-8" transform="translate(-151.17 -87.28)"/><path class="cls-3" d="M419.07,598.69c-.4,3.91-.95,9.83-1.5,9.83-2.29.79-3.53,2.64-5.42,4.34a10.19,10.19,0,0,1-13.6,0c-1.89-1.7-3.13-3.55-5.42-4.33-.55,0-1.09-5.93-1.49-9.84a47.39,47.39,0,0,1,10.12-4.54,12.75,12.75,0,0,1,7.19,0A47.75,47.75,0,0,1,419.07,598.69Z" transform="translate(-151.17 -87.28)"/><path class="cls-2" d="M420.15,591.62C414,579.1,401.54,582.24,400,573.87,411.4,566.08,427.61,578.4,420.15,591.62Z" transform="translate(-151.17 -87.28)"/><path class="cls-2" d="M405.69,574.76" transform="translate(-151.17 -87.28)"/><path class="cls-2" d="M390.56,591.61c4.31-4,3.65-12.11,12.76-15.53C393.52,570.34,384.42,584.25,390.56,591.61Z" transform="translate(-151.17 -87.28)"/><path class="cls-1" d="M388.5,626.11c1.57,1.19,3.71,1.1,5.65,1.42,3.66.6,6.87,2.8,10.47,3.7A15.1,15.1,0,0,0,422.7,621a7.08,7.08,0,0,0,.29-3.67,3.53,3.53,0,0,0-2.33-2.66c-1.4-.39-2.83.36-4.17.94A19.88,19.88,0,0,1,406,617c-3.4-.45-6.59-3-9.91-3.08C391.23,613.77,382.94,621.85,388.5,626.11Z" transform="translate(-151.17 -87.28)"/><path class="cls-1" d="M412.77,615.74a5.11,5.11,0,0,1,4.6,1.92,7.76,7.76,0,0,1,1,3.14q1.39,8.6,2.78,17.19c.27,1.67.53,3.46-.17,5a5.87,5.87,0,0,1-4,3,17.54,17.54,0,0,1-5.12.33c-2-.08-4.26-.27-5.51-1.83a6.79,6.79,0,0,1-1.05-4.17,77.56,77.56,0,0,1,1.29-15.66C407.45,620.25,407.43,616.09,412.77,615.74Z" transform="translate(-151.17 -87.28)"/><path class="cls-3" d="M448.76,567.31l-8.12-3.65-30.26-13.6a10.53,10.53,0,0,0-8.62,0l-30.26,13.6-8.12,3.65a3.65,3.65,0,0,0-1.95,3.38c0,2.51,2.08,4.25,4,3.37l3.53-1.59v44.11a2.54,2.54,0,1,0,5,0V570.23l28.83-13a7.87,7.87,0,0,1,6.48,0l28.83,13v46.35a2.54,2.54,0,1,0,5,0V572.47l3.53,1.59c2,.88,4-.86,4-3.37A3.65,3.65,0,0,0,448.76,567.31Z" transform="translate(-151.17 -87.28)"/><circle class="cls-1" cx="215.58" cy="251.44" r="53.69" transform="translate(-265.83 138.81) rotate(-45)"/><path class="cls-2" d="M252,233.54a6.81,6.81,0,0,1-2.2,3c-8.34,7.74-18,15.78-29.31,15.75-6.94,0-18.1-2.22-22.94-7.52l-5.43-5.93c-2.17-2.37-4.48-5.14-4.24-8.35.28-3.66,3-6.78,4.35-10.1,1.53-3.85,2.12-8.05,3-12.08a34.82,34.82,0,0,1,6.33-13.53c2.9-3.7,6-4.14,9.49-6.51,13.1-8.68,28.35-1.15,32.61,16a35.93,35.93,0,0,1,.81,4.32c.79,7.87,3.2,14.07,6.7,21.09a6.17,6.17,0,0,1,.93,3.48C252.1,233.29,252.07,233.42,252,233.54Z" transform="translate(-151.17 -87.28)"/><path class="cls-3" d="M188.7,301.52q-1.74-13.49-3.49-27c-1-7.38-1.37-15.64-3.6-22.68-1.64-5,14.93-8.14,17.88-9.07,5-1.6,10.09-3.2,15.32-3.76,11.18-1.2,22.29,2.4,32.68,6.69a4.81,4.81,0,0,1,2.65,1.93,4.76,4.76,0,0,1,.27,2.46c-.8,12.21-1.58,24.32-2.53,36.52-.22,2.77-.53,21.13-5.22,21.14l-51.88,1Z" transform="translate(-151.17 -87.28)"/><path class="cls-6" d="M168.14,304a9.92,9.92,0,0,1-6.26-1.75c-12.39-8.06.45-16.92,4.27-22.36L175,267.32s5.82,3.95,6.19,4.3c3.28,3,1.44,6.13.52,9.47a66.44,66.44,0,0,1-9,19.45,7.29,7.29,0,0,1-3.57,3.2A5.5,5.5,0,0,1,168.14,304Z" transform="translate(-151.17 -87.28)"/><path class="cls-3" d="M183.63,280.88c-.07.2-.13.41-.2.61a15.78,15.78,0,0,1-5.57-.9,33,33,0,0,1-5.59-2.68c-.89-.55-8.4-3.62-8.69-3l7.34-14.68a31.24,31.24,0,0,1,2.73-4.73c2.69-3.58,6.77-5.78,10.72-7.86,6.13-3.24,10.2,4.87,8.81,10.35-1,4-3.7,7-5.2,10.72C186.37,272.65,185,276.79,183.63,280.88Z" transform="translate(-151.17 -87.28)"/><path class="cls-6" d="M208,239.12a6,6,0,0,1-1.5,1.48c-.24.16-.53.35-.55.65s.21.49.42.68c2,1.7,7.4,10.16,10.21,9.5a3.22,3.22,0,0,0,1.62-1.24l5.89-7a1,1,0,0,0,.34-.77,1,1,0,0,0-.47-.6c-5-3.78-4.13-11-5.32-16.85-.65-3.2-1.49-7.53-4.91-5-2.12,1.56-2.62,7-3.13,9.32C209.9,232.24,209.85,236.46,208,239.12Z" transform="translate(-151.17 -87.28)"/><path class="cls-4" d="M238.87,208.47c1.47-7.29-6.58-12.71-15.31-14.44s-18.24,0-19.72,7.3c0,0-6.45,21.15,2.9,35.3a10.84,10.84,0,0,0,15.71,3.2C236.57,230.48,238.87,208.47,238.87,208.47Z" transform="translate(-151.17 -87.28)"/><path class="cls-4" d="M197.21,212c2.22-4.77,6.27-.53,6.27-.53l-.87,11.94C199.28,223.36,194.54,217.71,197.21,212Z" transform="translate(-151.17 -87.28)"/><path class="cls-4" d="M240.82,220.91c-.2-5.27-5.57-2.94-5.57-2.94l-3.85,11.32C234.49,230.54,241.05,227.2,240.82,220.91Z" transform="translate(-151.17 -87.28)"/><path class="cls-2" d="M200.52,211.66c6-3.64,7.2-13.44,18.75-15.29C209.1,187.23,195.05,201.49,200.52,211.66Z" transform="translate(-151.17 -87.28)"/><path class="cls-7" d="M236.27,222.62c-.88,4.83-2.14,12.15-2.84,12.11-3,.79-4.76,3-7.33,5a13.29,13.29,0,0,1-17.36-1.09c-2.25-2.27-3.65-4.67-6.5-5.83-.7,0-.83-7.45-1-12.35a62.39,62.39,0,0,1,13.35-4.82,16.55,16.55,0,0,1,9.17.57A61,61,0,0,1,236.27,222.62Z" transform="translate(-151.17 -87.28)"/><path class="cls-6" d="M271.6,294.27a21.59,21.59,0,0,0-1.52-7.52l-2.79-8.38c-1.13-3.38-2.54-7.11-5.42-8.46-1.91-.9-4.05-.53-6.08-.14-2.21.42-4.85,1.24-5.5,3.75a8.18,8.18,0,0,0,.54,4.46q1.83,5.81,3.68,11.59c1.17,3.71,2.46,7.6,5.09,10.06A7.23,7.23,0,0,0,271.6,294.27Z" transform="translate(-151.17 -87.28)"/><path class="cls-2" d="M232.35,192a21.78,21.78,0,0,0-11.3-4.33c-4.31-.18-15.58,2.5-14.57,8.17a6.45,6.45,0,0,0,3.17,4c3.62,2.33,7.59,4.32,10.94,6.88a51.82,51.82,0,0,0,11.56,7.1c2,.86,4.54,1.56,6.68.52,3.32-1.62,1.93-9.2,1.15-12.18C239,198.32,236,194.69,232.35,192Z" transform="translate(-151.17 -87.28)"/><path class="cls-3" d="M249.37,276.45a1.33,1.33,0,0,0,.61-.1c3-1.17,6-2.27,9-3.54,2.65-1.14,5.56-1.4,8.13-2.7l-8.24-14.2a31,31,0,0,0-3-4.55c-2.9-3.4-7.11-5.34-11.19-7.18-6.32-2.84-9.88,5.51-8.14,10.89,1.4,4.35,5.09,8.87,7.38,12.85C244.8,269.58,246.91,276.3,249.37,276.45Z" transform="translate(-151.17 -87.28)"/><path class="cls-6" d="M248.11,261.88c.23-1.26,7.24-4,8.54-4.43,2.23-.69,13.89,30.57,15.38,33.9a12,12,0,0,1,1.41,5.22c-.18,4.52-6.08,6.5-10,6.45-5.69-.08-5.5-3-6.63-7.36q-1.78-6.89-3.56-13.77Q250.7,271.89,248.11,261.88Z" transform="translate(-151.17 -87.28)"/><path class="cls-7" d="M209.82,226c-2.56,2.23-8.07,7.12-11.93,5.26-4.17-2-1.6-10-.68-13.09a.67.67,0,0,0-1.3-.36c-1.13,3.81-3.58,12.06,1.22,14.59,4.55,2.4,10.54-2.75,13.65-5.44.66-.57-.3-1.52-1-1Z" transform="translate(-151.17 -87.28)"/><path class="cls-7" d="M236.31,222.26c1.61-2.59,4.51-3.4,6.91-1.46,1.63,1.31,3.78,3.43,3.57,5.69-.09.86,1.27.86,1.35,0,.28-3-2.79-6.15-5.18-7.54-2.88-1.69-6.21,0-7.82,2.63-.46.74.71,1.42,1.17.68Z" transform="translate(-151.17 -87.28)"/><path class="cls-7" d="M232.33,231.22c.81,3.15,4.68,4.8,7.7,4.79a7.31,7.31,0,0,0,7.42-5.95c.14-.85-1.16-1.22-1.3-.36a6,6,0,0,1-6.12,5c-2.4,0-5.74-1.28-6.39-3.8a.68.68,0,0,0-1.31.36Z" transform="translate(-151.17 -87.28)"/><path class="cls-6" d="M172.05,262.08a7.87,7.87,0,0,1-.26-1.45c-.09-1.13.62-1.94,1.13-2.91l2.94-5.69q1.89-3.65,3.77-7.29c0-1.56,0-3.11,0-4.67l-.06-7.79c0-.39,0-.79,0-1.18,0-.15,0-.3,0-.45.06-1.24,1.39-2.33,2.15-3.2l2.72-3.15a11.36,11.36,0,0,1,.77-.92,4.08,4.08,0,0,1,.92-.55c.57-.32,1.16-.6,1.74-.9,1.29-.65,2.59-1.32,3.93-1.88a4.63,4.63,0,0,1,.74-.26c1.2-.29.79,2.61-1.11,3.78s-4.26,2-5.39,3.88-2.47,4.1-2.47,4.1c1.47-1.48,2.94-3,4.4-4.43l.71-.7a15.17,15.17,0,0,1,2.61-1.95c1.25-.83,2.52-1.64,3.81-2.4,2.92-1.72,3.47-.7,2.28,1s-6.11,5.5-6.18,5.55a6,6,0,0,0-1.11,1.7c-.4.6-.8,1.21-1.19,1.82a15.17,15.17,0,0,1-1.47,2.24l6.62-6.93s4.18-4.21,5.58-3.72-4.14,6.85-4.14,6.85l-4.31,5.83c0-.06.12-.11.18-.17a75.45,75.45,0,0,0,5.56-5.61l1.16-1.36s1.22-1.36,1.41,0-1.69,4.69-2.12,5.55-3.14,4.09-3.66,5.83S192,248,190,249.36l-2.05,1.37c-1.14,3.7-1.95,7.5-3.31,11.13-.53,1.41-1,3.66-2.32,4.51-1.53.93-4.26.65-5.88.2A6.39,6.39,0,0,1,172.05,262.08Z" transform="translate(-151.17 -87.28)"/><path class="cls-6" d="M260.64,266.54a6.43,6.43,0,0,0,.36-1.37c.16-1.07-.47-1.9-.88-2.86l-2.41-5.64c-1-2.41-2.07-4.81-3.1-7.22.12-1.49.25-3,.37-4.46l.6-7.43c0-.38.07-.75.1-1.13,0-.14,0-.29,0-.43,0-1.19-1.17-2.32-1.83-3.2l-2.37-3.2a10.72,10.72,0,0,0-.68-.94,4.27,4.27,0,0,0-.83-.58c-.52-.35-1.07-.66-1.61-1-1.19-.72-2.38-1.45-3.62-2.07a5.24,5.24,0,0,0-.68-.31c-1.13-.36-.94,2.45.79,3.69s3.93,2.19,4.88,4.09,2.07,4.08,2.07,4.08l-3.89-4.53-.63-.73a15.78,15.78,0,0,0-2.35-2c-1.14-.88-2.3-1.74-3.48-2.56-2.66-1.85-3.27-.9-2.24.78s5.45,5.68,5.51,5.73a5.55,5.55,0,0,1,.94,1.7l1,1.82A14,14,0,0,0,248,239l-5.84-7.08s-3.7-4.31-5.07-3.93,3.48,6.82,3.48,6.82l3.7,5.88a1.3,1.3,0,0,0-.15-.18,74.62,74.62,0,0,1-4.92-5.75l-1-1.38s-1.07-1.39-1.34-.13,1.29,4.61,1.64,5.45,2.71,4.13,3.09,5.83,1,7.16,2.9,8.62l1.86,1.45c.84,3.61,1.35,7.3,2.39,10.86.41,1.38.65,3.56,1.9,4.46,1.4,1,4,.93,5.6.61A6.09,6.09,0,0,0,260.64,266.54Z" transform="translate(-151.17 -87.28)"/><path class="cls-7" d="M202.1,220.36a45.73,45.73,0,0,1-1.25-9.32c-.06-.87-1.41-.87-1.36,0a48.59,48.59,0,0,0,1.31,9.68.67.67,0,0,0,1.3-.36Z" transform="translate(-151.17 -87.28)"/><path class="cls-6" d="M169.52,301a8.56,8.56,0,0,1-6.77,0c-13.64-5.73-.35-20.93,3.47-28.9q4.4-9.19,8.81-18.39s6.41,2.91,6.82,3.21c3.66,2.63,1.84,7.05,1,11.46a113.44,113.44,0,0,1-8.63,26.91,12.32,12.32,0,0,1-3.65,5.13A6.34,6.34,0,0,1,169.52,301Z" transform="translate(-151.17 -87.28)"/><circle class="cls-1" cx="215.58" cy="417.78" r="53.69" transform="translate(-215.31 -47.35) rotate(-9.22)"/><path class="cls-8" d="M179.42,395.13a69.88,69.88,0,0,0-9.45,3.06,1.3,1.3,0,0,0-.57,1.32,2,2,0,0,0,.69,1.18c1.78,1.68,4.57,1.48,7,1.06s4.52-.87,6.75-1.44,4.24-.26,6.6.07q7.26,1,14.42,2.63a100.58,100.58,0,0,0-33.2.79c-1.15.2-2.54.67-2.73,1.82a2,2,0,0,0,1.22,2,5.89,5.89,0,0,0,2.43.4l12.43.25c6.12.12,12.32,2.6,18.44,2.83-9.77-.71-19.8-1.6-29.58-1.11a2.75,2.75,0,0,0-2.11.72,1.84,1.84,0,0,0-.13,1.87c.63,1.41,2.3,2,3.79,2.3a93.58,93.58,0,0,0,12.83,1.64l14.15,1.16c-5.78-.47-11.24-.21-15.84,3.86a2.36,2.36,0,0,0-.85,1.2c-.23,1.05.9,1.9,1.95,2.14,3.29.73,6.45-1.62,9.8-2,1.88-.2,3.63.34,5.49.5,1.54.14,3.06.05,4.61.34,3.26.59,6.32,1.94,9.44,3a22.47,22.47,0,0,0,8.73,1.46c2.59-.19,4.69-1.44,7.06-2.35,4.47-1.71,7.86-.2,12.24,1.19q7,2.2,13.81,4.83a8.23,8.23,0,0,0,2.41.66c4.09.27,8.81-3.95,10.39-7.4,2.41-5.27,2.76-12.51-1-17.24a2.7,2.7,0,0,0-.83-.75,2.91,2.91,0,0,0-1-.22c-4.87-.46-9.76-.38-14.64-.65s-9.49-1.27-14.28-1.92a3.36,3.36,0,0,1-1.08-.27,3.48,3.48,0,0,1-.87-.71c-3.56-3.62-6.79-7.15-11.17-9.78-8-4.8-16.71-6.81-25.72-8.77a2.36,2.36,0,0,0-2.15.23,1.92,1.92,0,0,0-.38,1.76c.76,4.35,5.23,5.35,8.71,6.64.83.31,1.86.71,2.17,1.61-1.36-.21-2.86.1-4.2-.05l-1.81-.2c-1.21-.14-2.42-.26-3.63-.37-2.41-.23-4.84-.4-7.26-.45A52.46,52.46,0,0,0,179.42,395.13Z" transform="translate(-151.17 -87.28)"/><path class="cls-9" d="M236.44,446.27c-2.45-.31-4.92-.52-7.35-.82l-12.88-1.56a17.21,17.21,0,0,1-2.75-.48,33.57,33.57,0,0,1-4.75-2.12c-1.61-.77-3.28-1.42-4.94-2.1-4.45-1.84-7.6-5.51-11.25-8.58a6.22,6.22,0,0,1-1.72-1.93,1.6,1.6,0,0,1,.15-1.85,1.84,1.84,0,0,1,1.36-.33c3.41.19,6.17,3.47,8.67,5.53l1,.31,4.7,1.52,2.28.75a6.91,6.91,0,0,0,1,.27c.23,0,.54.11.68,0s.24-.69.34-.64c-1.56-.73-3.11-1.51-4.66-2.26l-3.86-1.88a10.22,10.22,0,0,1-1.79-.87c-.09-.07-3.32-2.61-10.47-8.7-1.27-1.08-4.74-3.59-4.69-5.57.07-3.14,4.13-.56,5.23.14,1.65,1,3.25,2.15,4.85,3.27q3.3,2.33,6.53,4.76l4.13,1.74,4.16,1.76,1.45.61c.22.1.85.43,1,.35a.26.26,0,0,0,.1-.13,1.44,1.44,0,0,1,.36-.48c-1.51-1-3.26-1.74-4.86-2.58l-5.75-3c-2.93-1.94-5.78-4-8.5-6.23a32.69,32.69,0,0,1-5.58-5.32c-.68-.89-1.11-1.74-.32-2.72,1-1.23,2.11-.48,3.23.1,1.46.74,2.88,1.54,4.3,2.35q2.94,1.68,5.84,3.44l14.49,6.78.21-.86s-9.46-6.1-18.47-10.85c-1.58-.84-8.33-3.55-7.2-6.16,1.24-2.89,12.43,2.76,14.6,3.76l1.13.61,7.73,4.22,3.62,2a8,8,0,0,0,1.29.56,6,6,0,0,1,1.13.51c.12.06,1,.3,1,.31-2-2.65-5.36-3.75-7.44-6.29a6.31,6.31,0,0,1-1.08-5.63,1.59,1.59,0,0,1,1.07-1.13c1-.24,2.62,1.52,3.42,2,1.37.9,2.8,1.71,4.25,2.48,2.72,1.46,5.52,2.79,8.18,4.36a21,21,0,0,1,3.64,2.58,26.73,26.73,0,0,1,3,3.57c1.54,2,2.82,4.26,4.28,6.36,1.23,1.78,2,3.82,3.41,5.46s3.62,2.59,5.5,3.63q9.23,5.13,18.59,10c3.12,1.63,6.89,2.34,9.39,4.82,1.54,1.53,1.95,8.52-1.62,13.22-3.83,5.07-9.38,7.38-12.7,6.24-4-1.38-6.12-6-9.28-8.82-2-1.82-4.07-3.57-6.17-5.27-1.73-1.41-3.2-3.24-5.27-4.17C240.7,446.53,238.26,446.51,236.44,446.27Z" transform="translate(-151.17 -87.28)"/><circle class="cls-3" cx="72.96" cy="291.67" r="7.52"/><circle class="cls-3" cx="232.48" cy="387.68" r="5.51" transform="translate(-357.21 190.66) rotate(-45)"/><circle class="cls-3" cx="242.72" cy="419.62" r="6.19" transform="translate(-375.44 462.39) rotate(-75.52)"/><circle class="cls-3" cx="82.33" cy="323.81" r="4.48"/><circle class="cls-1" cx="64.41" cy="505.5" r="53.69"/><path class="cls-2" d="M234.82,539.29c-10.44-12.95-26.63-10.3-35.17,2.14a70.35,70.35,0,0,1-13.8,15C174.46,565.66,171.58,586.82,197,591a127.56,127.56,0,0,1,15.06,3.41c9.48,2.76,22.79,3.5,25.62-11.17,1-5.34,1.93-10.69,3.4-15.93C243.76,557.64,245.39,544.35,234.82,539.29Z" transform="translate(-151.17 -87.28)"/><path class="cls-6" d="M189,643.9c1.66-2.78,2.31-6,2.92-9.1Q193,629.42,194,624c.86-4.35,1.63-9.24-.56-12.36-1.45-2.06-3.9-2.88-6.24-3.61-2.56-.81-5.79-1.41-8,1a10.86,10.86,0,0,0-2.12,5.19L174,629c-1,4.72-2,9.71-.73,13.92C175.24,649.47,184.69,651.08,189,643.9Z" transform="translate(-151.17 -87.28)"/><path class="cls-3" d="M194.79,624.22a1.72,1.72,0,0,1-.65.15c-3.47.12-7,.33-10.44.36-3.15,0-7.89.92-11,.78q.75-7.69,1.52-15.4c.17-1.71,1.55-4.44,2.07-6.09,1.28-4,5.08-6.34,8.23-9.47,4.9-4.88,12.28,1,13.07,6.29.64,4.29-.9,9.6-1.3,13.91C196.1,616.54,197.14,623.15,194.79,624.22Z" transform="translate(-151.17 -87.28)"/><path class="cls-3" d="M192.07,641q-1.26-12.37-2.51-24.77c-.69-6.77-.85-14.35-2.73-20.85-1.37-4.61,13.92-7.05,16.65-7.83a71.94,71.94,0,0,1,14.16-3c10.28-.81,20.39,2.76,29.81,7a4.37,4.37,0,0,1,2.38,1.83,4.43,4.43,0,0,1,.19,2.26c-1.05,11.14-2.07,22.21-3.27,33.34-.27,2.53-1,19.32-5.32,19.2l-47.64-.38Z" transform="translate(-151.17 -87.28)"/><path class="cls-6" d="M211.35,584.39c-1.72,2.45-5.28,2.92-3.08,6.88a7.62,7.62,0,0,0,4.12,3.24A13.24,13.24,0,0,0,226.62,591h0c2.2-2.47-2.49-5.38-3.51-7.75-1.52-3.55-1-7.83-1.64-11.57-.52-2.94-1.17-6.92-4.38-4.72-2,1.37-2.58,6.33-3.11,8.45-.75,3-.79,6.27-2.6,8.92Z" transform="translate(-151.17 -87.28)"/><path class="cls-4" d="M240.49,557.14c1.54-6.63-5.7-11.79-13.68-13.6s-16.73-.47-18.27,6.16c0,0-6.47,19.19,1.75,32.37a10,10,0,0,0,14.33,3.34C237.82,577.21,240.49,557.14,240.49,557.14Z" transform="translate(-151.17 -87.28)"/><path class="cls-4" d="M202.17,559.3c2.17-4.31,5.77-.32,5.77-.32l-1.11,10.9C203.78,569.74,199.58,564.45,202.17,559.3Z" transform="translate(-151.17 -87.28)"/><path class="cls-10" d="M266.25,632a24.89,24.89,0,0,0-1.38-8.38q-1.33-4.68-2.68-9.36c-1.08-3.78-2.45-8-5.44-9.54-2-1-4.25-.69-6.4-.33-2.35.4-5.15,1.23-5.91,4a9.54,9.54,0,0,0,.42,5q1.75,6.48,3.52,12.95c1.12,4.14,2.36,8.48,5.06,11.3C257.64,642,265.77,639.41,266.25,632Z" transform="translate(-151.17 -87.28)"/><path class="cls-3" d="M248.39,619.6a1.23,1.23,0,0,0,.56-.08c2.76-1,5.57-1.92,8.3-3,2.47-1,5.14-1.15,7.53-2.27l-7.2-13.2a27.64,27.64,0,0,0-2.65-4.24c-2.57-3.19-6.39-5.07-10.08-6.85-5.73-2.77-9.21,4.78-7.76,9.75,1.18,4,4.45,8.24,6.45,11.94C244.37,613.2,246.14,619.4,248.39,619.6Z" transform="translate(-151.17 -87.28)"/><path class="cls-10" d="M239.37,600c.14-1.17,6.64-4.36,7.85-4.84,2.08-.84,15,26.61,16.58,29.51a10.25,10.25,0,0,1,1.64,4.63c.1,4.14-5.39,6.5-9.09,6.82-5.41.46-5.4-2.22-6.72-6.1l-4.18-12.23Q242.4,608.88,239.37,600Z" transform="translate(-151.17 -87.28)"/><path class="cls-10" d="M251.5,603.29a6.24,6.24,0,0,0,.22-1.28c.07-1-.56-1.69-1-2.54l-2.64-5-3.37-6.36v-4.09c0-2.28,0-4.55,0-6.83v-1c0-.13,0-.26,0-.39-.06-1.09-1.24-2-1.91-2.79l-2.42-2.74c-.23-.26-.43-.57-.68-.81a4.38,4.38,0,0,0-.81-.47c-.51-.27-1-.52-1.54-.77-1.14-.57-2.29-1.15-3.47-1.62a3.87,3.87,0,0,0-.65-.23c-1.06-.24-.67,2.3,1,3.31S238,571.37,239,573s2.2,3.58,2.2,3.58l-3.9-3.85-.62-.62a14.26,14.26,0,0,0-2.31-1.69c-1.11-.71-2.23-1.41-3.38-2.07-2.57-1.49-3.05-.59-2,.87s5.41,4.78,5.48,4.83c.5.38.65,1,1,1.47l1.06,1.59a13.78,13.78,0,0,0,1.3,2l-5.87-6s-3.71-3.66-4.93-3.22,3.7,6,3.7,6l3.83,5.08-.16-.14a66.91,66.91,0,0,1-4.93-4.89l-1-1.18s-1.08-1.19-1.23,0,1.52,4.11,1.9,4.85,2.79,3.57,3.27,5.09,1.49,6.46,3.3,7.65l1.82,1.19c1,3.23,1.78,6.56,3,9.73.48,1.23.86,3.2,2.08,3.93s3.74.55,5.16.14A5.58,5.58,0,0,0,251.5,603.29Z" transform="translate(-151.17 -87.28)"/><path class="cls-3" d="M250.48,569.77a37.68,37.68,0,0,1-5.59-2.67c-.52-.31-.91.54-.4.85a36.75,36.75,0,0,0,5.59,2.67c.56.22,1-.63.4-.85Z" transform="translate(-151.17 -87.28)"/><path class="cls-3" d="M249.91,564.88a17.49,17.49,0,0,1-3.79-.59c-.59-.13-.76.8-.17.93a19.05,19.05,0,0,0,4,.6c.6,0,.52-.94-.08-.94Z" transform="translate(-151.17 -87.28)"/><path class="cls-3" d="M249.62,559.23a42.12,42.12,0,0,1-5,1.85c-.59.17-.26,1,.32.88a43.36,43.36,0,0,0,5-1.84c.55-.24.23-1.13-.33-.89Z" transform="translate(-151.17 -87.28)"/><path class="cls-6" d="M179.35,651a7.76,7.76,0,0,1-5-3.55c-7.15-11.32,10.61-15.66,17.58-19.57l16.09-9s3.25,5.47,3.4,5.91c1.35,3.85-2.3,6.17-5.2,9a102.73,102.73,0,0,1-20.37,15.42,11.09,11.09,0,0,1-5.37,1.9A6,6,0,0,1,179.35,651Z" transform="translate(-151.17 -87.28)"/><path class="cls-6" d="M194.3,627.85a7,7,0,0,1,.51-1.24c.48-.89,1.42-1.16,2.27-1.65l5-2.88,6.42-3.68,2.24-3.56c1.25-2,2.5-4,3.74-5.93l.57-.91c.07-.11.14-.23.22-.34.65-.91,2.19-1.08,3.19-1.37l3.6-1.06a9.65,9.65,0,0,1,1-.33,3.86,3.86,0,0,1,1,0c.59,0,1.18.11,1.76.17,1.31.13,2.62.26,3.91.49a4.3,4.3,0,0,1,.69.16c1,.37-.68,2.36-2.69,2.33s-4.2-.58-6,.31-3.87,1.9-3.87,1.9l5.5-1.2.88-.2a14.35,14.35,0,0,1,2.93-.2c1.36,0,2.72,0,4.07,0,3.06.11,3,1.16,1.26,1.85s-7.32,1.19-7.41,1.19a5.3,5.3,0,0,0-1.66.75l-1.8.8a13.93,13.93,0,0,1-2.2,1l8.41-2s5.22-1.15,6-.09-6.49,3.17-6.49,3.17l-6.11,2.32.22,0c2.35-.45,4.67-.87,7-1.55l1.55-.46s1.59-.44,1.08.66-3.57,2.73-4.31,3.17-4.38,1.58-5.63,2.64-4.83,4.8-7.06,4.84l-2.23,0c-2.67,2.25-5.13,4.73-7.93,6.82-1.09.81-2.51,2.31-4,2.28-1.62,0-3.56-1.57-4.57-2.71A5.71,5.71,0,0,1,194.3,627.85Z" transform="translate(-151.17 -87.28)"/><path class="cls-2" d="M234.21,543.14s-7.55,19.79-27.51,17.34C197.54,545.83,225,528.49,234.21,543.14Z" transform="translate(-151.17 -87.28)"/><circle class="cls-1" cx="406.07" cy="417.78" r="53.69" transform="translate(-327.66 322.22) rotate(-45)"/><path class="cls-3" d="M327.32,440.5a78.62,78.62,0,0,0,57.95,30.85c1,0,2,.08,2.92.14a5.57,5.57,0,0,0,5.88-5.77c-.52-14.22-1.43-34.29-2.67-39.61s-1.1-14.2-7.15-17.24c-6.6-3.31-14.06-3.84-21.46-3.95-8.31-.12-17.11.22-25,2.88a16.26,16.26,0,0,0-5.68,3c-3.35,3-4.07,7.51-4.62,11.7-.1.74-.53,7.06-1,15.24a4.08,4.08,0,0,0,.8,2.72Z" transform="translate(-151.17 -87.28)"/><path class="cls-2" d="M367.86,370.35c-3.22-.81-4.94-3.06-8.39-2.81-5,.35-7.55,2.88-10.31,6.71-2,2.71-6.12,4.52-7.43,7.45-1,2.21.58,4.65,1,7a7.54,7.54,0,0,1-1.51,6c-.67.83-1.51,1.51-2.1,2.4a10.48,10.48,0,0,0-1.3,4.12q-.81,4.93-1.64,9.86a58.47,58.47,0,0,1,17.57.2c-1.47-.24.9-5.12,1.51-5.67,1.49-1.34,4.05-1.9,5.71-3.4A69.43,69.43,0,0,0,373.6,387C377.11,381.27,374.89,372.11,367.86,370.35Z" transform="translate(-151.17 -87.28)"/><path class="cls-4" d="M365.12,398.78a6.41,6.41,0,0,0,.05,1.64c.47,2.45,2.45,2.72,3.25,4.74a1.89,1.89,0,0,1-.15,1.41,8.92,8.92,0,0,1-8.66,5.14,8.72,8.72,0,0,1-7.83-6.18c5.18-2,2.82-8.26,2.57-12a1.64,1.64,0,0,1,.1-.88c.27-.53,1-.65,1.65-.7,2.51-.2,7.86-1.07,9,1.86C365.81,395.44,365.27,397.15,365.12,398.78Z" transform="translate(-151.17 -87.28)"/><path class="cls-4" d="M371.78,378.9c0-8.92-21.42-8.93-21.43,0,0,0-1.29,13.29,6,20.53a7.34,7.34,0,0,0,10.37,0C373.93,392.19,371.78,378.9,371.78,378.9Z" transform="translate(-151.17 -87.28)"/><path class="cls-4" d="M347.79,386c.75-3.09,3.66-1.06,3.66-1.06l.92,7.16C350.39,392.48,346.9,389.71,347.79,386Z" transform="translate(-151.17 -87.28)"/><path class="cls-3" d="M371.83,389.6a14.94,14.94,0,0,1-5.18,10.32,8,8,0,0,1-10.18,0c-1.41-1.23-2.34-2.58-4.05-3.15-.41,0-.82-4.32-1.12-7.17a56.71,56.71,0,0,1,7.68-2.85,13.37,13.37,0,0,1,11.45,1.84C371.15,389.08,371.63,389.48,371.83,389.6Z" transform="translate(-151.17 -87.28)"/><path class="cls-3" d="M351.71,390.28a23,23,0,0,0-1.33-5.85" transform="translate(-151.17 -87.28)"/><path class="cls-2" d="M365.75,370.53s-2.56,13.23-15.37,13.9C343,376.28,358.38,362.38,365.75,370.53Z" transform="translate(-151.17 -87.28)"/><path class="cls-2" d="M372.08,382.86c-5.75-3.73-8-11.78-8-11.78C371.15,369.75,375.34,376.55,372.08,382.86Z" transform="translate(-151.17 -87.28)"/><path class="cls-2" d="M380.11,397a4.06,4.06,0,0,0-.35-1.69c-.75-1.64-2.76-2.35-3.7-3.89-1-1.7-.51-3.88-.56-5.87a10,10,0,0,0-6.23-8.89c1,3.27,2.91,7,2.56,10.78-.31,3.4-.26,6.88-2.11,9.89-.94,1.53-3.39,2.44-4.11,4-2.64,5.58-1.68,11.43-2.58,17.3q10.88-.72,21.77-.44a16.4,16.4,0,0,1-1.69-8.32c.1-1.69.45-3.5-.35-5-.63-1.2-1.91-2-2.45-3.22C379.68,400.23,380.15,398.57,380.11,397Z" transform="translate(-151.17 -87.28)"/><path class="cls-3" d="M419.13,472.92c14.89-4.3,29.26-10.9,41.27-20.68a80.22,80.22,0,0,0,20.68-25,36.33,36.33,0,0,0,1.49-3.62A10.89,10.89,0,0,0,481,412.91a19.1,19.1,0,0,0-2.86-3c-9.09-7.52-25.45-6.52-36.17-4.74a75.12,75.12,0,0,0-9.34,2.19c-3,.92-6.34,2-8,4.73a13.55,13.55,0,0,0-1.49,4.37c-2.95,13.66-2.54,28.64-3.83,42.67-.07.84-.52,7.62-1.08,13a.71.71,0,0,0,.91.76Z" transform="translate(-151.17 -87.28)"/><path class="cls-6" d="M448.68,399.89c-.06.27-.12.52-.17.73a4.81,4.81,0,0,1-.8,1.82c-.95,1.16-2.72,1.2-4,2a.86.86,0,0,0-.41.51c-.07.35.24.64.52.85,5.58,4.1,14.94,6.08,18.95-1-1.69-1-3.82-1.45-4.33-3.63-.41-1.74.62-4.25.32-6.19-.42-2.79-3.75-8.84-7.13-6.41C449.28,390.27,449.26,397.25,448.68,399.89Z" transform="translate(-151.17 -87.28)"/><path class="cls-2" d="M439.75,365c1.16,1.91,3.69,1.15,5.37.63,2.2-.67,4.4-1.59,6.74-1.53a13.39,13.39,0,0,1,9,4.21c2.51,2.77,2.39,7.23.53,10.48l-18.25,1.74-.49.74C434.77,375.65,439.75,365,439.75,365Z" transform="translate(-151.17 -87.28)"/><path class="cls-2" d="M455.81,399.07c8.41-3.61,14.05-10.91,14.32-18.52a8.83,8.83,0,0,0-1.88-6.31A7.53,7.53,0,0,0,461,372,29.49,29.49,0,0,0,455.81,399.07Z" transform="translate(-151.17 -87.28)"/><path class="cls-4" d="M445.54,402.09h0a3.45,3.45,0,0,0,2.19,1,8.89,8.89,0,0,0,3.82-.64,12.73,12.73,0,0,0,6.94-6.59C462,388.4,460,379.69,460,379.69c-3.06-10.12-19.15-9.76-20-.1C440,379.59,437.59,394.16,445.54,402.09Z" transform="translate(-151.17 -87.28)"/><path class="cls-4" d="M463.91,388.9c-.66-3.42-4-1.35-4-1.35l-1.36,7.79C460.75,395.84,464.71,393,463.91,388.9Z" transform="translate(-151.17 -87.28)"/><path class="cls-11" d="M457.75,375.78" transform="translate(-151.17 -87.28)"/><path class="cls-2" d="M460.54,386.91s-5.09-5.4-4-12.28c2.81,1.61,6,5.45,5.08,8.56-.16.6-.88,3.08-1,3.72Z" transform="translate(-151.17 -87.28)"/><path class="cls-3" d="M443.44,401l0,0a7,7,0,0,0,7.11,2.31,8.13,8.13,0,0,0,3.29-1.71c.93-.8,1.67-1.64,2.52-2.32h0a14.3,14.3,0,0,1-1.46-10.13l.1-.45c-1.21-.43-2.55-.87-3.91-1.27a15,15,0,0,0-11.56,1.36A20,20,0,0,0,443.44,401Z" transform="translate(-151.17 -87.28)"/><path class="cls-5" d="M460.5,387.24c-1.19,3-7.32,2.54-7.32,2.54" transform="translate(-151.17 -87.28)"/><path class="cls-5" d="M458.72,395.37a9.24,9.24,0,0,1-4.72,3.52" transform="translate(-151.17 -87.28)"/><path class="cls-2" d="M428.68,383.43v3.9a.54.54,0,0,0,.86.44l2.7-1.95a.54.54,0,0,0,0-.88l-2.7-2A.54.54,0,0,0,428.68,383.43Z" transform="translate(-151.17 -87.28)"/><path class="cls-2" d="M382.27,385.82l2.7,1.95a.54.54,0,0,0,.86-.44v-3.9A.54.54,0,0,0,385,383l-2.7,2A.53.53,0,0,0,382.27,385.82Z" transform="translate(-151.17 -87.28)"/><line class="cls-12" x1="232.57" y1="298.1" x2="279.59" y2="298.1"/><circle class="cls-1" cx="406.07" cy="251.44" r="53.69" transform="translate(-198.08 12.75) rotate(-13.28)"/><path class="cls-13" d="M436.33,305a8.61,8.61,0,0,1-12-1.92l-11.8-16.26a19.76,19.76,0,0,1-3.5-15.17,20.43,20.43,0,0,1,8.23-12.9l.56-.4a20,20,0,0,1,27.84,4.42L457.42,279a8.63,8.63,0,0,1-1.91,12Zm-4-48.45a18.11,18.11,0,0,0-13.52,3.23l-.56.41a18.63,18.63,0,0,0-7.46,11.43,18,18,0,0,0,3.12,14.16l10.76,14.82a8.62,8.62,0,0,0,12.05,1.92L453,290.69a8.62,8.62,0,0,0,1.91-12.05l-10.75-14.82A18.1,18.1,0,0,0,432.34,256.55Z" transform="translate(-151.17 -87.28)"/><rect class="cls-13" x="404.31" y="250.05" width="19.85" height="8.66" transform="translate(-221.6 204.5) rotate(-35.97)"/><path class="cls-13" d="M416.16,267.59h39.17a0,0,0,0,1,0,0v18.28a14.59,14.59,0,0,1-14.59,14.59h-10a14.59,14.59,0,0,1-14.59-14.59V267.59a0,0,0,0,1,0,0Z" transform="translate(-234.91 222.78) rotate(-35.97)"/><polygon class="cls-13" points="252.6 145.09 244.25 151.15 249.38 157.56 257.41 151.73 252.6 145.09"/><path class="cls-13" d="M409.7,254.89l-8.46-11.65,6.06-4.39,8.45,11.65Zm-6-11.26,6.37,8.78,3.18-2.31-6.37-8.78Z" transform="translate(-151.17 -87.28)"/><rect class="cls-3" x="376.55" y="243.01" width="0.92" height="31.32" rx="0.46" transform="translate(186.01 -284.08) rotate(50.55)"/><rect class="cls-3" x="381.94" y="247.97" width="0.92" height="31.32" rx="0.46" transform="translate(67.83 -258.43) rotate(34.82)"/><rect class="cls-3" x="372.25" y="236.19" width="0.92" height="31.32" rx="0.46" transform="translate(141.11 607.15) rotate(-113.75)"/><path class="cls-14" d="M477.67,190.59a15.18,15.18,0,0,0-3-.36c-2.29,0-3.86,1.51-5.78,2.66l-11.2,6.7-14.36,8.59-9.49.49L418,209.5l-2.42.13c-.3,0-.61,0-.91,0-2.51.29-4.55,3.13-6.24,4.78l-6.07,5.93c-.58.57-1.26,1.06-1.79,1.69a9.05,9.05,0,0,0-1,1.93c-.57,1.2-1.08,2.44-1.61,3.67-1.18,2.71-2.38,5.44-3.35,8.24a11.66,11.66,0,0,0-.45,1.53c-.43,2.49,5.41,1.28,7.56-2.72s3.51-8.93,7.24-11.47,8-5.53,8-5.53l-8.46,9.51-1.36,1.52a32.66,32.66,0,0,0-3.64,5.56c-1.53,2.66-3,5.34-4.42,8.07-3.15,6.16-1,7.17,2.27,4.52s10.43-13.12,10.54-13.28c.83-1.22,2.18-1.63,3.31-2.47l3.56-2.65a32.66,32.66,0,0,0,4.37-3.26l-13.29,14.35s-8,9-6.87,11.82,13.41-9.29,13.41-9.29l11.34-9.49a2.92,2.92,0,0,0-.32.38,159.35,159.35,0,0,1-10.75,12l-2.62,2.54s-2.62,2.65.11,2.87,9.34-4,11-5,7.95-6.9,11.42-8.18S451.42,233,454,228.68l2.55-4.35c7.37-2.79,15-4.91,22.21-8.13,2.81-1.25,7.33-2.38,8.88-5.29,1.72-3.22.82-8.75-.3-12A12.93,12.93,0,0,0,477.67,190.59Z" transform="translate(-151.17 -87.28)"/></g><text class="cls-15" transform="translate(79.1 20.87)">P<tspan class="cls-16" x="12.43" y="0">H</tspan><tspan x="27.24" y="0">Ò</tspan><tspan class="cls-17" x="44.5" y="0">N</tspan><tspan x="59.47" y="0">G</tspan><tspan class="cls-18" x="76.48" y="0"> </tspan><tspan x="80.68" y="0">C</tspan><tspan class="cls-19" x="96.1" y="0">H</tspan><tspan x="110.9" y="0">Ố</tspan><tspan class="cls-20" x="128.16" y="0">N</tspan><tspan x="143.14" y="0">G</tspan></text><text class="cls-21" transform="translate(44.94 54.02)">CORON<tspan class="cls-22" x="114.75" y="0">A</tspan><tspan x="134.51" y="0">VIRUS</tspan></text><text class="cls-23" transform="translate(20.6 69.98)">Đ<tspan class="cls-24" x="13.38" y="0">ẠI DỊCH</tspan><tspan class="cls-25" x="91.31" y="0"> </tspan><tspan class="cls-26" x="98.08" y="0">C</tspan><tspan class="cls-27" x="111.93" y="0">O</tspan><tspan class="cls-28" x="126.7" y="0">VID (</tspan><tspan class="cls-29" x="177.51" y="0">C</tspan><tspan class="cls-30" x="191.36" y="0">O</tspan><tspan class="cls-31" x="206.13" y="0">VID</tspan><tspan class="cls-27" x="241" y="0">-</tspan><tspan class="cls-24" x="250.76" y="0">19)</tspan></text><text class="cls-32" transform="translate(22.91 243.82)">SỬ DỤ<tspan class="cls-33" x="50.92" y="0">N</tspan><tspan x="63.65" y="0">G </tspan><tspan x="-15.94" y="21.43">KH</tspan><tspan class="cls-34" x="8.77" y="21.43">Ẩ</tspan><tspan x="21.37" y="21.43">U</tspan><tspan class="cls-35" x="33.32" y="21.43"> </tspan><tspan x="36.53" y="21.43">TRA</tspan><tspan class="cls-33" x="70.79" y="21.43">N</tspan><tspan x="83.52" y="21.43">G</tspan></text><text class="cls-32" transform="translate(28.39 410.16)">RỬA<tspan class="cls-35" x="35.8" y="0"> </tspan><tspan class="cls-36" x="39.01" y="0">T</tspan><tspan class="cls-37" x="48.26" y="0">A</tspan><tspan x="59.7" y="0">Y</tspan></text><text class="cls-38" transform="translate(23.51 422.11)">THƯỜ<tspan class="cls-39" x="28.98" y="0">N</tspan><tspan x="36.4" y="0">G</tspan><tspan class="cls-40" x="45.07" y="0"> </tspan><tspan x="47.23" y="0">XUYÊN</tspan></text><text class="cls-32" transform="translate(0 583.83)">K<tspan class="cls-33" x="11.94" y="0">H</tspan><tspan class="cls-41" x="24.53" y="0">Ô</tspan><tspan class="cls-33" x="39.21" y="0">N</tspan><tspan x="51.94" y="0">G</tspan><tspan class="cls-42" x="66.4" y="0"> </tspan><tspan x="69.97" y="0">CHẠM </tspan><tspan class="cls-36" x="29.55" y="21.42">T</tspan><tspan class="cls-37" x="38.8" y="21.42">A</tspan><tspan x="50.24" y="21.42">Y LÊN</tspan></text><text class="cls-38" transform="translate(17.2 617.78)">M<tspan class="cls-43" x="8.98" y="0">Ắ</tspan><tspan class="cls-44" x="15.51" y="0">T</tspan><tspan x="20.7" y="0">, MŨI</tspan><tspan class="cls-45" x="44.07" y="0"> </tspan><tspan class="cls-46" x="46.02" y="0">V</tspan><tspan x="52.1" y="0">À MIỆ</tspan><tspan class="cls-47" x="79.11" y="0">N</tspan><tspan x="86.53" y="0">G</tspan></text><text class="cls-32" transform="translate(204.17 243.82)">KHỬ<tspan class="cls-35" x="36.65" y="0"> </tspan><tspan x="39.87" y="0">TRÙ</tspan><tspan class="cls-34" x="73.29" y="0">N</tspan><tspan class="cls-48" x="86.02" y="0">G</tspan></text><text class="cls-32" transform="translate(169.86 410.16)">GIỮ K<tspan class="cls-34" x="47.26" y="0">H</tspan><tspan class="cls-49" x="59.85" y="0">O</tspan><tspan x="74.17" y="0">Ả</tspan><tspan class="cls-50" x="86.95" y="0">N</tspan><tspan x="99.68" y="0">G</tspan><tspan class="cls-51" x="114.14" y="0"> </tspan><tspan class="cls-48" x="117.71" y="0">C</tspan><tspan class="cls-49" x="130.82" y="0">Á</tspan><tspan x="143.24" y="0">CH</tspan></text><text class="cls-38" transform="translate(211.41 422.11)"><tspan class="cls-52">V</tspan><tspan x="6.51" y="0">ỚI </tspan><tspan class="cls-39" x="20.21" y="0">N</tspan><tspan class="cls-53" x="27.64" y="0">GƯỜI KH</tspan><tspan class="cls-54" x="71.1" y="0">Á</tspan><tspan x="78.11" y="0">C</tspan></text><text class="cls-32" transform="translate(225.88 583.83)">Ở NHÀ</text><text class="cls-38" transform="translate(179.17 595.78)">NẾU<tspan class="cls-54" x="20.34" y="0"> </tspan><tspan class="cls-39" x="22.51" y="0">C</tspan><tspan x="30.29" y="0">Ó BIỂU HIỆN M</tspan><tspan class="cls-54" x="100.34" y="0">Ắ</tspan><tspan x="107.35" y="0">C</tspan><tspan class="cls-54" x="115.24" y="0"> </tspan><tspan class="cls-39" x="117.4" y="0">C</tspan><tspan class="cls-52" x="125.18" y="0">O</tspan><tspan x="133.62" y="0">VID</tspan></text></svg>