<svg id="Layer_1" data-name="Layer 1" xmlns="http://www.w3.org/2000/svg" viewBox="0 0 68 68"><defs><style>.cls-1{fill:#3988c0;}.cls-2{fill:none;stroke:#3988c0;stroke-miterlimit:10;}.cls-3{fill:#fff;}</style></defs><title>mailicon</title><circle class="cls-1" cx="34" cy="34" r="26.25"/><circle class="cls-2" cx="34" cy="34" r="33.5"/><circle class="cls-1" cx="63.5" cy="34" r="1.62"/><circle class="cls-1" cx="4.5" cy="34" r="1.62"/><path class="cls-3" d="M349.15,282.71H323a2.25,2.25,0,0,0-2.25,2.25v15.62a2.25,2.25,0,0,0,2.25,2.25h26.13a2.25,2.25,0,0,0,2.25-2.25V285A2.25,2.25,0,0,0,349.15,282.71Zm.44,2.6-13.22,7.34a.43.43,0,0,1-.25.07h-.07a.47.47,0,0,1-.25-.07l-13.21-7.34a.52.52,0,1,1,.5-.91l13,7.22,13-7.22a.52.52,0,0,1,.71.21A.51.51,0,0,1,349.59,285.31Z" transform="translate(-302.09 -257.62)"/></svg>