<svg id="Layer_1" data-name="Layer 1" xmlns="http://www.w3.org/2000/svg" viewBox="0 0 218.05 218.08"><defs><style>.cls-1{fill:#bde2cd;}.cls-2,.cls-5{fill:#f1e9aa;}.cls-3{fill:#89d0c4;}.cls-4{fill:#f4e492;}.cls-5{opacity:0.19;}.cls-6{fill:#dea05f;}.cls-7{fill:#f3f3f3;}.cls-19,.cls-8{fill:#f15a5b;}.cls-20,.cls-9{fill:#db5352;}.cls-10{fill:#dbdddd;}.cls-11{fill:#cc8d53;}.cls-12,.cls-24{fill:#343031;}.cls-12,.cls-23{opacity:0.13;}.cls-13{fill:#c68652;}.cls-14{fill:#bf804c;}.cls-15{fill:#d39359;}.cls-16,.cls-17{fill:#cd8e54;}.cls-17,.cls-19,.cls-20{fill-rule:evenodd;}.cls-18{fill:#fff;}.cls-21{opacity:0.17;}.cls-22{fill:#2f3030;}.cls-25{fill:#c0286d;}</style></defs><title>paradise</title><rect class="cls-1" width="218.05" height="217.42"/><circle class="cls-2" cx="158.65" cy="96.41" r="14.78"/><rect class="cls-3" y="96.41" width="218.05" height="58.19"/><path class="cls-4" d="M173.15,264.34c-26.1,1.52-59.46,7.4-59.46,7.4V369H331.74V274.11s-27.47,2.66-51,2.66S205.92,262.43,173.15,264.34Z" transform="translate(-113.69 -150.92)"/><circle class="cls-5" cx="158.65" cy="96.41" r="14.78"/><path class="cls-6" d="M191.74,331.56c0,.36,1.56.21,1.51-.2s-14.07-106-14.07-106a.39.39,0,0,0-.44-.33l-.74.1a.38.38,0,0,0-.33.43Z" transform="translate(-113.69 -150.92)"/><path class="cls-7" d="M230.75,240.83s-19.36-13.17-52.19-13.74c0,0-24.76,7.46-43.82,22.91l-1,6.47a.13.13,0,0,0,0,.12l2.86,4.26a.17.17,0,0,0,.3-.05l1.67-6.44,1.19,8.16a.42.42,0,0,0,.41.36c3,0,23.54.17,27.37-.07a.54.54,0,0,0,.49-.49l.54-7.51,2.5,7.49s35.83-4.5,37.3-5.91l.86-7.84,2.48,6.81a.44.44,0,0,0,.51.28c2.4-.6,15.1-3.93,19.42-6.77a.29.29,0,0,0,.13-.28Z" transform="translate(-113.69 -150.92)"/><path class="cls-8" d="M178.56,227.09c-.26,0,26.28,15,30.68,21.46,0,0,19.81-5.51,21.51-7.72C227,239.4,198.34,227.77,178.56,227.09Z" transform="translate(-113.69 -150.92)"/><path class="cls-8" d="M178.56,227.09s-10.09,22.72-10,27.72c0,0-22.06,1.69-30-.45C138.58,254.36,171.13,227.42,178.56,227.09Z" transform="translate(-113.69 -150.92)"/><path class="cls-9" d="M230.75,240.83l1,7.76a.28.28,0,0,1-.12.28c-5.92,3.77-17.25,6.32-19.43,6.79a.45.45,0,0,1-.5-.28l-2.48-6.83S230,242.29,230.75,240.83Z" transform="translate(-113.69 -150.92)"/><path class="cls-9" d="M168.58,254.81l-.54,7.52a.53.53,0,0,1-.47.49c-15.59,2-25.62.44-27.45.11a.41.41,0,0,1-.34-.35l-1.2-8.22S146.53,255.88,168.58,254.81Z" transform="translate(-113.69 -150.92)"/><path class="cls-10" d="M138.58,254.36l-1.67,6.44a.17.17,0,0,1-.3.05l-2.84-4.22a.3.3,0,0,1,0-.21l1-6.42A7,7,0,0,0,138.58,254.36Z" transform="translate(-113.69 -150.92)"/><path class="cls-10" d="M209.24,248.55l-.86,7.84c-3.73,2.33-36.91,7.06-37.3,5.91l-2.5-7.49S193,254.18,209.24,248.55Z" transform="translate(-113.69 -150.92)"/><path class="cls-11" d="M182.44,261.51l1.85,13.91c.05.37,1.56.22,1.5-.2s-1.85-13.91-1.85-13.91" transform="translate(-113.69 -150.92)"/><path class="cls-12" d="M162.1,335c0,4.27,22.39,7.73,50,7.73s50-3.46,50-7.73-22.39-7.73-50-7.73S162.1,330.75,162.1,335Z" transform="translate(-113.69 -150.92)"/><path class="cls-13" d="M261.26,279.83l-52.6,63.76a1,1,0,0,0,.29,1.08c.56.39,1.24-.1,1.87-.74S262,281.44,262.43,281a1,1,0,0,0,0-1.49C261.81,279.07,261.26,279.83,261.26,279.83Z" transform="translate(-113.69 -150.92)"/><path class="cls-14" d="M232.72,278.79s-43.09,45.38-49.79,53.1a.86.86,0,0,0,.12,1.19s.42.49.46.5c.52.29.93-.59,1.53-1.18s48.67-52.26,49.09-52.67.83-.3.73-.66c0-.15-.66-.51-.87-.59A1.21,1.21,0,0,0,232.72,278.79Z" transform="translate(-113.69 -150.92)"/><path class="cls-15" d="M233.45,279.1l-50,53.38a.65.65,0,0,0-.16.32.85.85,0,0,0,.32.88c.54.41,1.24-.06,1.88-.68s48.68-52.26,49.09-52.67a1,1,0,0,0,.06-1.49C234,278.36,233.45,279.1,233.45,279.1Z" transform="translate(-113.69 -150.92)"/><path class="cls-16" d="M223.74,290.53s4.65,25.94,7,35.88c.06.27.31.67,1,.61.05,0,.65-.06.68-.08.54-.26.06-1.1-.06-1.93s-6.93-34.28-7-34.86c-.06-.4.25-.85-.11-1a4,4,0,0,0-1,.24C223.48,289.63,223.74,290.53,223.74,290.53Z" transform="translate(-113.69 -150.92)"/><path class="cls-6" d="M224.44,290.33l7.08,36a.58.58,0,0,0,.16.32.87.87,0,0,0,.9.26c.65-.2.68-1,.55-1.93s-6.93-34.28-7-34.85a1,1,0,0,0-1.17-.92C224.18,289.43,224.44,290.33,224.44,290.33Z" transform="translate(-113.69 -150.92)"/><path class="cls-17" d="M225.76,290.36a.38.38,0,0,1-.39.38.43.43,0,0,1-.33-.47.37.37,0,0,1,.39-.38A.43.43,0,0,1,225.76,290.36Z" transform="translate(-113.69 -150.92)"/><path class="cls-6" d="M233.94,280.15c-.24,0-.31,1,0,1l26.48,1.06a.25.25,0,0,0,.26-.24l0-.48a.25.25,0,0,0-.24-.26S234.18,280.17,233.94,280.15Z" transform="translate(-113.69 -150.92)"/><path class="cls-6" d="M187,330c-.22-.08-.59.83-.34.92L212,340.06a.24.24,0,0,0,.32-.14l.17-.45a.26.26,0,0,0-.15-.33Z" transform="translate(-113.69 -150.92)"/><path class="cls-6" d="M188.37,320.28c-.23-.08-.59.84-.33.93l25.53,8.84a.26.26,0,0,0,.32-.15l.16-.46a.26.26,0,0,0-.15-.32Z" transform="translate(-113.69 -150.92)"/><path class="cls-6" d="M185.49,332c-.23-.08-.6.83-.34.92l25.41,9.17a.25.25,0,0,0,.32-.15l.17-.45a.26.26,0,0,0-.15-.32Z" transform="translate(-113.69 -150.92)"/><path class="cls-18" d="M242.13,319.2c-12.85,7.25-27.63,7.7-30.34,8.25-3,.63-3.21,5-3.18,6.53a.39.39,0,0,1-.51.37l-26.35-8.45s-.52-7.55,1.22-7.69c17.54-1.41,29-6.7,33.85-9.9a36.8,36.8,0,0,0,16.55-27.74l25.23,1.08S258.69,309.84,242.13,319.2Z" transform="translate(-113.69 -150.92)"/><path class="cls-10" d="M258.43,285.3l-26-1.64a14.28,14.28,0,0,1,.13-3.32.25.25,0,0,1,.26-.21l26,1A20,20,0,0,0,258.43,285.3Z" transform="translate(-113.69 -150.92)"/><path class="cls-19" d="M189.4,318.63c-1.08.11-8.22-.32-6.29,7.54l-1.77-.27s-4.36-8.19,6.16-9c25.94-2.05,42-14,45.05-36.52a.27.27,0,0,1,.28-.23l2.57.1C233.75,286.55,230.27,314.74,189.4,318.63Zm52.35-38.12-2.78-.09c-10.46,29.47-22,35.3-51.93,39.31-3,.41-2.65,7-2.65,7l2.8.9c.59-6.09,1.15-6.38,7-7.15C217.29,317.46,236.52,309,241.75,280.51Zm5.44.22-2.77-.15c-5.61,32.25-26.18,36.61-50.64,40.72-5.68.95-4.64,7-4.64,7l3.27,1c.58-3.57.15-6.75,9.31-7.95C226.7,318.07,244.22,309.24,247.19,280.73Zm5.95.2-2.77-.19c-5.62,29.68-21.14,37.8-44.79,40.88-2.59.33-8.15,1.66-9.56,4.36a12.31,12.31,0,0,0-1.05,4.14l3.85,1.23c0-3.75,3.82-7.81,10-8.5C232.22,320.23,247.63,315.2,253.14,280.93Zm4.95.19-2.86-.06c-6.26,29.22-16.17,41.14-42.74,42.15-9.92.38-10.87,9-10.87,9l3.54,1.13c.58-4.68,2-8,9-8C237,325.36,255.84,314.7,258.09,281.12Z" transform="translate(-113.69 -150.92)"/><path class="cls-20" d="M232,283.79a11.79,11.79,0,0,0,.31-3.23.44.44,0,0,1,.5-.42l2.56.11c-.23.88-.49,2.18-.89,3.77h0a6.78,6.78,0,0,0-2.22-.25Zm8.27.26a2.15,2.15,0,0,1,.73.1c.28-1.18.54-2.39.77-3.64l-2.78-.09c-.43,1.23-.87,2.42-1.31,3.57l0,.06C238.5,284.07,239.37,284.05,240.25,284.05Zm17.23,1.11.24,0s0-.08,0-.13c.14-1.27.26-2.58.35-3.93l-2.86-.06q-.43,2-.9,4v0C255.38,285.09,256.43,285.15,257.48,285.16Zm-5.22-.18h.16v-.07c.26-1.28.49-2.61.71-4l-2.77-.19c-.26,1.37-.54,2.7-.85,4v0A11.48,11.48,0,0,1,252.26,285Zm-6-.45.41,0c.2-1.23.37-2.51.5-3.82l-2.77-.15c-.23,1.31-.48,2.57-.76,3.78a.36.36,0,0,1,0,.1h.12A9.68,9.68,0,0,1,246.28,284.53Z" transform="translate(-113.69 -150.92)"/><g class="cls-21"><path class="cls-22" d="M258.32,286.65c-2.11,19.86-23,25.45-40.83,20.57a33.62,33.62,0,0,0,9.68-10.66c4.19-7,5.29-13.9,5.11-16.07a.68.68,0,0,1,.53-.36l26,1S258.48,284.63,258.32,286.65Z" transform="translate(-113.69 -150.92)"/></g><path class="cls-16" d="M260.68,279.47s-46.1,55.36-52.27,63.5a.85.85,0,0,0,.19,1.18s.46.46.49.47c.55.25.89-.66,1.46-1.28s51-62.28,51.35-62.72.81-.36.69-.71a3.57,3.57,0,0,0-.73-.78C261.21,278.69,260.68,279.47,260.68,279.47Z" transform="translate(-113.69 -150.92)"/><path class="cls-6" d="M261.19,280,209,343.53a.58.58,0,0,0-.14.33.87.87,0,0,0,.37.86c.57.37,1.24-.15,1.84-.82s51-62.28,51.36-62.72a1,1,0,0,0,0-1.48C261.71,279.26,261.19,280,261.19,280Z" transform="translate(-113.69 -150.92)"/><path class="cls-17" d="M262.08,281a.37.37,0,0,1-.53.11.43.43,0,0,1,0-.57.38.38,0,0,1,.54-.11A.41.41,0,0,1,262.08,281Z" transform="translate(-113.69 -150.92)"/><path class="cls-16" d="M254.13,290.33s4.25,30.58,6.22,40.6c0,.28.3.68,1,.65l.68-.05c.54-.25.1-1.11,0-1.94s-6.18-38.83-6.25-39.41c-.05-.41.27-.84-.07-1a3.51,3.51,0,0,0-1.07,0C253.9,289.42,254.13,290.33,254.13,290.33Z" transform="translate(-113.69 -150.92)"/><path class="cls-6" d="M254.89,290.33l6.25,40.55a.6.6,0,0,0,.16.33.88.88,0,0,0,.89.29c.65-.18.71-1,.61-1.91s-6.18-38.83-6.25-39.41-.53-1.12-1.13-1C254.66,289.42,254.89,290.33,254.89,290.33Z" transform="translate(-113.69 -150.92)"/><path class="cls-17" d="M256.2,290.29a.38.38,0,0,1-.27.47.43.43,0,0,1-.45-.37.38.38,0,0,1,.28-.47A.44.44,0,0,1,256.2,290.29Z" transform="translate(-113.69 -150.92)"/><path class="cls-16" d="M260.55,325.45s-37.9,1.77-48.08,2.57c-.54,0-1.54.56-1.14,1.25.12.21.45.7.46.74.18.57,1-.16,1.84-.16s47.11-2.72,47.7-2.73a.94.94,0,0,0,.89-.51c.08-.14-.13-.4-.34-.58A2.08,2.08,0,0,0,260.55,325.45Z" transform="translate(-113.69 -150.92)"/><path class="cls-6" d="M261.28,326.2l-48.84,2.61a.7.7,0,0,0-.34.12.87.87,0,0,0-.39.85c.11.68.94.82,1.84.82s47.11-2.72,47.7-2.73,1.17-.4,1.08-1C262.21,326.07,261.28,326.2,261.28,326.2Z" transform="translate(-113.69 -150.92)"/><path class="cls-17" d="M261.06,326.68a.37.37,0,0,1,.54,0,.43.43,0,0,1-.08.57.37.37,0,0,1-.55,0A.44.44,0,0,1,261.06,326.68Z" transform="translate(-113.69 -150.92)"/><path class="cls-17" d="M221.93,328.92a.37.37,0,0,1,.54,0,.43.43,0,0,1-.09.57.36.36,0,0,1-.54,0A.42.42,0,0,1,221.93,328.92Z" transform="translate(-113.69 -150.92)"/><g class="cls-23"><path class="cls-24" d="M295.86,336.69h0v-.07c0-.12,0-.24,0-.35s0-.13,0-.19a3,3,0,0,0-.06-.42s0-.07,0-.1-.07-.34-.11-.51,0-.1,0-.15a3.57,3.57,0,0,0-.1-.35l-.06-.19-.11-.3a1.08,1.08,0,0,0-.08-.19,1.48,1.48,0,0,0-.12-.29,1.54,1.54,0,0,0-.08-.19c-.05-.09-.09-.19-.14-.28l-.09-.17a2.69,2.69,0,0,0-.16-.29l-.08-.15-.23-.37,0-.05-.28-.41-.09-.13c-.07-.09-.13-.18-.2-.26l-.11-.15-.19-.23-.12-.14-.18-.22-.12-.14-.19-.2-.12-.13-.21-.21-.09-.1-.31-.29-.51-.45-.07-.05c-.17-.14-.36-.28-.55-.42l-.1-.07-.62-.39a.41.41,0,0,0-.11-.07l-.69-.39-.09,0c-.25-.13-.51-.26-.78-.38h0l-.85-.35-.11,0-.87-.31-.16-.05-.93-.28-.07,0h0a34.71,34.71,0,0,0-14.19-.46s-10.16,1.56-13.5,8.35a9.26,9.26,0,0,0-1,4.89,3,3,0,0,0,0,.31h0c.5,4.08,4.18,7,7.82,8.6A21.45,21.45,0,0,0,268.3,349h0l.63.14.32.07.79.14.17,0,1,.13.28,0,.73.08.36,0,.68,0,.37,0,.73,0h.31q.52,0,1,0h.11c.31,0,.63,0,.94,0l.35,0,.72,0,.38,0,.7-.07.37-.05c.27,0,.55-.07.82-.12l.23,0,1.05-.19.26-.06.77-.17.37-.09.67-.18.37-.1.69-.22.32-.1,1-.35.17-.07h0a19.74,19.74,0,0,0,6-3.57C294.92,341.54,295.92,339,295.86,336.69Zm-14.28-2.12.51.18.08,0,.39.15.15.07.28.12.15.08.24.11.13.07.22.12.11.06.22.13.07,0,.24.14.05,0,.14.09,0,0,0,0,.07,0,.25.19a21.77,21.77,0,0,1-3.44,1.82l-.38.14-.45.17-.37.13-.43.14-.37.1-.42.11-.36.09-.41.09-.35.06-.4.06-.33.05-.39,0-.33,0-.37,0-.31,0h-1.31l-.34,0-.27,0-.34,0-.25,0-.34-.06-.22,0-.35-.07-.19,0-.43-.11-.19-.06a11.22,11.22,0,0,1-3.56-1.65l.07,0,0-.05.13-.11C273.8,333.17,278.6,333.58,281.58,334.57Z" transform="translate(-113.69 -150.92)"/><path class="cls-24" d="M268.3,349h0l-.16,0Z" transform="translate(-113.69 -150.92)"/></g><path class="cls-25" d="M293,325c-3.42-3.21-11.17-5.94-22.86-4.19,0,0-11.21,1.73-14.9,9.22s2,12.83,7.53,15.23c8.17,3.52,22.38,2.86,30.05-4S296.3,328.1,293,325Zm-26.68,8.43c10.75-7.36,18.68-1,18.68-1C274.14,339.51,266.35,333.46,266.35,333.46Z" transform="translate(-113.69 -150.92)"/><path class="cls-8" d="M281.38,330.65a13.75,13.75,0,0,1,3.33,1.61l0,.05c9.2-4.15,12.37.7,12.37.7h.13c-.08-3.38-2.27-6.21-4.14-8a17,17,0,0,0-7.2-3.67l-.33,0s-4.52,2.21-4.46,9.14" transform="translate(-113.69 -150.92)"/><path class="cls-8" d="M269.51,331.43a13.22,13.22,0,0,0-3.1,2l0,.05c-9.65-2.92-12.17,2.29-12.17,2.29h-.13c-.35-3.37,1.45-6.45,3.07-8.44a17.05,17.05,0,0,1,6.66-4.57l.34,0s4.77,1.61,5.61,8.49" transform="translate(-113.69 -150.92)"/><path class="cls-8" d="M281.37,334.44a16.32,16.32,0,0,1-11.45.74s-5,3.53-3.17,11.39l-.18-.05a34.6,34.6,0,0,0,19.5-1.22l.2-.07a11.08,11.08,0,0,0-4.36-10.5Z" transform="translate(-113.69 -150.92)"/></svg>