<svg id="Layer_1" data-name="Layer 1" xmlns="http://www.w3.org/2000/svg" viewBox="0 0 219 219"><defs><style>.cls-1{fill:#ad208b;}.cls-2{fill:#feea96;}.cls-3{fill:#94d5d2;}.cls-4{fill:#586166;}</style></defs><title>card</title><rect class="cls-1" width="219" height="219"/><path class="cls-2" d="M163.5,285.31a15.2,15.2,0,0,0,15.19,15.19h91.62a15.2,15.2,0,0,0,15.19-15.19V263.5h-122Zm13-14.81h69a3,3,0,0,1,0,6h-69a3,3,0,0,1,0-6Zm0,12h38a3,3,0,0,1,0,6h-38a3,3,0,0,1,0-6Z" transform="translate(-115 -150)"/><path class="cls-3" d="M163.5,257.5h122v-22h-122Zm89-15h18a3,3,0,0,1,0,6h-18a3,3,0,0,1,0-6Z" transform="translate(-115 -150)"/><path class="cls-2" d="M270.31,218.5H178.69a15.21,15.21,0,0,0-14.59,11H284.9A15.21,15.21,0,0,0,270.31,218.5Z" transform="translate(-115 -150)"/><path class="cls-4" d="M270.31,212.5H178.69a21.21,21.21,0,0,0-21.19,21.19v51.62a21.21,21.21,0,0,0,21.19,21.19h91.62a21.21,21.21,0,0,0,21.19-21.19V232.5a2.84,2.84,0,0,0-.1-.72A21.2,21.2,0,0,0,270.31,212.5Zm-91.62,6h91.62a15.21,15.21,0,0,1,14.59,11H164.1A15.21,15.21,0,0,1,178.69,218.5ZM285.5,285.31a15.2,15.2,0,0,1-15.19,15.19H178.69a15.2,15.2,0,0,1-15.19-15.19V263.5h122Zm0-27.81h-122v-22h122Z" transform="translate(-115 -150)"/><path class="cls-4" d="M176.5,276.5h69a3,3,0,0,0,0-6h-69a3,3,0,0,0,0,6Z" transform="translate(-115 -150)"/><path class="cls-4" d="M176.5,288.5h38a3,3,0,0,0,0-6h-38a3,3,0,0,0,0,6Z" transform="translate(-115 -150)"/><path class="cls-4" d="M252.5,248.5h18a3,3,0,0,0,0-6h-18a3,3,0,0,0,0,6Z" transform="translate(-115 -150)"/></svg>