<svg id="Layer_1" data-name="Layer 1" xmlns="http://www.w3.org/2000/svg" viewBox="0 0 158.95 159.29"><defs><style>.cls-1{fill:#fff;}</style></defs><title>logout</title><path class="cls-1" d="M224.54,346.64a5.76,5.76,0,0,0-5.25,5.74V484.12a5.75,5.75,0,0,0,4.75,5.67l60.13,10.71a5.77,5.77,0,0,0,6.77-5.67V347.06a5.76,5.76,0,0,0-6.27-5.74Zm50.63,82.18c-2.47,0-4.48-3.53-4.48-7.88s2-7.87,4.48-7.87,4.49,3.52,4.49,7.87S277.65,428.82,275.17,428.82Z" transform="translate(-219.29 -341.3)"/><polygon class="cls-1" points="158.96 76.56 111.96 41.66 111.96 59.77 75.44 59.77 75.44 93.13 111.96 93.13 111.96 111.23 158.96 76.56"/><path class="cls-1" d="M270.69,420.94c0,4.35,2,7.88,4.48,7.88s4.49-3.53,4.49-7.88-2-7.87-4.49-7.87S270.69,416.59,270.69,420.94Z" transform="translate(-219.29 -341.3)"/><path class="cls-1" d="M327.16,395.94v-45a4.49,4.49,0,0,0-4.48-4.49H294.73v9h23.46v40.56Z" transform="translate(-219.29 -341.3)"/><path class="cls-1" d="M294.73,486.51v9h27.95a4.49,4.49,0,0,0,4.48-4.49v-51.7h-9v47.22Z" transform="translate(-219.29 -341.3)"/></svg>